<svg width="31" height="26" viewBox="0 0 31 26" fill="none" xmlns="http://www.w3.org/2000/svg">
<path d="M31 0.0145754C31 0.0145754 28.1566 1.74191 26.5755 2.23151C25.7268 1.22811 24.5989 0.51692 23.3444 0.194132C22.0899 -0.128641 20.7693 -0.0474554 19.5611 0.426736C18.353 0.900927 17.3155 1.74523 16.5892 2.84545C15.8628 3.94569 15.4827 5.24875 15.5 6.57843V8.0274C13.0237 8.09342 10.57 7.52868 8.35733 6.38346C6.14468 5.23823 4.24181 3.54809 2.81818 1.46355C2.81818 1.46355 -2.81818 14.5044 9.86364 20.3003C6.96166 22.3258 3.50463 23.3415 0 23.1982C12.6818 30.4431 28.1818 23.1982 28.1818 6.53496C28.1806 6.13135 28.1428 5.72874 28.0691 5.33231C29.5072 3.8739 31 0.0145754 31 0.0145754Z" fill="white"/>
</svg>
