<svg width="31" height="32" viewBox="0 0 31 32" fill="none" xmlns="http://www.w3.org/2000/svg">
<path d="M22.6172 6.47864C22.0742 7.10428 22.1411 8.05166 22.7668 8.59467C23.3924 9.13768 24.3398 9.07069 24.8828 8.44504L22.6172 6.47864ZM24.8995 8.4258C25.4425 7.80015 25.3755 6.85277 24.7499 6.30976C24.1242 5.76675 23.1769 5.83375 22.6339 6.45939L24.8995 8.4258ZM15.5 22.2226V23.7226C19.6931 23.7226 23 20.2132 23 16.0003H21.5H20C20 18.6602 17.9343 20.7226 15.5 20.7226V22.2226ZM21.5 16.0003H23C23 11.7873 19.693 8.27811 15.5 8.27811V9.77811V11.2781C17.9343 11.2781 20 13.3404 20 16.0003H21.5ZM15.5 9.77811V8.27811C11.3069 8.27811 8.00003 11.7873 8.00003 16.0003H9.50003H11C11 13.3404 13.0657 11.2781 15.5 11.2781V9.77811ZM9.50003 16.0003H8.00003C8.00003 20.2132 11.3069 23.7226 15.5 23.7226V22.2226V20.7226C13.0657 20.7226 11 18.6602 11 16.0003H9.50003ZM2 22.2222H3.5V9.77778H2H0.5V22.2222H2ZM2 9.77778H3.5C3.5 6.25878 6.23725 3.5 9.5 3.5V2V0.5C4.47849 0.5 0.5 4.70569 0.5 9.77778H2ZM9.5 2V3.5H21.5V2V0.5H9.5V2ZM21.5 2V3.5C24.7627 3.5 27.5 6.25878 27.5 9.77778H29H30.5C30.5 4.70569 26.5215 0.5 21.5 0.5V2ZM29 9.77778H27.5V22.2222H29H30.5V9.77778H29ZM29 22.2222H27.5C27.5 25.7412 24.7627 28.5 21.5 28.5V30V31.5C26.5215 31.5 30.5 27.2943 30.5 22.2222H29ZM21.5 30V28.5H9.5V30V31.5H21.5V30ZM9.5 30V28.5C6.23725 28.5 3.5 25.7412 3.5 22.2222H2H0.5C0.5 27.2943 4.47849 31.5 9.5 31.5V30ZM23.75 7.46184L24.8828 8.44504L24.8995 8.4258L23.7667 7.4426L22.6339 6.45939L22.6172 6.47864L23.75 7.46184Z" fill="white"/>
</svg>
