<?xml version="1.0" standalone="no"?>
<!DOCTYPE svg PUBLIC "-//W3C//DTD SVG 1.1//EN" "http://www.w3.org/Graphics/SVG/1.1/DTD/svg11.dtd" >
<svg xmlns="http://www.w3.org/2000/svg" xmlns:xlink="http://www.w3.org/1999/xlink" version="1.1">
<metadata>
Created by FontForge 20201107 at Thu Feb  6 13:49:21 2025
 By 
Copyright (c) 2020 by Artegra. All rights reserved.
</metadata>
<defs>
<font id="FONTSPRINGDEMO-ProcerusBold" horiz-adv-x="1224" >
  <font-face 
    font-family="FSP DEMO - Procerus"
    font-weight="700"
    font-stretch="ultra-condensed"
    units-per-em="2048"
    panose-1="2 0 5 6 4 0 0 2 0 4"
    ascent="1585"
    descent="-463"
    x-height="1130"
    cap-height="1536"
    bbox="-47 -463 1098 1552"
    underline-thickness="102"
    underline-position="-204"
    unicode-range="U+000D-007E"
  />
<missing-glyph 
d="M207 403q-13 0 -19 -2v-200q4 -2 19 -2q37 0 50 25t13 77q0 54 -13 78t-50 24zM518 330v-49h-82v-78h96v-49h-155v297h155v-52h-96v-69h82zM203 150q-47 0 -74 4v292q61 9 76 9q67 0 96 -37.5t29 -116.5t-29.5 -115t-97.5 -36zM586 451h80l39 -164l38 164h82
q3 -45 13 -297h-60q0 108 -6 213l-41 -168h-55l-41 168h-2q-4 -140 -4 -213h-58q3 156 15 297zM987 150q-60 0 -84 35.5t-24 115.5q0 81 24 117.5t84 36.5t85.5 -37t25.5 -117q0 -79 -25.5 -115t-85.5 -36zM987 403q-29 0 -39 -23.5t-10 -78.5q0 -54 10 -78t39 -24
q30 0 40.5 24t10.5 78q0 55 -10 78.5t-41 23.5zM967 1016q49 0 79.5 -24.5t39 -51t8.5 -53.5q0 -43 -34.5 -72.5t-72.5 -34.5q-213 -23 -340 -147q3 8 9 22t25 53.5t39 75.5t50 80.5t59.5 76t66 53.5t71.5 22zM285 909q39 0 78 -21t69.5 -55t58.5 -74.5t48 -81.5t35 -75
t22 -55l8 -21q-117 148 -319 148q-49 0 -88 30t-39 76q0 53 33.5 91t93.5 38zM643 1214q38 -37 48.5 -102t-2.5 -131t-31.5 -126.5t-35.5 -98.5l-18 -39q20 191 -125 330q-35 35 -42 81.5t24 83.5q23 23 53 34t65 3.5t64 -35.5z" />
    <glyph glyph-name=".notdef" 
d="M207 403q-13 0 -19 -2v-200q4 -2 19 -2q37 0 50 25t13 77q0 54 -13 78t-50 24zM518 330v-49h-82v-78h96v-49h-155v297h155v-52h-96v-69h82zM203 150q-47 0 -74 4v292q61 9 76 9q67 0 96 -37.5t29 -116.5t-29.5 -115t-97.5 -36zM586 451h80l39 -164l38 164h82
q3 -45 13 -297h-60q0 108 -6 213l-41 -168h-55l-41 168h-2q-4 -140 -4 -213h-58q3 156 15 297zM987 150q-60 0 -84 35.5t-24 115.5q0 81 24 117.5t84 36.5t85.5 -37t25.5 -117q0 -79 -25.5 -115t-85.5 -36zM987 403q-29 0 -39 -23.5t-10 -78.5q0 -54 10 -78t39 -24
q30 0 40.5 24t10.5 78q0 55 -10 78.5t-41 23.5zM967 1016q49 0 79.5 -24.5t39 -51t8.5 -53.5q0 -43 -34.5 -72.5t-72.5 -34.5q-213 -23 -340 -147q3 8 9 22t25 53.5t39 75.5t50 80.5t59.5 76t66 53.5t71.5 22zM285 909q39 0 78 -21t69.5 -55t58.5 -74.5t48 -81.5t35 -75
t22 -55l8 -21q-117 148 -319 148q-49 0 -88 30t-39 76q0 53 33.5 91t93.5 38zM643 1214q38 -37 48.5 -102t-2.5 -131t-31.5 -126.5t-35.5 -98.5l-18 -39q20 191 -125 330q-35 35 -42 81.5t24 83.5q23 23 53 34t65 3.5t64 -35.5z" />
    <glyph glyph-name="uni0000" horiz-adv-x="0" 
 />
    <glyph glyph-name="uni0000" horiz-adv-x="0" 
 />
    <glyph glyph-name="uni000D" unicode="&#xd;" horiz-adv-x="512" 
 />
    <glyph glyph-name="space" unicode=" " horiz-adv-x="192" 
 />
    <glyph glyph-name="exclam" unicode="!" 
d="M207 403q-13 0 -19 -2v-200q4 -2 19 -2q37 0 50 25t13 77q0 54 -13 78t-50 24zM518 330v-49h-82v-78h96v-49h-155v297h155v-52h-96v-69h82zM203 150q-47 0 -74 4v292q61 9 76 9q67 0 96 -37.5t29 -116.5t-29.5 -115t-97.5 -36zM586 451h80l39 -164l38 164h82
q3 -45 13 -297h-60q0 108 -6 213l-41 -168h-55l-41 168h-2q-4 -140 -4 -213h-58q3 156 15 297zM987 150q-60 0 -84 35.5t-24 115.5q0 81 24 117.5t84 36.5t85.5 -37t25.5 -117q0 -79 -25.5 -115t-85.5 -36zM987 403q-29 0 -39 -23.5t-10 -78.5q0 -54 10 -78t39 -24
q30 0 40.5 24t10.5 78q0 55 -10 78.5t-41 23.5zM967 1016q49 0 79.5 -24.5t39 -51t8.5 -53.5q0 -43 -34.5 -72.5t-72.5 -34.5q-213 -23 -340 -147q3 8 9 22t25 53.5t39 75.5t50 80.5t59.5 76t66 53.5t71.5 22zM285 909q39 0 78 -21t69.5 -55t58.5 -74.5t48 -81.5t35 -75
t22 -55l8 -21q-117 148 -319 148q-49 0 -88 30t-39 76q0 53 33.5 91t93.5 38zM643 1214q38 -37 48.5 -102t-2.5 -131t-31.5 -126.5t-35.5 -98.5l-18 -39q20 191 -125 330q-35 35 -42 81.5t24 83.5q23 23 53 34t65 3.5t64 -35.5z" />
    <glyph glyph-name="quotedbl" unicode="&#x22;" 
d="M207 403q-13 0 -19 -2v-200q4 -2 19 -2q37 0 50 25t13 77q0 54 -13 78t-50 24zM518 330v-49h-82v-78h96v-49h-155v297h155v-52h-96v-69h82zM203 150q-47 0 -74 4v292q61 9 76 9q67 0 96 -37.5t29 -116.5t-29.5 -115t-97.5 -36zM586 451h80l39 -164l38 164h82
q3 -45 13 -297h-60q0 108 -6 213l-41 -168h-55l-41 168h-2q-4 -140 -4 -213h-58q3 156 15 297zM987 150q-60 0 -84 35.5t-24 115.5q0 81 24 117.5t84 36.5t85.5 -37t25.5 -117q0 -79 -25.5 -115t-85.5 -36zM987 403q-29 0 -39 -23.5t-10 -78.5q0 -54 10 -78t39 -24
q30 0 40.5 24t10.5 78q0 55 -10 78.5t-41 23.5zM967 1016q49 0 79.5 -24.5t39 -51t8.5 -53.5q0 -43 -34.5 -72.5t-72.5 -34.5q-213 -23 -340 -147q3 8 9 22t25 53.5t39 75.5t50 80.5t59.5 76t66 53.5t71.5 22zM285 909q39 0 78 -21t69.5 -55t58.5 -74.5t48 -81.5t35 -75
t22 -55l8 -21q-117 148 -319 148q-49 0 -88 30t-39 76q0 53 33.5 91t93.5 38zM643 1214q38 -37 48.5 -102t-2.5 -131t-31.5 -126.5t-35.5 -98.5l-18 -39q20 191 -125 330q-35 35 -42 81.5t24 83.5q23 23 53 34t65 3.5t64 -35.5z" />
    <glyph glyph-name="numbersign" unicode="#" 
d="M207 403q-13 0 -19 -2v-200q4 -2 19 -2q37 0 50 25t13 77q0 54 -13 78t-50 24zM518 330v-49h-82v-78h96v-49h-155v297h155v-52h-96v-69h82zM203 150q-47 0 -74 4v292q61 9 76 9q67 0 96 -37.5t29 -116.5t-29.5 -115t-97.5 -36zM586 451h80l39 -164l38 164h82
q3 -45 13 -297h-60q0 108 -6 213l-41 -168h-55l-41 168h-2q-4 -140 -4 -213h-58q3 156 15 297zM987 150q-60 0 -84 35.5t-24 115.5q0 81 24 117.5t84 36.5t85.5 -37t25.5 -117q0 -79 -25.5 -115t-85.5 -36zM987 403q-29 0 -39 -23.5t-10 -78.5q0 -54 10 -78t39 -24
q30 0 40.5 24t10.5 78q0 55 -10 78.5t-41 23.5zM967 1016q49 0 79.5 -24.5t39 -51t8.5 -53.5q0 -43 -34.5 -72.5t-72.5 -34.5q-213 -23 -340 -147q3 8 9 22t25 53.5t39 75.5t50 80.5t59.5 76t66 53.5t71.5 22zM285 909q39 0 78 -21t69.5 -55t58.5 -74.5t48 -81.5t35 -75
t22 -55l8 -21q-117 148 -319 148q-49 0 -88 30t-39 76q0 53 33.5 91t93.5 38zM643 1214q38 -37 48.5 -102t-2.5 -131t-31.5 -126.5t-35.5 -98.5l-18 -39q20 191 -125 330q-35 35 -42 81.5t24 83.5q23 23 53 34t65 3.5t64 -35.5z" />
    <glyph glyph-name="dollar" unicode="$" 
d="M207 403q-13 0 -19 -2v-200q4 -2 19 -2q37 0 50 25t13 77q0 54 -13 78t-50 24zM518 330v-49h-82v-78h96v-49h-155v297h155v-52h-96v-69h82zM203 150q-47 0 -74 4v292q61 9 76 9q67 0 96 -37.5t29 -116.5t-29.5 -115t-97.5 -36zM586 451h80l39 -164l38 164h82
q3 -45 13 -297h-60q0 108 -6 213l-41 -168h-55l-41 168h-2q-4 -140 -4 -213h-58q3 156 15 297zM987 150q-60 0 -84 35.5t-24 115.5q0 81 24 117.5t84 36.5t85.5 -37t25.5 -117q0 -79 -25.5 -115t-85.5 -36zM987 403q-29 0 -39 -23.5t-10 -78.5q0 -54 10 -78t39 -24
q30 0 40.5 24t10.5 78q0 55 -10 78.5t-41 23.5zM967 1016q49 0 79.5 -24.5t39 -51t8.5 -53.5q0 -43 -34.5 -72.5t-72.5 -34.5q-213 -23 -340 -147q3 8 9 22t25 53.5t39 75.5t50 80.5t59.5 76t66 53.5t71.5 22zM285 909q39 0 78 -21t69.5 -55t58.5 -74.5t48 -81.5t35 -75
t22 -55l8 -21q-117 148 -319 148q-49 0 -88 30t-39 76q0 53 33.5 91t93.5 38zM643 1214q38 -37 48.5 -102t-2.5 -131t-31.5 -126.5t-35.5 -98.5l-18 -39q20 191 -125 330q-35 35 -42 81.5t24 83.5q23 23 53 34t65 3.5t64 -35.5z" />
    <glyph glyph-name="percent" unicode="%" 
d="M207 403q-13 0 -19 -2v-200q4 -2 19 -2q37 0 50 25t13 77q0 54 -13 78t-50 24zM518 330v-49h-82v-78h96v-49h-155v297h155v-52h-96v-69h82zM203 150q-47 0 -74 4v292q61 9 76 9q67 0 96 -37.5t29 -116.5t-29.5 -115t-97.5 -36zM586 451h80l39 -164l38 164h82
q3 -45 13 -297h-60q0 108 -6 213l-41 -168h-55l-41 168h-2q-4 -140 -4 -213h-58q3 156 15 297zM987 150q-60 0 -84 35.5t-24 115.5q0 81 24 117.5t84 36.5t85.5 -37t25.5 -117q0 -79 -25.5 -115t-85.5 -36zM987 403q-29 0 -39 -23.5t-10 -78.5q0 -54 10 -78t39 -24
q30 0 40.5 24t10.5 78q0 55 -10 78.5t-41 23.5zM967 1016q49 0 79.5 -24.5t39 -51t8.5 -53.5q0 -43 -34.5 -72.5t-72.5 -34.5q-213 -23 -340 -147q3 8 9 22t25 53.5t39 75.5t50 80.5t59.5 76t66 53.5t71.5 22zM285 909q39 0 78 -21t69.5 -55t58.5 -74.5t48 -81.5t35 -75
t22 -55l8 -21q-117 148 -319 148q-49 0 -88 30t-39 76q0 53 33.5 91t93.5 38zM643 1214q38 -37 48.5 -102t-2.5 -131t-31.5 -126.5t-35.5 -98.5l-18 -39q20 191 -125 330q-35 35 -42 81.5t24 83.5q23 23 53 34t65 3.5t64 -35.5z" />
    <glyph glyph-name="ampersand" unicode="&#x26;" 
d="M207 403q-13 0 -19 -2v-200q4 -2 19 -2q37 0 50 25t13 77q0 54 -13 78t-50 24zM518 330v-49h-82v-78h96v-49h-155v297h155v-52h-96v-69h82zM203 150q-47 0 -74 4v292q61 9 76 9q67 0 96 -37.5t29 -116.5t-29.5 -115t-97.5 -36zM586 451h80l39 -164l38 164h82
q3 -45 13 -297h-60q0 108 -6 213l-41 -168h-55l-41 168h-2q-4 -140 -4 -213h-58q3 156 15 297zM987 150q-60 0 -84 35.5t-24 115.5q0 81 24 117.5t84 36.5t85.5 -37t25.5 -117q0 -79 -25.5 -115t-85.5 -36zM987 403q-29 0 -39 -23.5t-10 -78.5q0 -54 10 -78t39 -24
q30 0 40.5 24t10.5 78q0 55 -10 78.5t-41 23.5zM967 1016q49 0 79.5 -24.5t39 -51t8.5 -53.5q0 -43 -34.5 -72.5t-72.5 -34.5q-213 -23 -340 -147q3 8 9 22t25 53.5t39 75.5t50 80.5t59.5 76t66 53.5t71.5 22zM285 909q39 0 78 -21t69.5 -55t58.5 -74.5t48 -81.5t35 -75
t22 -55l8 -21q-117 148 -319 148q-49 0 -88 30t-39 76q0 53 33.5 91t93.5 38zM643 1214q38 -37 48.5 -102t-2.5 -131t-31.5 -126.5t-35.5 -98.5l-18 -39q20 191 -125 330q-35 35 -42 81.5t24 83.5q23 23 53 34t65 3.5t64 -35.5z" />
    <glyph glyph-name="quotesingle" unicode="'" 
d="M207 403q-13 0 -19 -2v-200q4 -2 19 -2q37 0 50 25t13 77q0 54 -13 78t-50 24zM518 330v-49h-82v-78h96v-49h-155v297h155v-52h-96v-69h82zM203 150q-47 0 -74 4v292q61 9 76 9q67 0 96 -37.5t29 -116.5t-29.5 -115t-97.5 -36zM586 451h80l39 -164l38 164h82
q3 -45 13 -297h-60q0 108 -6 213l-41 -168h-55l-41 168h-2q-4 -140 -4 -213h-58q3 156 15 297zM987 150q-60 0 -84 35.5t-24 115.5q0 81 24 117.5t84 36.5t85.5 -37t25.5 -117q0 -79 -25.5 -115t-85.5 -36zM987 403q-29 0 -39 -23.5t-10 -78.5q0 -54 10 -78t39 -24
q30 0 40.5 24t10.5 78q0 55 -10 78.5t-41 23.5zM967 1016q49 0 79.5 -24.5t39 -51t8.5 -53.5q0 -43 -34.5 -72.5t-72.5 -34.5q-213 -23 -340 -147q3 8 9 22t25 53.5t39 75.5t50 80.5t59.5 76t66 53.5t71.5 22zM285 909q39 0 78 -21t69.5 -55t58.5 -74.5t48 -81.5t35 -75
t22 -55l8 -21q-117 148 -319 148q-49 0 -88 30t-39 76q0 53 33.5 91t93.5 38zM643 1214q38 -37 48.5 -102t-2.5 -131t-31.5 -126.5t-35.5 -98.5l-18 -39q20 191 -125 330q-35 35 -42 81.5t24 83.5q23 23 53 34t65 3.5t64 -35.5z" />
    <glyph glyph-name="parenleft" unicode="(" 
d="M207 403q-13 0 -19 -2v-200q4 -2 19 -2q37 0 50 25t13 77q0 54 -13 78t-50 24zM518 330v-49h-82v-78h96v-49h-155v297h155v-52h-96v-69h82zM203 150q-47 0 -74 4v292q61 9 76 9q67 0 96 -37.5t29 -116.5t-29.5 -115t-97.5 -36zM586 451h80l39 -164l38 164h82
q3 -45 13 -297h-60q0 108 -6 213l-41 -168h-55l-41 168h-2q-4 -140 -4 -213h-58q3 156 15 297zM987 150q-60 0 -84 35.5t-24 115.5q0 81 24 117.5t84 36.5t85.5 -37t25.5 -117q0 -79 -25.5 -115t-85.5 -36zM987 403q-29 0 -39 -23.5t-10 -78.5q0 -54 10 -78t39 -24
q30 0 40.5 24t10.5 78q0 55 -10 78.5t-41 23.5zM967 1016q49 0 79.5 -24.5t39 -51t8.5 -53.5q0 -43 -34.5 -72.5t-72.5 -34.5q-213 -23 -340 -147q3 8 9 22t25 53.5t39 75.5t50 80.5t59.5 76t66 53.5t71.5 22zM285 909q39 0 78 -21t69.5 -55t58.5 -74.5t48 -81.5t35 -75
t22 -55l8 -21q-117 148 -319 148q-49 0 -88 30t-39 76q0 53 33.5 91t93.5 38zM643 1214q38 -37 48.5 -102t-2.5 -131t-31.5 -126.5t-35.5 -98.5l-18 -39q20 191 -125 330q-35 35 -42 81.5t24 83.5q23 23 53 34t65 3.5t64 -35.5z" />
    <glyph glyph-name="parenright" unicode=")" 
d="M207 403q-13 0 -19 -2v-200q4 -2 19 -2q37 0 50 25t13 77q0 54 -13 78t-50 24zM518 330v-49h-82v-78h96v-49h-155v297h155v-52h-96v-69h82zM203 150q-47 0 -74 4v292q61 9 76 9q67 0 96 -37.5t29 -116.5t-29.5 -115t-97.5 -36zM586 451h80l39 -164l38 164h82
q3 -45 13 -297h-60q0 108 -6 213l-41 -168h-55l-41 168h-2q-4 -140 -4 -213h-58q3 156 15 297zM987 150q-60 0 -84 35.5t-24 115.5q0 81 24 117.5t84 36.5t85.5 -37t25.5 -117q0 -79 -25.5 -115t-85.5 -36zM987 403q-29 0 -39 -23.5t-10 -78.5q0 -54 10 -78t39 -24
q30 0 40.5 24t10.5 78q0 55 -10 78.5t-41 23.5zM967 1016q49 0 79.5 -24.5t39 -51t8.5 -53.5q0 -43 -34.5 -72.5t-72.5 -34.5q-213 -23 -340 -147q3 8 9 22t25 53.5t39 75.5t50 80.5t59.5 76t66 53.5t71.5 22zM285 909q39 0 78 -21t69.5 -55t58.5 -74.5t48 -81.5t35 -75
t22 -55l8 -21q-117 148 -319 148q-49 0 -88 30t-39 76q0 53 33.5 91t93.5 38zM643 1214q38 -37 48.5 -102t-2.5 -131t-31.5 -126.5t-35.5 -98.5l-18 -39q20 191 -125 330q-35 35 -42 81.5t24 83.5q23 23 53 34t65 3.5t64 -35.5z" />
    <glyph glyph-name="asterisk" unicode="*" 
d="M207 403q-13 0 -19 -2v-200q4 -2 19 -2q37 0 50 25t13 77q0 54 -13 78t-50 24zM518 330v-49h-82v-78h96v-49h-155v297h155v-52h-96v-69h82zM203 150q-47 0 -74 4v292q61 9 76 9q67 0 96 -37.5t29 -116.5t-29.5 -115t-97.5 -36zM586 451h80l39 -164l38 164h82
q3 -45 13 -297h-60q0 108 -6 213l-41 -168h-55l-41 168h-2q-4 -140 -4 -213h-58q3 156 15 297zM987 150q-60 0 -84 35.5t-24 115.5q0 81 24 117.5t84 36.5t85.5 -37t25.5 -117q0 -79 -25.5 -115t-85.5 -36zM987 403q-29 0 -39 -23.5t-10 -78.5q0 -54 10 -78t39 -24
q30 0 40.5 24t10.5 78q0 55 -10 78.5t-41 23.5zM967 1016q49 0 79.5 -24.5t39 -51t8.5 -53.5q0 -43 -34.5 -72.5t-72.5 -34.5q-213 -23 -340 -147q3 8 9 22t25 53.5t39 75.5t50 80.5t59.5 76t66 53.5t71.5 22zM285 909q39 0 78 -21t69.5 -55t58.5 -74.5t48 -81.5t35 -75
t22 -55l8 -21q-117 148 -319 148q-49 0 -88 30t-39 76q0 53 33.5 91t93.5 38zM643 1214q38 -37 48.5 -102t-2.5 -131t-31.5 -126.5t-35.5 -98.5l-18 -39q20 191 -125 330q-35 35 -42 81.5t24 83.5q23 23 53 34t65 3.5t64 -35.5z" />
    <glyph glyph-name="plus" unicode="+" 
d="M207 403q-13 0 -19 -2v-200q4 -2 19 -2q37 0 50 25t13 77q0 54 -13 78t-50 24zM518 330v-49h-82v-78h96v-49h-155v297h155v-52h-96v-69h82zM203 150q-47 0 -74 4v292q61 9 76 9q67 0 96 -37.5t29 -116.5t-29.5 -115t-97.5 -36zM586 451h80l39 -164l38 164h82
q3 -45 13 -297h-60q0 108 -6 213l-41 -168h-55l-41 168h-2q-4 -140 -4 -213h-58q3 156 15 297zM987 150q-60 0 -84 35.5t-24 115.5q0 81 24 117.5t84 36.5t85.5 -37t25.5 -117q0 -79 -25.5 -115t-85.5 -36zM987 403q-29 0 -39 -23.5t-10 -78.5q0 -54 10 -78t39 -24
q30 0 40.5 24t10.5 78q0 55 -10 78.5t-41 23.5zM967 1016q49 0 79.5 -24.5t39 -51t8.5 -53.5q0 -43 -34.5 -72.5t-72.5 -34.5q-213 -23 -340 -147q3 8 9 22t25 53.5t39 75.5t50 80.5t59.5 76t66 53.5t71.5 22zM285 909q39 0 78 -21t69.5 -55t58.5 -74.5t48 -81.5t35 -75
t22 -55l8 -21q-117 148 -319 148q-49 0 -88 30t-39 76q0 53 33.5 91t93.5 38zM643 1214q38 -37 48.5 -102t-2.5 -131t-31.5 -126.5t-35.5 -98.5l-18 -39q20 191 -125 330q-35 35 -42 81.5t24 83.5q23 23 53 34t65 3.5t64 -35.5z" />
    <glyph glyph-name="comma" unicode="," horiz-adv-x="286" 
d="M20 -256l82 256h-82v246h246v-246l-133 -256h-113z" />
    <glyph glyph-name="hyphen" unicode="-" 
d="M207 403q-13 0 -19 -2v-200q4 -2 19 -2q37 0 50 25t13 77q0 54 -13 78t-50 24zM518 330v-49h-82v-78h96v-49h-155v297h155v-52h-96v-69h82zM203 150q-47 0 -74 4v292q61 9 76 9q67 0 96 -37.5t29 -116.5t-29.5 -115t-97.5 -36zM586 451h80l39 -164l38 164h82
q3 -45 13 -297h-60q0 108 -6 213l-41 -168h-55l-41 168h-2q-4 -140 -4 -213h-58q3 156 15 297zM987 150q-60 0 -84 35.5t-24 115.5q0 81 24 117.5t84 36.5t85.5 -37t25.5 -117q0 -79 -25.5 -115t-85.5 -36zM987 403q-29 0 -39 -23.5t-10 -78.5q0 -54 10 -78t39 -24
q30 0 40.5 24t10.5 78q0 55 -10 78.5t-41 23.5zM967 1016q49 0 79.5 -24.5t39 -51t8.5 -53.5q0 -43 -34.5 -72.5t-72.5 -34.5q-213 -23 -340 -147q3 8 9 22t25 53.5t39 75.5t50 80.5t59.5 76t66 53.5t71.5 22zM285 909q39 0 78 -21t69.5 -55t58.5 -74.5t48 -81.5t35 -75
t22 -55l8 -21q-117 148 -319 148q-49 0 -88 30t-39 76q0 53 33.5 91t93.5 38zM643 1214q38 -37 48.5 -102t-2.5 -131t-31.5 -126.5t-35.5 -98.5l-18 -39q20 191 -125 330q-35 35 -42 81.5t24 83.5q23 23 53 34t65 3.5t64 -35.5z" />
    <glyph glyph-name="period" unicode="." horiz-adv-x="286" 
d="M23 0v246h243v-246h-243z" />
    <glyph glyph-name="slash" unicode="/" 
d="M207 403q-13 0 -19 -2v-200q4 -2 19 -2q37 0 50 25t13 77q0 54 -13 78t-50 24zM518 330v-49h-82v-78h96v-49h-155v297h155v-52h-96v-69h82zM203 150q-47 0 -74 4v292q61 9 76 9q67 0 96 -37.5t29 -116.5t-29.5 -115t-97.5 -36zM586 451h80l39 -164l38 164h82
q3 -45 13 -297h-60q0 108 -6 213l-41 -168h-55l-41 168h-2q-4 -140 -4 -213h-58q3 156 15 297zM987 150q-60 0 -84 35.5t-24 115.5q0 81 24 117.5t84 36.5t85.5 -37t25.5 -117q0 -79 -25.5 -115t-85.5 -36zM987 403q-29 0 -39 -23.5t-10 -78.5q0 -54 10 -78t39 -24
q30 0 40.5 24t10.5 78q0 55 -10 78.5t-41 23.5zM967 1016q49 0 79.5 -24.5t39 -51t8.5 -53.5q0 -43 -34.5 -72.5t-72.5 -34.5q-213 -23 -340 -147q3 8 9 22t25 53.5t39 75.5t50 80.5t59.5 76t66 53.5t71.5 22zM285 909q39 0 78 -21t69.5 -55t58.5 -74.5t48 -81.5t35 -75
t22 -55l8 -21q-117 148 -319 148q-49 0 -88 30t-39 76q0 53 33.5 91t93.5 38zM643 1214q38 -37 48.5 -102t-2.5 -131t-31.5 -126.5t-35.5 -98.5l-18 -39q20 191 -125 330q-35 35 -42 81.5t24 83.5q23 23 53 34t65 3.5t64 -35.5z" />
    <glyph glyph-name="zero" unicode="0" horiz-adv-x="647" 
d="M324 -16q-159 0 -231.5 73.5t-72.5 233.5v954q0 160 72.5 233.5t231.5 73.5t231 -73.5t72 -233.5v-954q0 -160 -72 -233.5t-231 -73.5zM324 201q4 0 7 0.5t7 6.5t4 17v1086q0 11 -4 17t-7 6.5t-7 0.5t-7 -0.5t-7.5 -6.5t-4.5 -17v-1086q0 -11 4.5 -17t7.5 -6.5t7 -0.5z
" />
    <glyph glyph-name="one" unicode="1" horiz-adv-x="417" 
d="M113 0v1219q-44 -31 -97 -31v223q76 41 146 125h235v-1536h-284z" />
    <glyph glyph-name="two" unicode="2" horiz-adv-x="647" 
d="M20 0v604q0 53 12.5 95.5t29.5 69.5t50 52t57 38t69 34q68 32 86 59.5t18 85.5v273q0 11 -4 17t-7 6.5t-7 0.5t-7 -0.5t-7.5 -6.5t-4.5 -17v-326h-285v260q0 160 72.5 233.5t231.5 73.5t231 -73.5t72 -233.5v-227q0 -66 -16.5 -117.5t-49 -87.5t-66.5 -59.5t-83 -46.5
q-69 -32 -88 -60t-19 -86v-350h37v405h285v-616h-607z" />
    <glyph glyph-name="three" unicode="3" horiz-adv-x="647" 
d="M324 -16q-159 0 -231.5 73.5t-72.5 233.5v371h285v-437q0 -11 4.5 -17t7.5 -6.5t7 -0.5t7 0.5t7 6.5t4 17v426q0 51 -25 51h-153v220h153q25 0 25 51v338q0 11 -4 17t-7 6.5t-7 0.5t-7 -0.5t-7.5 -6.5t-4.5 -17v-348h-285v282q0 160 72.5 233.5t231.5 73.5t231 -73.5
t72 -233.5v-235q0 -74 -22.5 -123.5t-82.5 -73.5q60 -24 82.5 -74.5t22.5 -124.5v-323q0 -160 -72 -233.5t-231 -73.5z" />
    <glyph glyph-name="four" unicode="4" 
d="M207 403q-13 0 -19 -2v-200q4 -2 19 -2q37 0 50 25t13 77q0 54 -13 78t-50 24zM518 330v-49h-82v-78h96v-49h-155v297h155v-52h-96v-69h82zM203 150q-47 0 -74 4v292q61 9 76 9q67 0 96 -37.5t29 -116.5t-29.5 -115t-97.5 -36zM586 451h80l39 -164l38 164h82
q3 -45 13 -297h-60q0 108 -6 213l-41 -168h-55l-41 168h-2q-4 -140 -4 -213h-58q3 156 15 297zM987 150q-60 0 -84 35.5t-24 115.5q0 81 24 117.5t84 36.5t85.5 -37t25.5 -117q0 -79 -25.5 -115t-85.5 -36zM987 403q-29 0 -39 -23.5t-10 -78.5q0 -54 10 -78t39 -24
q30 0 40.5 24t10.5 78q0 55 -10 78.5t-41 23.5zM967 1016q49 0 79.5 -24.5t39 -51t8.5 -53.5q0 -43 -34.5 -72.5t-72.5 -34.5q-213 -23 -340 -147q3 8 9 22t25 53.5t39 75.5t50 80.5t59.5 76t66 53.5t71.5 22zM285 909q39 0 78 -21t69.5 -55t58.5 -74.5t48 -81.5t35 -75
t22 -55l8 -21q-117 148 -319 148q-49 0 -88 30t-39 76q0 53 33.5 91t93.5 38zM643 1214q38 -37 48.5 -102t-2.5 -131t-31.5 -126.5t-35.5 -98.5l-18 -39q20 191 -125 330q-35 35 -42 81.5t24 83.5q23 23 53 34t65 3.5t64 -35.5z" />
    <glyph glyph-name="five" unicode="5" horiz-adv-x="647" 
d="M324 -16q-159 0 -231.5 73.5t-72.5 233.5v381h285v-447q0 -11 4.5 -17t7.5 -6.5t7 -0.5t7 0.5t7 6.5t4 17v465q0 31 -13 48.5t-36 17.5q-37 0 -88 -39h-185v819h607v-518h-285v307h-37v-391q1 0 18 9.5t27.5 14.5t32 10t43.5 5q97 0 149 -61t52 -179v-442
q0 -160 -72 -233.5t-231 -73.5z" />
    <glyph glyph-name="six" unicode="6" horiz-adv-x="647" 
d="M324 -16q-159 0 -231.5 73.5t-72.5 233.5v954q0 160 72.5 233.5t231.5 73.5t231 -73.5t72 -233.5v-223h-285v289q0 11 -4 17t-7 6.5t-7 0.5t-7 -0.5t-7.5 -6.5t-4.5 -17v-365q65 39 121 39q97 0 149 -61t52 -179v-454q0 -160 -72 -233.5t-231 -73.5zM324 201q4 0 7 0.5
t7 6.5t4 17v525q0 11 -4 17t-7 6.5t-7 0.5t-7 -0.5t-7.5 -6.5t-4.5 -17v-525q0 -11 4.5 -17t7.5 -6.5t7 -0.5z" />
    <glyph glyph-name="seven" unicode="7" horiz-adv-x="636" 
d="M127 0q0 142 12 262.5t31 203.5t41.5 154t45.5 127t42 108t31 112t12 125v233h-37v-307h-285v518h607v-444q0 -107 -22 -196.5t-53.5 -165t-63.5 -163.5t-54 -233.5t-22 -333.5h-285z" />
    <glyph glyph-name="eight" unicode="8" horiz-adv-x="647" 
d="M324 -16q-159 0 -231.5 73.5t-72.5 233.5v317q0 74 22.5 124.5t82.5 74.5q-60 24 -82.5 74.5t-22.5 124.5v239q0 160 72.5 233.5t231.5 73.5t231 -73.5t72 -233.5v-239q0 -74 -22.5 -124.5t-82.5 -74.5q60 -24 82.5 -74.5t22.5 -124.5v-317q0 -160 -72 -233.5t-231 -73.5
zM324 918q18 0 18 38v355q0 11 -4 17t-7 6.5t-7 0.5t-7 -0.5t-7.5 -6.5t-4.5 -17v-355q0 -38 19 -38zM324 201q4 0 7 0.5t7 6.5t4 17v432q0 39 -18 39q-19 0 -19 -39v-432q0 -11 4.5 -17t7.5 -6.5t7 -0.5z" />
    <glyph glyph-name="nine" unicode="9" horiz-adv-x="647" 
d="M324 -16q-159 0 -231.5 73.5t-72.5 233.5v221h285v-287q0 -11 4.5 -17t7.5 -6.5t7 -0.5t7 0.5t7 6.5t4 17v365l-11 -7q-11 -7 -15.5 -9.5t-17.5 -8.5t-22.5 -8.5t-24.5 -5t-30 -2.5q-98 0 -149.5 62t-51.5 180v454q0 160 72.5 233.5t231.5 73.5t231 -73.5t72 -233.5v-954
q0 -160 -72 -233.5t-231 -73.5zM324 760q4 0 7 0.5t7 6.5t4 17v527q0 11 -4 17t-7 6.5t-7 0.5t-7 -0.5t-7.5 -6.5t-4.5 -17v-527q0 -11 4.5 -17t7.5 -6.5t7 -0.5z" />
    <glyph glyph-name="colon" unicode=":" horiz-adv-x="286" 
d="M23 885v245h243v-245h-243zM23 0v246h243v-246h-243z" />
    <glyph glyph-name="semicolon" unicode=";" horiz-adv-x="286" 
d="M23 885v245h243v-245h-243zM23 0v244h243v-244l-131 -258h-112l79 258h-79z" />
    <glyph glyph-name="less" unicode="&#x3c;" 
d="M207 403q-13 0 -19 -2v-200q4 -2 19 -2q37 0 50 25t13 77q0 54 -13 78t-50 24zM518 330v-49h-82v-78h96v-49h-155v297h155v-52h-96v-69h82zM203 150q-47 0 -74 4v292q61 9 76 9q67 0 96 -37.5t29 -116.5t-29.5 -115t-97.5 -36zM586 451h80l39 -164l38 164h82
q3 -45 13 -297h-60q0 108 -6 213l-41 -168h-55l-41 168h-2q-4 -140 -4 -213h-58q3 156 15 297zM987 150q-60 0 -84 35.5t-24 115.5q0 81 24 117.5t84 36.5t85.5 -37t25.5 -117q0 -79 -25.5 -115t-85.5 -36zM987 403q-29 0 -39 -23.5t-10 -78.5q0 -54 10 -78t39 -24
q30 0 40.5 24t10.5 78q0 55 -10 78.5t-41 23.5zM967 1016q49 0 79.5 -24.5t39 -51t8.5 -53.5q0 -43 -34.5 -72.5t-72.5 -34.5q-213 -23 -340 -147q3 8 9 22t25 53.5t39 75.5t50 80.5t59.5 76t66 53.5t71.5 22zM285 909q39 0 78 -21t69.5 -55t58.5 -74.5t48 -81.5t35 -75
t22 -55l8 -21q-117 148 -319 148q-49 0 -88 30t-39 76q0 53 33.5 91t93.5 38zM643 1214q38 -37 48.5 -102t-2.5 -131t-31.5 -126.5t-35.5 -98.5l-18 -39q20 191 -125 330q-35 35 -42 81.5t24 83.5q23 23 53 34t65 3.5t64 -35.5z" />
    <glyph glyph-name="equal" unicode="=" 
d="M207 403q-13 0 -19 -2v-200q4 -2 19 -2q37 0 50 25t13 77q0 54 -13 78t-50 24zM518 330v-49h-82v-78h96v-49h-155v297h155v-52h-96v-69h82zM203 150q-47 0 -74 4v292q61 9 76 9q67 0 96 -37.5t29 -116.5t-29.5 -115t-97.5 -36zM586 451h80l39 -164l38 164h82
q3 -45 13 -297h-60q0 108 -6 213l-41 -168h-55l-41 168h-2q-4 -140 -4 -213h-58q3 156 15 297zM987 150q-60 0 -84 35.5t-24 115.5q0 81 24 117.5t84 36.5t85.5 -37t25.5 -117q0 -79 -25.5 -115t-85.5 -36zM987 403q-29 0 -39 -23.5t-10 -78.5q0 -54 10 -78t39 -24
q30 0 40.5 24t10.5 78q0 55 -10 78.5t-41 23.5zM967 1016q49 0 79.5 -24.5t39 -51t8.5 -53.5q0 -43 -34.5 -72.5t-72.5 -34.5q-213 -23 -340 -147q3 8 9 22t25 53.5t39 75.5t50 80.5t59.5 76t66 53.5t71.5 22zM285 909q39 0 78 -21t69.5 -55t58.5 -74.5t48 -81.5t35 -75
t22 -55l8 -21q-117 148 -319 148q-49 0 -88 30t-39 76q0 53 33.5 91t93.5 38zM643 1214q38 -37 48.5 -102t-2.5 -131t-31.5 -126.5t-35.5 -98.5l-18 -39q20 191 -125 330q-35 35 -42 81.5t24 83.5q23 23 53 34t65 3.5t64 -35.5z" />
    <glyph glyph-name="greater" unicode="&#x3e;" 
d="M207 403q-13 0 -19 -2v-200q4 -2 19 -2q37 0 50 25t13 77q0 54 -13 78t-50 24zM518 330v-49h-82v-78h96v-49h-155v297h155v-52h-96v-69h82zM203 150q-47 0 -74 4v292q61 9 76 9q67 0 96 -37.5t29 -116.5t-29.5 -115t-97.5 -36zM586 451h80l39 -164l38 164h82
q3 -45 13 -297h-60q0 108 -6 213l-41 -168h-55l-41 168h-2q-4 -140 -4 -213h-58q3 156 15 297zM987 150q-60 0 -84 35.5t-24 115.5q0 81 24 117.5t84 36.5t85.5 -37t25.5 -117q0 -79 -25.5 -115t-85.5 -36zM987 403q-29 0 -39 -23.5t-10 -78.5q0 -54 10 -78t39 -24
q30 0 40.5 24t10.5 78q0 55 -10 78.5t-41 23.5zM967 1016q49 0 79.5 -24.5t39 -51t8.5 -53.5q0 -43 -34.5 -72.5t-72.5 -34.5q-213 -23 -340 -147q3 8 9 22t25 53.5t39 75.5t50 80.5t59.5 76t66 53.5t71.5 22zM285 909q39 0 78 -21t69.5 -55t58.5 -74.5t48 -81.5t35 -75
t22 -55l8 -21q-117 148 -319 148q-49 0 -88 30t-39 76q0 53 33.5 91t93.5 38zM643 1214q38 -37 48.5 -102t-2.5 -131t-31.5 -126.5t-35.5 -98.5l-18 -39q20 191 -125 330q-35 35 -42 81.5t24 83.5q23 23 53 34t65 3.5t64 -35.5z" />
    <glyph glyph-name="question" unicode="?" horiz-adv-x="647" 
d="M190 377v231q0 119 31 183.5t121 99.5v420q0 11 -3.5 17t-6 6.5t-6.5 0.5t-7 -0.5t-7.5 -6.5t-4.5 -17v-383h-284v317q0 161 71.5 234t231.5 73q159 0 230 -73t71 -234v-274q0 -112 -40.5 -178.5t-135.5 -102.5v-313h-261zM199 0v246h245v-246h-245z" />
    <glyph glyph-name="at" unicode="@" 
d="M207 403q-13 0 -19 -2v-200q4 -2 19 -2q37 0 50 25t13 77q0 54 -13 78t-50 24zM518 330v-49h-82v-78h96v-49h-155v297h155v-52h-96v-69h82zM203 150q-47 0 -74 4v292q61 9 76 9q67 0 96 -37.5t29 -116.5t-29.5 -115t-97.5 -36zM586 451h80l39 -164l38 164h82
q3 -45 13 -297h-60q0 108 -6 213l-41 -168h-55l-41 168h-2q-4 -140 -4 -213h-58q3 156 15 297zM987 150q-60 0 -84 35.5t-24 115.5q0 81 24 117.5t84 36.5t85.5 -37t25.5 -117q0 -79 -25.5 -115t-85.5 -36zM987 403q-29 0 -39 -23.5t-10 -78.5q0 -54 10 -78t39 -24
q30 0 40.5 24t10.5 78q0 55 -10 78.5t-41 23.5zM967 1016q49 0 79.5 -24.5t39 -51t8.5 -53.5q0 -43 -34.5 -72.5t-72.5 -34.5q-213 -23 -340 -147q3 8 9 22t25 53.5t39 75.5t50 80.5t59.5 76t66 53.5t71.5 22zM285 909q39 0 78 -21t69.5 -55t58.5 -74.5t48 -81.5t35 -75
t22 -55l8 -21q-117 148 -319 148q-49 0 -88 30t-39 76q0 53 33.5 91t93.5 38zM643 1214q38 -37 48.5 -102t-2.5 -131t-31.5 -126.5t-35.5 -98.5l-18 -39q20 191 -125 330q-35 35 -42 81.5t24 83.5q23 23 53 34t65 3.5t64 -35.5z" />
    <glyph glyph-name="A" unicode="A" horiz-adv-x="659" 
d="M10 0l78 1536h483l78 -1536h-284l-9 350h-55l-6 -350h-285zM307 567h45l-12 570v182h-21v-182z" />
    <glyph glyph-name="B" unicode="B" horiz-adv-x="647" 
d="M20 0v1536h334q143 0 208 -67.5t65 -202.5v-285q0 -142 -80 -174q80 -32 80 -174v-363q0 -135 -65 -202.5t-208 -67.5h-334zM305 915q9 0 14 1t11 6t9 16.5t3 30.5v297q0 19 -3 30.5t-9.5 16t-11 5.5t-13.5 1v-404zM305 217q9 0 13.5 1t11 5.5t9.5 16t3 30.5v375
q0 19 -3 30.5t-9.5 16t-11 5.5t-13.5 1v-481z" />
    <glyph glyph-name="C" unicode="C" horiz-adv-x="647" 
d="M324 -16q-159 0 -231.5 73.5t-72.5 233.5v954q0 160 72.5 233.5t231.5 73.5t231 -73.5t72 -233.5v-414h-285v480q0 11 -4 17t-7 6.5t-7 0.5t-6.5 -0.5t-6.5 -6.5t-4 -17v-1086q0 -11 4 -17t6.5 -6.5t6.5 -0.5t7 0.5t7 6.5t4 17v566h285v-500q0 -160 -72 -233.5
t-231 -73.5z" />
    <glyph glyph-name="D" unicode="D" horiz-adv-x="647" 
d="M20 0v1536h342q142 0 203.5 -67t61.5 -203v-996q0 -136 -61.5 -203t-203.5 -67h-342zM305 217q9 0 13.5 1t11 5.5t9.5 16t3 30.5v996q0 19 -3 30.5t-9.5 16t-11 5.5t-13.5 1v-1102z" />
    <glyph glyph-name="E" unicode="E" horiz-adv-x="528" 
d="M20 0v1536h488v-217h-203v-404h193v-217h-193v-481h213v-217h-498z" />
    <glyph glyph-name="F" unicode="F" horiz-adv-x="520" 
d="M20 0v1536h490v-217h-205v-428h195v-217h-195v-674h-285z" />
    <glyph glyph-name="G" unicode="G" horiz-adv-x="647" 
d="M279 -16q-259 0 -259 286v975q0 160 72.5 233.5t231.5 73.5t231 -73.5t72 -233.5v-358h-285v424q0 11 -4 17t-7 6.5t-7 0.5t-7 -0.5t-7.5 -6.5t-4.5 -17v-1086q0 -11 4.5 -17t7.5 -6.5t7 -0.5t7 0.5t7 6.5t4 17v426h-16v193h301v-844h-150l-31 66q-48 -82 -167 -82z" />
    <glyph glyph-name="H" unicode="H" horiz-adv-x="647" 
d="M20 0v1536h285v-621h37v621h285v-1536h-285v698h-37v-698h-285z" />
    <glyph glyph-name="I" unicode="I" horiz-adv-x="325" 
d="M20 0v1536h285v-1536h-285z" />
    <glyph glyph-name="J" unicode="J" horiz-adv-x="647" 
d="M324 -18q-159 0 -231.5 73.5t-72.5 233.5v510h285v-576q0 -11 4.5 -17t7.5 -6.5t7 -0.5t7 0.5t7 6.5t4 17v1096h-322v217h607v-1247q0 -161 -71.5 -234t-231.5 -73z" />
    <glyph glyph-name="K" unicode="K" horiz-adv-x="647" 
d="M20 0v1536h285v-618q21 0 29 10t8 41v567h285v-530q0 -74 -22.5 -124.5t-82.5 -74.5q60 -24 82.5 -74.5t22.5 -124.5v-608h-285v645q0 31 -8 41t-29 10v-696h-285z" />
    <glyph glyph-name="L" unicode="L" horiz-adv-x="514" 
d="M20 0v1536h285v-1319h199v-217h-484z" />
    <glyph glyph-name="M" unicode="M" horiz-adv-x="1026" 
d="M20 0v1536h455l27 -981v-301h20v301l29 981h455v-1536h-289l41 1282h-21l-65 -1282h-320l-65 1282h-19l41 -1282h-289z" />
    <glyph glyph-name="N" unicode="N" horiz-adv-x="780" 
d="M23 0v1536h405l72 -1282h20l-45 1282h287v-1536h-408l-71 1282h-21l47 -1282h-286z" />
    <glyph glyph-name="O" unicode="O" horiz-adv-x="647" 
d="M324 -16q-159 0 -231.5 73.5t-72.5 233.5v954q0 160 72.5 233.5t231.5 73.5t231 -73.5t72 -233.5v-954q0 -160 -72 -233.5t-231 -73.5zM324 201q4 0 7 0.5t7 6.5t4 17v1086q0 11 -4 17t-7 6.5t-7 0.5t-7 -0.5t-7.5 -6.5t-4.5 -17v-1086q0 -11 4.5 -17t7.5 -6.5t7 -0.5z
" />
    <glyph glyph-name="P" unicode="P" horiz-adv-x="647" 
d="M20 0v1536h342q142 0 203.5 -67t61.5 -203v-516q0 -82 -20.5 -136t-64 -83.5t-99 -40.5t-138.5 -11v-479h-285zM305 696q9 0 14 1t11 6t9 16.5t3 30.5v516q0 19 -3 30.5t-9.5 16t-11 5.5t-13.5 1v-623z" />
    <glyph glyph-name="Q" unicode="Q" horiz-adv-x="647" 
d="M317 -16q-156 1 -226.5 74.5t-70.5 232.5v954q0 160 72.5 233.5t231.5 73.5t231 -73.5t72 -233.5v-954q0 -156 -66 -228l60 -143h-277zM324 201q4 0 7 0.5t7 6.5t4 17v1086q0 11 -4 17t-7 6.5t-7 0.5t-7 -0.5t-7.5 -6.5t-4.5 -17v-1086q0 -11 4.5 -17t7.5 -6.5t7 -0.5z
" />
    <glyph glyph-name="R" unicode="R" horiz-adv-x="647" 
d="M20 0v1536h342q142 0 203.5 -67t61.5 -203v-322q0 -142 -80 -174q80 -32 80 -174v-596h-285v608q0 19 -3 30.5t-9 16.5t-11 6t-14 1v-662h-285zM305 879q9 0 13.5 1t11 5.5t9.5 16t3 30.5v334q0 19 -3 30.5t-9.5 16t-11 5.5t-13.5 1v-440z" />
    <glyph glyph-name="S" unicode="S" horiz-adv-x="647" 
d="M324 -16q-159 0 -231.5 73.5t-72.5 233.5v321h285v-387q0 -11 4.5 -17t7.5 -6.5t7 -0.5t7 0.5t7 6.5t4 17v336q0 57 -20 84t-89 60q-48 23 -82.5 48t-66 63t-48 91.5t-16.5 122.5v215q0 160 72.5 233.5t231.5 73.5t231 -73.5t72 -233.5v-260h-285v326q0 11 -4 17t-7 6.5
t-7 0.5t-7 -0.5t-7.5 -6.5t-4.5 -17v-273q0 -58 18.5 -84t88.5 -59q52 -25 83.5 -45t65.5 -54.5t50 -85t16 -118.5v-301q0 -160 -72 -233.5t-231 -73.5z" />
    <glyph glyph-name="T" unicode="T" horiz-adv-x="628" 
d="M172 0v1319h-162v217h608v-217h-161v-1319h-285z" />
    <glyph glyph-name="U" unicode="U" horiz-adv-x="647" 
d="M324 -16q-159 0 -231.5 73.5t-72.5 233.5v1245h285v-1311q0 -11 4.5 -17t7.5 -6.5t7 -0.5t7 0.5t7 6.5t4 17v1311h285v-1245q0 -160 -72 -233.5t-231 -73.5z" />
    <glyph glyph-name="V" unicode="V" horiz-adv-x="659" 
d="M88 0l-78 1536h285l24 -1137v-182h21v182l25 1137h284l-78 -1536h-483z" />
    <glyph glyph-name="W" unicode="W" horiz-adv-x="1107" 
d="M88 0l-78 1536h309l25 -1137v-182h21v182l14 1137h350l14 -1137v-182h21v182l24 1137h310l-78 -1536h-447l-8 1137v182h-20v-182l-10 -1137h-447z" />
    <glyph glyph-name="X" unicode="X" horiz-adv-x="647" 
d="M20 0v608q0 74 22.5 124.5t82.5 74.5q-60 24 -82.5 74.5t-22.5 124.5v530h285v-580q0 -38 19 -38q18 0 18 38v580h285v-530q0 -74 -22.5 -124.5t-82.5 -74.5q60 -24 82.5 -74.5t22.5 -124.5v-608h-285v657q0 39 -18 39q-19 0 -19 -39v-657h-285z" />
    <glyph glyph-name="Y" unicode="Y" horiz-adv-x="647" 
d="M182 0v532q-84 27 -121.5 97t-37.5 190v717h284v-784q0 -23 19 -23q16 0 16 23v784h285v-717q0 -120 -38 -190t-122 -97v-532h-285z" />
    <glyph glyph-name="Z" unicode="Z" horiz-adv-x="540" 
d="M10 0v150l217 1169h-217v217h520v-150l-219 -1169h219v-217h-520z" />
    <glyph glyph-name="bracketleft" unicode="[" 
d="M207 403q-13 0 -19 -2v-200q4 -2 19 -2q37 0 50 25t13 77q0 54 -13 78t-50 24zM518 330v-49h-82v-78h96v-49h-155v297h155v-52h-96v-69h82zM203 150q-47 0 -74 4v292q61 9 76 9q67 0 96 -37.5t29 -116.5t-29.5 -115t-97.5 -36zM586 451h80l39 -164l38 164h82
q3 -45 13 -297h-60q0 108 -6 213l-41 -168h-55l-41 168h-2q-4 -140 -4 -213h-58q3 156 15 297zM987 150q-60 0 -84 35.5t-24 115.5q0 81 24 117.5t84 36.5t85.5 -37t25.5 -117q0 -79 -25.5 -115t-85.5 -36zM987 403q-29 0 -39 -23.5t-10 -78.5q0 -54 10 -78t39 -24
q30 0 40.5 24t10.5 78q0 55 -10 78.5t-41 23.5zM967 1016q49 0 79.5 -24.5t39 -51t8.5 -53.5q0 -43 -34.5 -72.5t-72.5 -34.5q-213 -23 -340 -147q3 8 9 22t25 53.5t39 75.5t50 80.5t59.5 76t66 53.5t71.5 22zM285 909q39 0 78 -21t69.5 -55t58.5 -74.5t48 -81.5t35 -75
t22 -55l8 -21q-117 148 -319 148q-49 0 -88 30t-39 76q0 53 33.5 91t93.5 38zM643 1214q38 -37 48.5 -102t-2.5 -131t-31.5 -126.5t-35.5 -98.5l-18 -39q20 191 -125 330q-35 35 -42 81.5t24 83.5q23 23 53 34t65 3.5t64 -35.5z" />
    <glyph glyph-name="backslash" unicode="\" 
d="M207 403q-13 0 -19 -2v-200q4 -2 19 -2q37 0 50 25t13 77q0 54 -13 78t-50 24zM518 330v-49h-82v-78h96v-49h-155v297h155v-52h-96v-69h82zM203 150q-47 0 -74 4v292q61 9 76 9q67 0 96 -37.5t29 -116.5t-29.5 -115t-97.5 -36zM586 451h80l39 -164l38 164h82
q3 -45 13 -297h-60q0 108 -6 213l-41 -168h-55l-41 168h-2q-4 -140 -4 -213h-58q3 156 15 297zM987 150q-60 0 -84 35.5t-24 115.5q0 81 24 117.5t84 36.5t85.5 -37t25.5 -117q0 -79 -25.5 -115t-85.5 -36zM987 403q-29 0 -39 -23.5t-10 -78.5q0 -54 10 -78t39 -24
q30 0 40.5 24t10.5 78q0 55 -10 78.5t-41 23.5zM967 1016q49 0 79.5 -24.5t39 -51t8.5 -53.5q0 -43 -34.5 -72.5t-72.5 -34.5q-213 -23 -340 -147q3 8 9 22t25 53.5t39 75.5t50 80.5t59.5 76t66 53.5t71.5 22zM285 909q39 0 78 -21t69.5 -55t58.5 -74.5t48 -81.5t35 -75
t22 -55l8 -21q-117 148 -319 148q-49 0 -88 30t-39 76q0 53 33.5 91t93.5 38zM643 1214q38 -37 48.5 -102t-2.5 -131t-31.5 -126.5t-35.5 -98.5l-18 -39q20 191 -125 330q-35 35 -42 81.5t24 83.5q23 23 53 34t65 3.5t64 -35.5z" />
    <glyph glyph-name="bracketright" unicode="]" 
d="M207 403q-13 0 -19 -2v-200q4 -2 19 -2q37 0 50 25t13 77q0 54 -13 78t-50 24zM518 330v-49h-82v-78h96v-49h-155v297h155v-52h-96v-69h82zM203 150q-47 0 -74 4v292q61 9 76 9q67 0 96 -37.5t29 -116.5t-29.5 -115t-97.5 -36zM586 451h80l39 -164l38 164h82
q3 -45 13 -297h-60q0 108 -6 213l-41 -168h-55l-41 168h-2q-4 -140 -4 -213h-58q3 156 15 297zM987 150q-60 0 -84 35.5t-24 115.5q0 81 24 117.5t84 36.5t85.5 -37t25.5 -117q0 -79 -25.5 -115t-85.5 -36zM987 403q-29 0 -39 -23.5t-10 -78.5q0 -54 10 -78t39 -24
q30 0 40.5 24t10.5 78q0 55 -10 78.5t-41 23.5zM967 1016q49 0 79.5 -24.5t39 -51t8.5 -53.5q0 -43 -34.5 -72.5t-72.5 -34.5q-213 -23 -340 -147q3 8 9 22t25 53.5t39 75.5t50 80.5t59.5 76t66 53.5t71.5 22zM285 909q39 0 78 -21t69.5 -55t58.5 -74.5t48 -81.5t35 -75
t22 -55l8 -21q-117 148 -319 148q-49 0 -88 30t-39 76q0 53 33.5 91t93.5 38zM643 1214q38 -37 48.5 -102t-2.5 -131t-31.5 -126.5t-35.5 -98.5l-18 -39q20 191 -125 330q-35 35 -42 81.5t24 83.5q23 23 53 34t65 3.5t64 -35.5z" />
    <glyph glyph-name="asciicircum" unicode="^" 
d="M207 403q-13 0 -19 -2v-200q4 -2 19 -2q37 0 50 25t13 77q0 54 -13 78t-50 24zM518 330v-49h-82v-78h96v-49h-155v297h155v-52h-96v-69h82zM203 150q-47 0 -74 4v292q61 9 76 9q67 0 96 -37.5t29 -116.5t-29.5 -115t-97.5 -36zM586 451h80l39 -164l38 164h82
q3 -45 13 -297h-60q0 108 -6 213l-41 -168h-55l-41 168h-2q-4 -140 -4 -213h-58q3 156 15 297zM987 150q-60 0 -84 35.5t-24 115.5q0 81 24 117.5t84 36.5t85.5 -37t25.5 -117q0 -79 -25.5 -115t-85.5 -36zM987 403q-29 0 -39 -23.5t-10 -78.5q0 -54 10 -78t39 -24
q30 0 40.5 24t10.5 78q0 55 -10 78.5t-41 23.5zM967 1016q49 0 79.5 -24.5t39 -51t8.5 -53.5q0 -43 -34.5 -72.5t-72.5 -34.5q-213 -23 -340 -147q3 8 9 22t25 53.5t39 75.5t50 80.5t59.5 76t66 53.5t71.5 22zM285 909q39 0 78 -21t69.5 -55t58.5 -74.5t48 -81.5t35 -75
t22 -55l8 -21q-117 148 -319 148q-49 0 -88 30t-39 76q0 53 33.5 91t93.5 38zM643 1214q38 -37 48.5 -102t-2.5 -131t-31.5 -126.5t-35.5 -98.5l-18 -39q20 191 -125 330q-35 35 -42 81.5t24 83.5q23 23 53 34t65 3.5t64 -35.5z" />
    <glyph glyph-name="underscore" unicode="_" 
d="M207 403q-13 0 -19 -2v-200q4 -2 19 -2q37 0 50 25t13 77q0 54 -13 78t-50 24zM518 330v-49h-82v-78h96v-49h-155v297h155v-52h-96v-69h82zM203 150q-47 0 -74 4v292q61 9 76 9q67 0 96 -37.5t29 -116.5t-29.5 -115t-97.5 -36zM586 451h80l39 -164l38 164h82
q3 -45 13 -297h-60q0 108 -6 213l-41 -168h-55l-41 168h-2q-4 -140 -4 -213h-58q3 156 15 297zM987 150q-60 0 -84 35.5t-24 115.5q0 81 24 117.5t84 36.5t85.5 -37t25.5 -117q0 -79 -25.5 -115t-85.5 -36zM987 403q-29 0 -39 -23.5t-10 -78.5q0 -54 10 -78t39 -24
q30 0 40.5 24t10.5 78q0 55 -10 78.5t-41 23.5zM967 1016q49 0 79.5 -24.5t39 -51t8.5 -53.5q0 -43 -34.5 -72.5t-72.5 -34.5q-213 -23 -340 -147q3 8 9 22t25 53.5t39 75.5t50 80.5t59.5 76t66 53.5t71.5 22zM285 909q39 0 78 -21t69.5 -55t58.5 -74.5t48 -81.5t35 -75
t22 -55l8 -21q-117 148 -319 148q-49 0 -88 30t-39 76q0 53 33.5 91t93.5 38zM643 1214q38 -37 48.5 -102t-2.5 -131t-31.5 -126.5t-35.5 -98.5l-18 -39q20 191 -125 330q-35 35 -42 81.5t24 83.5q23 23 53 34t65 3.5t64 -35.5z" />
    <glyph glyph-name="grave" unicode="`" 
d="M207 403q-13 0 -19 -2v-200q4 -2 19 -2q37 0 50 25t13 77q0 54 -13 78t-50 24zM518 330v-49h-82v-78h96v-49h-155v297h155v-52h-96v-69h82zM203 150q-47 0 -74 4v292q61 9 76 9q67 0 96 -37.5t29 -116.5t-29.5 -115t-97.5 -36zM586 451h80l39 -164l38 164h82
q3 -45 13 -297h-60q0 108 -6 213l-41 -168h-55l-41 168h-2q-4 -140 -4 -213h-58q3 156 15 297zM987 150q-60 0 -84 35.5t-24 115.5q0 81 24 117.5t84 36.5t85.5 -37t25.5 -117q0 -79 -25.5 -115t-85.5 -36zM987 403q-29 0 -39 -23.5t-10 -78.5q0 -54 10 -78t39 -24
q30 0 40.5 24t10.5 78q0 55 -10 78.5t-41 23.5zM967 1016q49 0 79.5 -24.5t39 -51t8.5 -53.5q0 -43 -34.5 -72.5t-72.5 -34.5q-213 -23 -340 -147q3 8 9 22t25 53.5t39 75.5t50 80.5t59.5 76t66 53.5t71.5 22zM285 909q39 0 78 -21t69.5 -55t58.5 -74.5t48 -81.5t35 -75
t22 -55l8 -21q-117 148 -319 148q-49 0 -88 30t-39 76q0 53 33.5 91t93.5 38zM643 1214q38 -37 48.5 -102t-2.5 -131t-31.5 -126.5t-35.5 -98.5l-18 -39q20 191 -125 330q-35 35 -42 81.5t24 83.5q23 23 53 34t65 3.5t64 -35.5z" />
    <glyph glyph-name="a" unicode="a" horiz-adv-x="606" 
d="M203 -10q-183 0 -183 221v238q0 142 56 202t203 60h43v215q0 10 -4.5 15.5t-7.5 6t-7 0.5t-7 -0.5t-7 -6t-4 -15.5v-187h-265v135q0 273 283 273t283 -273v-874h-201l-31 63q-45 -73 -151 -73zM303 188q19 0 19 23v350h-19q-4 0 -7 -0.5t-7 -6t-4 -15.5v-328
q0 -23 18 -23z" />
    <glyph glyph-name="b" unicode="b" horiz-adv-x="606" 
d="M20 0v1536h265v-442q60 47 118 47q183 0 183 -221v-709q0 -221 -183 -221q-103 0 -153 73l-29 -63h-201zM303 188q19 0 19 23v709q0 10 -4.5 15.5t-7.5 6t-7 0.5t-7 -0.5t-7 -6t-4 -15.5v-709q0 -23 18 -23z" />
    <glyph glyph-name="c" unicode="c" horiz-adv-x="606" 
d="M303 -16q-283 0 -283 272v618q0 273 283 273t283 -273v-268h-264v320q0 10 -4.5 15.5t-7.5 6t-7 0.5t-7 -0.5t-7 -6t-4 -15.5v-721q0 -23 18 -23q19 0 19 23v358h264v-307q0 -272 -283 -272z" />
    <glyph glyph-name="d" unicode="d" horiz-adv-x="606" 
d="M203 -10q-183 0 -183 221v709q0 221 183 221q67 0 119 -45v440h264v-1536h-201l-31 63q-45 -73 -151 -73zM303 188q19 0 19 23v709q0 10 -4.5 15.5t-7.5 6t-7 0.5t-7 -0.5t-7 -6t-4 -15.5v-709q0 -23 18 -23z" />
    <glyph glyph-name="e" unicode="e" horiz-adv-x="606" 
d="M303 -16q-283 0 -283 272v618q0 273 283 273t283 -273v-356h-301v-313q0 -23 18 -23q19 0 19 23v270h264v-219q0 -272 -283 -272zM285 647h37v279q0 10 -4.5 15.5t-7.5 6t-7 0.5t-7 -0.5t-7 -6t-4 -15.5v-279z" />
    <glyph glyph-name="f" unicode="f" horiz-adv-x="425" 
d="M76 0v936h-66v194h66v197q0 108 46.5 158.5t151.5 50.5h142v-199h-49q-27 0 -27 -28v-179h76v-194h-76v-936h-264z" />
    <glyph glyph-name="g" unicode="g" horiz-adv-x="606" 
d="M203 -10q-183 0 -183 221v709q0 221 183 221q105 0 151 -74l31 63h201v-1320q0 -273 -283 -273t-283 273v145h265v-197q0 -10 4 -15.5t7 -6t7 -0.5t7 0.5t7.5 6t4.5 15.5v277q-52 -45 -119 -45zM303 188q19 0 19 23v709q0 10 -4.5 15.5t-7.5 6t-7 0.5t-7 -0.5t-7 -6
t-4 -15.5v-709q0 -23 18 -23z" />
    <glyph glyph-name="h" unicode="h" horiz-adv-x="606" 
d="M20 0v1536h265v-440q45 45 118 45q183 0 183 -221v-920h-264v920q0 10 -4.5 15.5t-7.5 6t-7 0.5t-7 -0.5t-7 -6t-4 -15.5v-920h-265z" />
    <glyph glyph-name="i" unicode="i" horiz-adv-x="305" 
d="M29 1208v242h241v-242h-241zM20 0v1130h265v-1130h-265z" />
    <glyph glyph-name="j" unicode="j" horiz-adv-x="313" 
d="M39 1208v242h242v-242h-242zM-47 -463v199h49q27 0 27 28v1366h264v-1384q0 -108 -46.5 -158.5t-152.5 -50.5h-141z" />
    <glyph glyph-name="k" unicode="k" horiz-adv-x="606" 
d="M285 1534v-840h16q21 0 21 25v411h264v-417q0 -105 -94 -105q94 0 94 -104v-504h-264v498q0 11 -3.5 16.5t-7.5 6.5t-10 1h-16v-522h-265v1534h265z" />
    <glyph glyph-name="l" unicode="l" horiz-adv-x="305" 
d="M285 0h-265v1536h265v-1536z" />
    <glyph glyph-name="m" unicode="m" horiz-adv-x="907" 
d="M20 0v1130h201l29 -63q51 74 153 74t146 -72q61 72 156 72q182 0 182 -221v-920h-264v920q0 10 -4.5 15.5t-7.5 6t-7 0.5t-7 -0.5t-7 -6t-4 -15.5v-920h-264v920q0 10 -4.5 15.5t-7.5 6t-7 0.5t-7 -0.5t-7 -6t-4 -15.5v-920h-265z" />
    <glyph glyph-name="n" unicode="n" horiz-adv-x="606" 
d="M20 0v1130h201l29 -63q51 74 153 74q183 0 183 -221v-920h-264v920q0 10 -4.5 15.5t-7.5 6t-7 0.5t-7 -0.5t-7 -6t-4 -15.5v-920h-265z" />
    <glyph glyph-name="o" unicode="o" horiz-adv-x="606" 
d="M303 -16q-283 0 -283 272v618q0 273 283 273t283 -273v-618q0 -272 -283 -272zM303 182q19 0 19 23v721q0 10 -4.5 15.5t-7.5 6t-7 0.5t-7 -0.5t-7 -6t-4 -15.5v-721q0 -23 18 -23z" />
    <glyph glyph-name="p" unicode="p" horiz-adv-x="606" 
d="M403 -10q-73 0 -118 45v-498h-265v1593h201l29 -63q51 74 153 74q183 0 183 -221v-709q0 -221 -183 -221zM303 188q19 0 19 23v709q0 10 -4.5 15.5t-7.5 6t-7 0.5t-7 -0.5t-7 -6t-4 -15.5v-709q0 -23 18 -23z" />
    <glyph glyph-name="q" unicode="q" horiz-adv-x="606" 
d="M203 -10q-183 0 -183 221v709q0 221 183 221q105 0 151 -74l31 63h201v-1593h-264v498q-52 -45 -119 -45zM303 188q19 0 19 23v709q0 10 -4.5 15.5t-7.5 6t-7 0.5t-7 -0.5t-7 -6t-4 -15.5v-709q0 -23 18 -23z" />
    <glyph glyph-name="r" unicode="r" horiz-adv-x="606" 
d="M20 0v1130h201l29 -63q51 74 153 74q183 0 183 -221v-326h-264v326q0 10 -4.5 15.5t-7.5 6t-7 0.5t-7 -0.5t-7 -6t-4 -15.5v-920h-265z" />
    <glyph glyph-name="s" unicode="s" horiz-adv-x="606" 
d="M303 -16q-283 0 -283 272v180h265v-231q0 -23 18 -23q19 0 19 23v180q0 52 -21 73t-96 46q-97 33 -141 87t-44 163v120q0 273 283 273t283 -273v-155h-264v207q0 10 -4.5 15.5t-7.5 6t-7 0.5t-7 -0.5t-7 -6t-4 -15.5v-160q0 -52 20.5 -73t95.5 -46q96 -32 140.5 -83
t44.5 -142v-166q0 -272 -283 -272z" />
    <glyph glyph-name="t" unicode="t" horiz-adv-x="425" 
d="M274 0q-105 0 -151.5 50.5t-46.5 158.5v727h-66v194h66v252h264v-252h76v-194h-76v-709q0 -28 27 -28h49v-199h-142z" />
    <glyph glyph-name="u" unicode="u" horiz-adv-x="606" 
d="M203 -10q-183 0 -183 221v919h265v-919q0 -23 18 -23q19 0 19 23v919h264v-1130h-201l-31 63q-45 -73 -151 -73z" />
    <glyph glyph-name="v" unicode="v" horiz-adv-x="600" 
d="M78 0l-68 1130h264l17 -741v-182h18v182l17 741h264l-70 -1130h-442z" />
    <glyph glyph-name="w" unicode="w" horiz-adv-x="911" 
d="M66 0l-56 1130h264l17 -741v-182h18v182l17 741h270l8 -741v-182h19v182l16 741h264l-55 -1130h-369l-10 741v183h-16v-183l-11 -741h-376z" />
    <glyph glyph-name="x" unicode="x" horiz-adv-x="606" 
d="M20 0v504q0 104 93 104q-93 0 -93 105v417h265v-415q0 -21 18 -21q19 0 19 21v415h264v-417q0 -105 -92 -105q92 0 92 -104v-504h-264v502q0 20 -19 20q-18 0 -18 -20v-502h-265z" />
    <glyph glyph-name="y" unicode="y" horiz-adv-x="606" 
d="M203 -10q-183 0 -183 221v919h265v-919q0 -23 18 -23q19 0 19 23v919h264v-1320q0 -273 -283 -273t-283 273v145h265v-197q0 -10 4 -15.5t7 -6t7 -0.5t7 0.5t7.5 6t4.5 15.5v277q-52 -45 -119 -45z" />
    <glyph glyph-name="z" unicode="z" horiz-adv-x="495" 
d="M10 0v137l189 795h-189v198h475v-137l-190 -794h190v-199h-475z" />
    <glyph glyph-name="braceleft" unicode="{" 
d="M207 403q-13 0 -19 -2v-200q4 -2 19 -2q37 0 50 25t13 77q0 54 -13 78t-50 24zM518 330v-49h-82v-78h96v-49h-155v297h155v-52h-96v-69h82zM203 150q-47 0 -74 4v292q61 9 76 9q67 0 96 -37.5t29 -116.5t-29.5 -115t-97.5 -36zM586 451h80l39 -164l38 164h82
q3 -45 13 -297h-60q0 108 -6 213l-41 -168h-55l-41 168h-2q-4 -140 -4 -213h-58q3 156 15 297zM987 150q-60 0 -84 35.5t-24 115.5q0 81 24 117.5t84 36.5t85.5 -37t25.5 -117q0 -79 -25.5 -115t-85.5 -36zM987 403q-29 0 -39 -23.5t-10 -78.5q0 -54 10 -78t39 -24
q30 0 40.5 24t10.5 78q0 55 -10 78.5t-41 23.5zM967 1016q49 0 79.5 -24.5t39 -51t8.5 -53.5q0 -43 -34.5 -72.5t-72.5 -34.5q-213 -23 -340 -147q3 8 9 22t25 53.5t39 75.5t50 80.5t59.5 76t66 53.5t71.5 22zM285 909q39 0 78 -21t69.5 -55t58.5 -74.5t48 -81.5t35 -75
t22 -55l8 -21q-117 148 -319 148q-49 0 -88 30t-39 76q0 53 33.5 91t93.5 38zM643 1214q38 -37 48.5 -102t-2.5 -131t-31.5 -126.5t-35.5 -98.5l-18 -39q20 191 -125 330q-35 35 -42 81.5t24 83.5q23 23 53 34t65 3.5t64 -35.5z" />
    <glyph glyph-name="bar" unicode="|" 
d="M207 403q-13 0 -19 -2v-200q4 -2 19 -2q37 0 50 25t13 77q0 54 -13 78t-50 24zM518 330v-49h-82v-78h96v-49h-155v297h155v-52h-96v-69h82zM203 150q-47 0 -74 4v292q61 9 76 9q67 0 96 -37.5t29 -116.5t-29.5 -115t-97.5 -36zM586 451h80l39 -164l38 164h82
q3 -45 13 -297h-60q0 108 -6 213l-41 -168h-55l-41 168h-2q-4 -140 -4 -213h-58q3 156 15 297zM987 150q-60 0 -84 35.5t-24 115.5q0 81 24 117.5t84 36.5t85.5 -37t25.5 -117q0 -79 -25.5 -115t-85.5 -36zM987 403q-29 0 -39 -23.5t-10 -78.5q0 -54 10 -78t39 -24
q30 0 40.5 24t10.5 78q0 55 -10 78.5t-41 23.5zM967 1016q49 0 79.5 -24.5t39 -51t8.5 -53.5q0 -43 -34.5 -72.5t-72.5 -34.5q-213 -23 -340 -147q3 8 9 22t25 53.5t39 75.5t50 80.5t59.5 76t66 53.5t71.5 22zM285 909q39 0 78 -21t69.5 -55t58.5 -74.5t48 -81.5t35 -75
t22 -55l8 -21q-117 148 -319 148q-49 0 -88 30t-39 76q0 53 33.5 91t93.5 38zM643 1214q38 -37 48.5 -102t-2.5 -131t-31.5 -126.5t-35.5 -98.5l-18 -39q20 191 -125 330q-35 35 -42 81.5t24 83.5q23 23 53 34t65 3.5t64 -35.5z" />
    <glyph glyph-name="braceright" unicode="}" 
d="M207 403q-13 0 -19 -2v-200q4 -2 19 -2q37 0 50 25t13 77q0 54 -13 78t-50 24zM518 330v-49h-82v-78h96v-49h-155v297h155v-52h-96v-69h82zM203 150q-47 0 -74 4v292q61 9 76 9q67 0 96 -37.5t29 -116.5t-29.5 -115t-97.5 -36zM586 451h80l39 -164l38 164h82
q3 -45 13 -297h-60q0 108 -6 213l-41 -168h-55l-41 168h-2q-4 -140 -4 -213h-58q3 156 15 297zM987 150q-60 0 -84 35.5t-24 115.5q0 81 24 117.5t84 36.5t85.5 -37t25.5 -117q0 -79 -25.5 -115t-85.5 -36zM987 403q-29 0 -39 -23.5t-10 -78.5q0 -54 10 -78t39 -24
q30 0 40.5 24t10.5 78q0 55 -10 78.5t-41 23.5zM967 1016q49 0 79.5 -24.5t39 -51t8.5 -53.5q0 -43 -34.5 -72.5t-72.5 -34.5q-213 -23 -340 -147q3 8 9 22t25 53.5t39 75.5t50 80.5t59.5 76t66 53.5t71.5 22zM285 909q39 0 78 -21t69.5 -55t58.5 -74.5t48 -81.5t35 -75
t22 -55l8 -21q-117 148 -319 148q-49 0 -88 30t-39 76q0 53 33.5 91t93.5 38zM643 1214q38 -37 48.5 -102t-2.5 -131t-31.5 -126.5t-35.5 -98.5l-18 -39q20 191 -125 330q-35 35 -42 81.5t24 83.5q23 23 53 34t65 3.5t64 -35.5z" />
    <glyph glyph-name="asciitilde" unicode="~" 
d="M207 403q-13 0 -19 -2v-200q4 -2 19 -2q37 0 50 25t13 77q0 54 -13 78t-50 24zM518 330v-49h-82v-78h96v-49h-155v297h155v-52h-96v-69h82zM203 150q-47 0 -74 4v292q61 9 76 9q67 0 96 -37.5t29 -116.5t-29.5 -115t-97.5 -36zM586 451h80l39 -164l38 164h82
q3 -45 13 -297h-60q0 108 -6 213l-41 -168h-55l-41 168h-2q-4 -140 -4 -213h-58q3 156 15 297zM987 150q-60 0 -84 35.5t-24 115.5q0 81 24 117.5t84 36.5t85.5 -37t25.5 -117q0 -79 -25.5 -115t-85.5 -36zM987 403q-29 0 -39 -23.5t-10 -78.5q0 -54 10 -78t39 -24
q30 0 40.5 24t10.5 78q0 55 -10 78.5t-41 23.5zM967 1016q49 0 79.5 -24.5t39 -51t8.5 -53.5q0 -43 -34.5 -72.5t-72.5 -34.5q-213 -23 -340 -147q3 8 9 22t25 53.5t39 75.5t50 80.5t59.5 76t66 53.5t71.5 22zM285 909q39 0 78 -21t69.5 -55t58.5 -74.5t48 -81.5t35 -75
t22 -55l8 -21q-117 148 -319 148q-49 0 -88 30t-39 76q0 53 33.5 91t93.5 38zM643 1214q38 -37 48.5 -102t-2.5 -131t-31.5 -126.5t-35.5 -98.5l-18 -39q20 191 -125 330q-35 35 -42 81.5t24 83.5q23 23 53 34t65 3.5t64 -35.5z" />
    </font>
</defs>
</svg>
