<?xml version="1.0" standalone="no"?>
<!DOCTYPE svg PUBLIC "-//W3C//DTD SVG 1.1//EN" "http://www.w3.org/Graphics/SVG/1.1/DTD/svg11.dtd" >
<svg xmlns="http://www.w3.org/2000/svg" xmlns:xlink="http://www.w3.org/1999/xlink" version="1.1">
<metadata>
Created by FontForge 20201107 at Thu Feb  6 13:49:20 2025
 By 
Copyright (c) 2020 by Artegra. All rights reserved.
</metadata>
<defs>
<font id="FONTSPRINGDEMO-ProcerusLightItalic" horiz-adv-x="1224" >
  <font-face 
    font-family="FSP DEMO - Procerus Light"
    font-weight="300"
    font-style="italic"
    font-stretch="ultra-condensed"
    units-per-em="2048"
    panose-1="2 0 5 6 4 0 0 2 0 4"
    ascent="1585"
    descent="-463"
    x-height="1092"
    cap-height="1536"
    bbox="-92 -463 1098 1544"
    underline-thickness="102"
    underline-position="-204"
    slope="-8"
    unicode-range="U+000D-007E"
  />
<missing-glyph 
d="M207 403q-13 0 -19 -2v-200q4 -2 19 -2q37 0 50 25t13 77q0 54 -13 78t-50 24zM518 330v-49h-82v-78h96v-49h-155v297h155v-52h-96v-69h82zM203 150q-47 0 -74 4v292q61 9 76 9q67 0 96 -37.5t29 -116.5t-29.5 -115t-97.5 -36zM586 451h80l39 -164l38 164h82
q3 -45 13 -297h-60q0 108 -6 213l-41 -168h-55l-41 168h-2q-4 -140 -4 -213h-58q3 156 15 297zM987 150q-60 0 -84 35.5t-24 115.5q0 81 24 117.5t84 36.5t85.5 -37t25.5 -117q0 -79 -25.5 -115t-85.5 -36zM987 403q-29 0 -39 -23.5t-10 -78.5q0 -54 10 -78t39 -24
q30 0 40.5 24t10.5 78q0 55 -10 78.5t-41 23.5zM967 1016q49 0 79.5 -24.5t39 -51t8.5 -53.5q0 -43 -34.5 -72.5t-72.5 -34.5q-213 -23 -340 -147q3 8 9 22t25 53.5t39 75.5t50 80.5t59.5 76t66 53.5t71.5 22zM285 909q39 0 78 -21t69.5 -55t58.5 -74.5t48 -81.5t35 -75
t22 -55l8 -21q-117 148 -319 148q-49 0 -88 30t-39 76q0 53 33.5 91t93.5 38zM643 1214q38 -37 48.5 -102t-2.5 -131t-31.5 -126.5t-35.5 -98.5l-18 -39q20 191 -125 330q-35 35 -42 81.5t24 83.5q23 23 53 34t65 3.5t64 -35.5z" />
    <glyph glyph-name=".notdef" 
d="M207 403q-13 0 -19 -2v-200q4 -2 19 -2q37 0 50 25t13 77q0 54 -13 78t-50 24zM518 330v-49h-82v-78h96v-49h-155v297h155v-52h-96v-69h82zM203 150q-47 0 -74 4v292q61 9 76 9q67 0 96 -37.5t29 -116.5t-29.5 -115t-97.5 -36zM586 451h80l39 -164l38 164h82
q3 -45 13 -297h-60q0 108 -6 213l-41 -168h-55l-41 168h-2q-4 -140 -4 -213h-58q3 156 15 297zM987 150q-60 0 -84 35.5t-24 115.5q0 81 24 117.5t84 36.5t85.5 -37t25.5 -117q0 -79 -25.5 -115t-85.5 -36zM987 403q-29 0 -39 -23.5t-10 -78.5q0 -54 10 -78t39 -24
q30 0 40.5 24t10.5 78q0 55 -10 78.5t-41 23.5zM967 1016q49 0 79.5 -24.5t39 -51t8.5 -53.5q0 -43 -34.5 -72.5t-72.5 -34.5q-213 -23 -340 -147q3 8 9 22t25 53.5t39 75.5t50 80.5t59.5 76t66 53.5t71.5 22zM285 909q39 0 78 -21t69.5 -55t58.5 -74.5t48 -81.5t35 -75
t22 -55l8 -21q-117 148 -319 148q-49 0 -88 30t-39 76q0 53 33.5 91t93.5 38zM643 1214q38 -37 48.5 -102t-2.5 -131t-31.5 -126.5t-35.5 -98.5l-18 -39q20 191 -125 330q-35 35 -42 81.5t24 83.5q23 23 53 34t65 3.5t64 -35.5z" />
    <glyph glyph-name="uni0000" horiz-adv-x="0" 
 />
    <glyph glyph-name="uni0000" horiz-adv-x="0" 
 />
    <glyph glyph-name="uni000D" unicode="&#xd;" horiz-adv-x="512" 
 />
    <glyph glyph-name="space" unicode=" " horiz-adv-x="122" 
 />
    <glyph glyph-name="exclam" unicode="!" 
d="M207 403q-13 0 -19 -2v-200q4 -2 19 -2q37 0 50 25t13 77q0 54 -13 78t-50 24zM518 330v-49h-82v-78h96v-49h-155v297h155v-52h-96v-69h82zM203 150q-47 0 -74 4v292q61 9 76 9q67 0 96 -37.5t29 -116.5t-29.5 -115t-97.5 -36zM586 451h80l39 -164l38 164h82
q3 -45 13 -297h-60q0 108 -6 213l-41 -168h-55l-41 168h-2q-4 -140 -4 -213h-58q3 156 15 297zM987 150q-60 0 -84 35.5t-24 115.5q0 81 24 117.5t84 36.5t85.5 -37t25.5 -117q0 -79 -25.5 -115t-85.5 -36zM987 403q-29 0 -39 -23.5t-10 -78.5q0 -54 10 -78t39 -24
q30 0 40.5 24t10.5 78q0 55 -10 78.5t-41 23.5zM967 1016q49 0 79.5 -24.5t39 -51t8.5 -53.5q0 -43 -34.5 -72.5t-72.5 -34.5q-213 -23 -340 -147q3 8 9 22t25 53.5t39 75.5t50 80.5t59.5 76t66 53.5t71.5 22zM285 909q39 0 78 -21t69.5 -55t58.5 -74.5t48 -81.5t35 -75
t22 -55l8 -21q-117 148 -319 148q-49 0 -88 30t-39 76q0 53 33.5 91t93.5 38zM643 1214q38 -37 48.5 -102t-2.5 -131t-31.5 -126.5t-35.5 -98.5l-18 -39q20 191 -125 330q-35 35 -42 81.5t24 83.5q23 23 53 34t65 3.5t64 -35.5z" />
    <glyph glyph-name="quotedbl" unicode="&#x22;" 
d="M207 403q-13 0 -19 -2v-200q4 -2 19 -2q37 0 50 25t13 77q0 54 -13 78t-50 24zM518 330v-49h-82v-78h96v-49h-155v297h155v-52h-96v-69h82zM203 150q-47 0 -74 4v292q61 9 76 9q67 0 96 -37.5t29 -116.5t-29.5 -115t-97.5 -36zM586 451h80l39 -164l38 164h82
q3 -45 13 -297h-60q0 108 -6 213l-41 -168h-55l-41 168h-2q-4 -140 -4 -213h-58q3 156 15 297zM987 150q-60 0 -84 35.5t-24 115.5q0 81 24 117.5t84 36.5t85.5 -37t25.5 -117q0 -79 -25.5 -115t-85.5 -36zM987 403q-29 0 -39 -23.5t-10 -78.5q0 -54 10 -78t39 -24
q30 0 40.5 24t10.5 78q0 55 -10 78.5t-41 23.5zM967 1016q49 0 79.5 -24.5t39 -51t8.5 -53.5q0 -43 -34.5 -72.5t-72.5 -34.5q-213 -23 -340 -147q3 8 9 22t25 53.5t39 75.5t50 80.5t59.5 76t66 53.5t71.5 22zM285 909q39 0 78 -21t69.5 -55t58.5 -74.5t48 -81.5t35 -75
t22 -55l8 -21q-117 148 -319 148q-49 0 -88 30t-39 76q0 53 33.5 91t93.5 38zM643 1214q38 -37 48.5 -102t-2.5 -131t-31.5 -126.5t-35.5 -98.5l-18 -39q20 191 -125 330q-35 35 -42 81.5t24 83.5q23 23 53 34t65 3.5t64 -35.5z" />
    <glyph glyph-name="numbersign" unicode="#" 
d="M207 403q-13 0 -19 -2v-200q4 -2 19 -2q37 0 50 25t13 77q0 54 -13 78t-50 24zM518 330v-49h-82v-78h96v-49h-155v297h155v-52h-96v-69h82zM203 150q-47 0 -74 4v292q61 9 76 9q67 0 96 -37.5t29 -116.5t-29.5 -115t-97.5 -36zM586 451h80l39 -164l38 164h82
q3 -45 13 -297h-60q0 108 -6 213l-41 -168h-55l-41 168h-2q-4 -140 -4 -213h-58q3 156 15 297zM987 150q-60 0 -84 35.5t-24 115.5q0 81 24 117.5t84 36.5t85.5 -37t25.5 -117q0 -79 -25.5 -115t-85.5 -36zM987 403q-29 0 -39 -23.5t-10 -78.5q0 -54 10 -78t39 -24
q30 0 40.5 24t10.5 78q0 55 -10 78.5t-41 23.5zM967 1016q49 0 79.5 -24.5t39 -51t8.5 -53.5q0 -43 -34.5 -72.5t-72.5 -34.5q-213 -23 -340 -147q3 8 9 22t25 53.5t39 75.5t50 80.5t59.5 76t66 53.5t71.5 22zM285 909q39 0 78 -21t69.5 -55t58.5 -74.5t48 -81.5t35 -75
t22 -55l8 -21q-117 148 -319 148q-49 0 -88 30t-39 76q0 53 33.5 91t93.5 38zM643 1214q38 -37 48.5 -102t-2.5 -131t-31.5 -126.5t-35.5 -98.5l-18 -39q20 191 -125 330q-35 35 -42 81.5t24 83.5q23 23 53 34t65 3.5t64 -35.5z" />
    <glyph glyph-name="dollar" unicode="$" 
d="M207 403q-13 0 -19 -2v-200q4 -2 19 -2q37 0 50 25t13 77q0 54 -13 78t-50 24zM518 330v-49h-82v-78h96v-49h-155v297h155v-52h-96v-69h82zM203 150q-47 0 -74 4v292q61 9 76 9q67 0 96 -37.5t29 -116.5t-29.5 -115t-97.5 -36zM586 451h80l39 -164l38 164h82
q3 -45 13 -297h-60q0 108 -6 213l-41 -168h-55l-41 168h-2q-4 -140 -4 -213h-58q3 156 15 297zM987 150q-60 0 -84 35.5t-24 115.5q0 81 24 117.5t84 36.5t85.5 -37t25.5 -117q0 -79 -25.5 -115t-85.5 -36zM987 403q-29 0 -39 -23.5t-10 -78.5q0 -54 10 -78t39 -24
q30 0 40.5 24t10.5 78q0 55 -10 78.5t-41 23.5zM967 1016q49 0 79.5 -24.5t39 -51t8.5 -53.5q0 -43 -34.5 -72.5t-72.5 -34.5q-213 -23 -340 -147q3 8 9 22t25 53.5t39 75.5t50 80.5t59.5 76t66 53.5t71.5 22zM285 909q39 0 78 -21t69.5 -55t58.5 -74.5t48 -81.5t35 -75
t22 -55l8 -21q-117 148 -319 148q-49 0 -88 30t-39 76q0 53 33.5 91t93.5 38zM643 1214q38 -37 48.5 -102t-2.5 -131t-31.5 -126.5t-35.5 -98.5l-18 -39q20 191 -125 330q-35 35 -42 81.5t24 83.5q23 23 53 34t65 3.5t64 -35.5z" />
    <glyph glyph-name="percent" unicode="%" 
d="M207 403q-13 0 -19 -2v-200q4 -2 19 -2q37 0 50 25t13 77q0 54 -13 78t-50 24zM518 330v-49h-82v-78h96v-49h-155v297h155v-52h-96v-69h82zM203 150q-47 0 -74 4v292q61 9 76 9q67 0 96 -37.5t29 -116.5t-29.5 -115t-97.5 -36zM586 451h80l39 -164l38 164h82
q3 -45 13 -297h-60q0 108 -6 213l-41 -168h-55l-41 168h-2q-4 -140 -4 -213h-58q3 156 15 297zM987 150q-60 0 -84 35.5t-24 115.5q0 81 24 117.5t84 36.5t85.5 -37t25.5 -117q0 -79 -25.5 -115t-85.5 -36zM987 403q-29 0 -39 -23.5t-10 -78.5q0 -54 10 -78t39 -24
q30 0 40.5 24t10.5 78q0 55 -10 78.5t-41 23.5zM967 1016q49 0 79.5 -24.5t39 -51t8.5 -53.5q0 -43 -34.5 -72.5t-72.5 -34.5q-213 -23 -340 -147q3 8 9 22t25 53.5t39 75.5t50 80.5t59.5 76t66 53.5t71.5 22zM285 909q39 0 78 -21t69.5 -55t58.5 -74.5t48 -81.5t35 -75
t22 -55l8 -21q-117 148 -319 148q-49 0 -88 30t-39 76q0 53 33.5 91t93.5 38zM643 1214q38 -37 48.5 -102t-2.5 -131t-31.5 -126.5t-35.5 -98.5l-18 -39q20 191 -125 330q-35 35 -42 81.5t24 83.5q23 23 53 34t65 3.5t64 -35.5z" />
    <glyph glyph-name="ampersand" unicode="&#x26;" 
d="M207 403q-13 0 -19 -2v-200q4 -2 19 -2q37 0 50 25t13 77q0 54 -13 78t-50 24zM518 330v-49h-82v-78h96v-49h-155v297h155v-52h-96v-69h82zM203 150q-47 0 -74 4v292q61 9 76 9q67 0 96 -37.5t29 -116.5t-29.5 -115t-97.5 -36zM586 451h80l39 -164l38 164h82
q3 -45 13 -297h-60q0 108 -6 213l-41 -168h-55l-41 168h-2q-4 -140 -4 -213h-58q3 156 15 297zM987 150q-60 0 -84 35.5t-24 115.5q0 81 24 117.5t84 36.5t85.5 -37t25.5 -117q0 -79 -25.5 -115t-85.5 -36zM987 403q-29 0 -39 -23.5t-10 -78.5q0 -54 10 -78t39 -24
q30 0 40.5 24t10.5 78q0 55 -10 78.5t-41 23.5zM967 1016q49 0 79.5 -24.5t39 -51t8.5 -53.5q0 -43 -34.5 -72.5t-72.5 -34.5q-213 -23 -340 -147q3 8 9 22t25 53.5t39 75.5t50 80.5t59.5 76t66 53.5t71.5 22zM285 909q39 0 78 -21t69.5 -55t58.5 -74.5t48 -81.5t35 -75
t22 -55l8 -21q-117 148 -319 148q-49 0 -88 30t-39 76q0 53 33.5 91t93.5 38zM643 1214q38 -37 48.5 -102t-2.5 -131t-31.5 -126.5t-35.5 -98.5l-18 -39q20 191 -125 330q-35 35 -42 81.5t24 83.5q23 23 53 34t65 3.5t64 -35.5z" />
    <glyph glyph-name="quotesingle" unicode="'" 
d="M207 403q-13 0 -19 -2v-200q4 -2 19 -2q37 0 50 25t13 77q0 54 -13 78t-50 24zM518 330v-49h-82v-78h96v-49h-155v297h155v-52h-96v-69h82zM203 150q-47 0 -74 4v292q61 9 76 9q67 0 96 -37.5t29 -116.5t-29.5 -115t-97.5 -36zM586 451h80l39 -164l38 164h82
q3 -45 13 -297h-60q0 108 -6 213l-41 -168h-55l-41 168h-2q-4 -140 -4 -213h-58q3 156 15 297zM987 150q-60 0 -84 35.5t-24 115.5q0 81 24 117.5t84 36.5t85.5 -37t25.5 -117q0 -79 -25.5 -115t-85.5 -36zM987 403q-29 0 -39 -23.5t-10 -78.5q0 -54 10 -78t39 -24
q30 0 40.5 24t10.5 78q0 55 -10 78.5t-41 23.5zM967 1016q49 0 79.5 -24.5t39 -51t8.5 -53.5q0 -43 -34.5 -72.5t-72.5 -34.5q-213 -23 -340 -147q3 8 9 22t25 53.5t39 75.5t50 80.5t59.5 76t66 53.5t71.5 22zM285 909q39 0 78 -21t69.5 -55t58.5 -74.5t48 -81.5t35 -75
t22 -55l8 -21q-117 148 -319 148q-49 0 -88 30t-39 76q0 53 33.5 91t93.5 38zM643 1214q38 -37 48.5 -102t-2.5 -131t-31.5 -126.5t-35.5 -98.5l-18 -39q20 191 -125 330q-35 35 -42 81.5t24 83.5q23 23 53 34t65 3.5t64 -35.5z" />
    <glyph glyph-name="parenleft" unicode="(" 
d="M207 403q-13 0 -19 -2v-200q4 -2 19 -2q37 0 50 25t13 77q0 54 -13 78t-50 24zM518 330v-49h-82v-78h96v-49h-155v297h155v-52h-96v-69h82zM203 150q-47 0 -74 4v292q61 9 76 9q67 0 96 -37.5t29 -116.5t-29.5 -115t-97.5 -36zM586 451h80l39 -164l38 164h82
q3 -45 13 -297h-60q0 108 -6 213l-41 -168h-55l-41 168h-2q-4 -140 -4 -213h-58q3 156 15 297zM987 150q-60 0 -84 35.5t-24 115.5q0 81 24 117.5t84 36.5t85.5 -37t25.5 -117q0 -79 -25.5 -115t-85.5 -36zM987 403q-29 0 -39 -23.5t-10 -78.5q0 -54 10 -78t39 -24
q30 0 40.5 24t10.5 78q0 55 -10 78.5t-41 23.5zM967 1016q49 0 79.5 -24.5t39 -51t8.5 -53.5q0 -43 -34.5 -72.5t-72.5 -34.5q-213 -23 -340 -147q3 8 9 22t25 53.5t39 75.5t50 80.5t59.5 76t66 53.5t71.5 22zM285 909q39 0 78 -21t69.5 -55t58.5 -74.5t48 -81.5t35 -75
t22 -55l8 -21q-117 148 -319 148q-49 0 -88 30t-39 76q0 53 33.5 91t93.5 38zM643 1214q38 -37 48.5 -102t-2.5 -131t-31.5 -126.5t-35.5 -98.5l-18 -39q20 191 -125 330q-35 35 -42 81.5t24 83.5q23 23 53 34t65 3.5t64 -35.5z" />
    <glyph glyph-name="parenright" unicode=")" 
d="M207 403q-13 0 -19 -2v-200q4 -2 19 -2q37 0 50 25t13 77q0 54 -13 78t-50 24zM518 330v-49h-82v-78h96v-49h-155v297h155v-52h-96v-69h82zM203 150q-47 0 -74 4v292q61 9 76 9q67 0 96 -37.5t29 -116.5t-29.5 -115t-97.5 -36zM586 451h80l39 -164l38 164h82
q3 -45 13 -297h-60q0 108 -6 213l-41 -168h-55l-41 168h-2q-4 -140 -4 -213h-58q3 156 15 297zM987 150q-60 0 -84 35.5t-24 115.5q0 81 24 117.5t84 36.5t85.5 -37t25.5 -117q0 -79 -25.5 -115t-85.5 -36zM987 403q-29 0 -39 -23.5t-10 -78.5q0 -54 10 -78t39 -24
q30 0 40.5 24t10.5 78q0 55 -10 78.5t-41 23.5zM967 1016q49 0 79.5 -24.5t39 -51t8.5 -53.5q0 -43 -34.5 -72.5t-72.5 -34.5q-213 -23 -340 -147q3 8 9 22t25 53.5t39 75.5t50 80.5t59.5 76t66 53.5t71.5 22zM285 909q39 0 78 -21t69.5 -55t58.5 -74.5t48 -81.5t35 -75
t22 -55l8 -21q-117 148 -319 148q-49 0 -88 30t-39 76q0 53 33.5 91t93.5 38zM643 1214q38 -37 48.5 -102t-2.5 -131t-31.5 -126.5t-35.5 -98.5l-18 -39q20 191 -125 330q-35 35 -42 81.5t24 83.5q23 23 53 34t65 3.5t64 -35.5z" />
    <glyph glyph-name="asterisk" unicode="*" 
d="M207 403q-13 0 -19 -2v-200q4 -2 19 -2q37 0 50 25t13 77q0 54 -13 78t-50 24zM518 330v-49h-82v-78h96v-49h-155v297h155v-52h-96v-69h82zM203 150q-47 0 -74 4v292q61 9 76 9q67 0 96 -37.5t29 -116.5t-29.5 -115t-97.5 -36zM586 451h80l39 -164l38 164h82
q3 -45 13 -297h-60q0 108 -6 213l-41 -168h-55l-41 168h-2q-4 -140 -4 -213h-58q3 156 15 297zM987 150q-60 0 -84 35.5t-24 115.5q0 81 24 117.5t84 36.5t85.5 -37t25.5 -117q0 -79 -25.5 -115t-85.5 -36zM987 403q-29 0 -39 -23.5t-10 -78.5q0 -54 10 -78t39 -24
q30 0 40.5 24t10.5 78q0 55 -10 78.5t-41 23.5zM967 1016q49 0 79.5 -24.5t39 -51t8.5 -53.5q0 -43 -34.5 -72.5t-72.5 -34.5q-213 -23 -340 -147q3 8 9 22t25 53.5t39 75.5t50 80.5t59.5 76t66 53.5t71.5 22zM285 909q39 0 78 -21t69.5 -55t58.5 -74.5t48 -81.5t35 -75
t22 -55l8 -21q-117 148 -319 148q-49 0 -88 30t-39 76q0 53 33.5 91t93.5 38zM643 1214q38 -37 48.5 -102t-2.5 -131t-31.5 -126.5t-35.5 -98.5l-18 -39q20 191 -125 330q-35 35 -42 81.5t24 83.5q23 23 53 34t65 3.5t64 -35.5z" />
    <glyph glyph-name="plus" unicode="+" 
d="M207 403q-13 0 -19 -2v-200q4 -2 19 -2q37 0 50 25t13 77q0 54 -13 78t-50 24zM518 330v-49h-82v-78h96v-49h-155v297h155v-52h-96v-69h82zM203 150q-47 0 -74 4v292q61 9 76 9q67 0 96 -37.5t29 -116.5t-29.5 -115t-97.5 -36zM586 451h80l39 -164l38 164h82
q3 -45 13 -297h-60q0 108 -6 213l-41 -168h-55l-41 168h-2q-4 -140 -4 -213h-58q3 156 15 297zM987 150q-60 0 -84 35.5t-24 115.5q0 81 24 117.5t84 36.5t85.5 -37t25.5 -117q0 -79 -25.5 -115t-85.5 -36zM987 403q-29 0 -39 -23.5t-10 -78.5q0 -54 10 -78t39 -24
q30 0 40.5 24t10.5 78q0 55 -10 78.5t-41 23.5zM967 1016q49 0 79.5 -24.5t39 -51t8.5 -53.5q0 -43 -34.5 -72.5t-72.5 -34.5q-213 -23 -340 -147q3 8 9 22t25 53.5t39 75.5t50 80.5t59.5 76t66 53.5t71.5 22zM285 909q39 0 78 -21t69.5 -55t58.5 -74.5t48 -81.5t35 -75
t22 -55l8 -21q-117 148 -319 148q-49 0 -88 30t-39 76q0 53 33.5 91t93.5 38zM643 1214q38 -37 48.5 -102t-2.5 -131t-31.5 -126.5t-35.5 -98.5l-18 -39q20 191 -125 330q-35 35 -42 81.5t24 83.5q23 23 53 34t65 3.5t64 -35.5z" />
    <glyph glyph-name="comma" unicode="," horiz-adv-x="167" 
d="M-2 -166l72 166h-50l19 127h127l-19 -127l-92 -166h-57z" />
    <glyph glyph-name="hyphen" unicode="-" 
d="M207 403q-13 0 -19 -2v-200q4 -2 19 -2q37 0 50 25t13 77q0 54 -13 78t-50 24zM518 330v-49h-82v-78h96v-49h-155v297h155v-52h-96v-69h82zM203 150q-47 0 -74 4v292q61 9 76 9q67 0 96 -37.5t29 -116.5t-29.5 -115t-97.5 -36zM586 451h80l39 -164l38 164h82
q3 -45 13 -297h-60q0 108 -6 213l-41 -168h-55l-41 168h-2q-4 -140 -4 -213h-58q3 156 15 297zM987 150q-60 0 -84 35.5t-24 115.5q0 81 24 117.5t84 36.5t85.5 -37t25.5 -117q0 -79 -25.5 -115t-85.5 -36zM987 403q-29 0 -39 -23.5t-10 -78.5q0 -54 10 -78t39 -24
q30 0 40.5 24t10.5 78q0 55 -10 78.5t-41 23.5zM967 1016q49 0 79.5 -24.5t39 -51t8.5 -53.5q0 -43 -34.5 -72.5t-72.5 -34.5q-213 -23 -340 -147q3 8 9 22t25 53.5t39 75.5t50 80.5t59.5 76t66 53.5t71.5 22zM285 909q39 0 78 -21t69.5 -55t58.5 -74.5t48 -81.5t35 -75
t22 -55l8 -21q-117 148 -319 148q-49 0 -88 30t-39 76q0 53 33.5 91t93.5 38zM643 1214q38 -37 48.5 -102t-2.5 -131t-31.5 -126.5t-35.5 -98.5l-18 -39q20 191 -125 330q-35 35 -42 81.5t24 83.5q23 23 53 34t65 3.5t64 -35.5z" />
    <glyph glyph-name="period" unicode="." horiz-adv-x="167" 
d="M20 0l19 127h125l-17 -127h-127z" />
    <glyph glyph-name="slash" unicode="/" 
d="M207 403q-13 0 -19 -2v-200q4 -2 19 -2q37 0 50 25t13 77q0 54 -13 78t-50 24zM518 330v-49h-82v-78h96v-49h-155v297h155v-52h-96v-69h82zM203 150q-47 0 -74 4v292q61 9 76 9q67 0 96 -37.5t29 -116.5t-29.5 -115t-97.5 -36zM586 451h80l39 -164l38 164h82
q3 -45 13 -297h-60q0 108 -6 213l-41 -168h-55l-41 168h-2q-4 -140 -4 -213h-58q3 156 15 297zM987 150q-60 0 -84 35.5t-24 115.5q0 81 24 117.5t84 36.5t85.5 -37t25.5 -117q0 -79 -25.5 -115t-85.5 -36zM987 403q-29 0 -39 -23.5t-10 -78.5q0 -54 10 -78t39 -24
q30 0 40.5 24t10.5 78q0 55 -10 78.5t-41 23.5zM967 1016q49 0 79.5 -24.5t39 -51t8.5 -53.5q0 -43 -34.5 -72.5t-72.5 -34.5q-213 -23 -340 -147q3 8 9 22t25 53.5t39 75.5t50 80.5t59.5 76t66 53.5t71.5 22zM285 909q39 0 78 -21t69.5 -55t58.5 -74.5t48 -81.5t35 -75
t22 -55l8 -21q-117 148 -319 148q-49 0 -88 30t-39 76q0 53 33.5 91t93.5 38zM643 1214q38 -37 48.5 -102t-2.5 -131t-31.5 -126.5t-35.5 -98.5l-18 -39q20 191 -125 330q-35 35 -42 81.5t24 83.5q23 23 53 34t65 3.5t64 -35.5z" />
    <glyph glyph-name="zero" unicode="0" horiz-adv-x="311" 
d="M154 -8q-78 0 -102 35.5t-13 111.5l176 1258q11 77 44.5 112t111.5 35t101.5 -35t12.5 -112l-176 -1258q-11 -77 -44 -112t-111 -35zM168 98q14 0 18 25l183 1290q2 25 -13 25q-14 0 -16 -25l-182 -1290q-4 -25 10 -25z" />
    <glyph glyph-name="one" unicode="1" horiz-adv-x="200" 
d="M59 0l193 1376q-20 -16 -49 -16l12 98q58 23 107 78h73l-215 -1536h-121z" />
    <glyph glyph-name="two" unicode="2" horiz-adv-x="311" 
d="M18 0l95 672q10 74 35 112.5t81 69.5q39 22 53.5 39.5t18.5 50.5l68 469q2 25 -13 25q-14 0 -16 -25l-68 -483h-120l63 467q11 77 44.5 112t111.5 35t101.5 -35t12.5 -112l-61 -445q-10 -73 -36 -111.5t-81 -68.5q-40 -23 -53.5 -40t-17.5 -50l-80 -576h28l80 574h121
l-96 -680h-271z" />
    <glyph glyph-name="three" unicode="3" horiz-adv-x="311" 
d="M154 -8q-78 0 -102 36t-13 113l82 576h121l-84 -594q-4 -25 10 -25t18 25l82 588q5 26 0 37.5t-9 13.5t-13 2h-62l17 106h61q9 0 14.5 2t12 14.5t10.5 37.5l70 489q2 25 -13 25q-14 0 -16 -25l-72 -498h-121l68 482q11 77 44.5 112t111.5 35t101.5 -35t12.5 -112
l-65 -477q-15 -80 -70 -103q50 -24 39 -104l-80 -572q-11 -77 -44.5 -113t-110.5 -36z" />
    <glyph glyph-name="four" unicode="4" 
d="M207 403q-13 0 -19 -2v-200q4 -2 19 -2q37 0 50 25t13 77q0 54 -13 78t-50 24zM518 330v-49h-82v-78h96v-49h-155v297h155v-52h-96v-69h82zM203 150q-47 0 -74 4v292q61 9 76 9q67 0 96 -37.5t29 -116.5t-29.5 -115t-97.5 -36zM586 451h80l39 -164l38 164h82
q3 -45 13 -297h-60q0 108 -6 213l-41 -168h-55l-41 168h-2q-4 -140 -4 -213h-58q3 156 15 297zM987 150q-60 0 -84 35.5t-24 115.5q0 81 24 117.5t84 36.5t85.5 -37t25.5 -117q0 -79 -25.5 -115t-85.5 -36zM987 403q-29 0 -39 -23.5t-10 -78.5q0 -54 10 -78t39 -24
q30 0 40.5 24t10.5 78q0 55 -10 78.5t-41 23.5zM967 1016q49 0 79.5 -24.5t39 -51t8.5 -53.5q0 -43 -34.5 -72.5t-72.5 -34.5q-213 -23 -340 -147q3 8 9 22t25 53.5t39 75.5t50 80.5t59.5 76t66 53.5t71.5 22zM285 909q39 0 78 -21t69.5 -55t58.5 -74.5t48 -81.5t35 -75
t22 -55l8 -21q-117 148 -319 148q-49 0 -88 30t-39 76q0 53 33.5 91t93.5 38zM643 1214q38 -37 48.5 -102t-2.5 -131t-31.5 -126.5t-35.5 -98.5l-18 -39q20 191 -125 330q-35 35 -42 81.5t24 83.5q23 23 53 34t65 3.5t64 -35.5z" />
    <glyph glyph-name="five" unicode="5" horiz-adv-x="313" 
d="M154 -8q-78 0 -101 35t-12 112l84 596h121l-86 -612q-4 -25 10 -25t18 25l95 674q3 24 -19 24q-23 0 -45 -24h-86l103 739h270l-78 -561h-121l64 455h-29l-76 -545l2 3q3 4 6.5 8t9 9t12 9t15.5 7t19 3q52 0 66 -36.5t3 -115.5l-88 -633q-11 -77 -45 -112t-112 -35z" />
    <glyph glyph-name="six" unicode="6" horiz-adv-x="311" 
d="M154 -8q-78 0 -102 35.5t-13 111.5l176 1258q11 77 44.5 112t111.5 35t101.5 -35t12.5 -112l-59 -430h-121l64 446q2 25 -13 25q-14 0 -16 -25l-76 -526l4 4q3 4 6 7.5t9 8.5t12.5 8.5t15.5 6t19 2.5q50 0 65 -36.5t4 -113.5l-90 -635q-11 -77 -44 -112t-111 -35zM168 98
q14 0 18 25l95 678q2 11 -0.5 17t-4.5 6.5t-6 0.5h-3t-4 -1t-4.5 -3.5t-3.5 -7.5t-3 -12l-94 -678q-4 -25 10 -25z" />
    <glyph glyph-name="seven" unicode="7" horiz-adv-x="301" 
d="M53 0q33 237 76.5 418.5t77 267.5t65.5 183.5t45 185.5l54 375h-29l-63 -449h-121l78 555h270l-68 -481q-13 -90 -36 -169.5t-50 -152.5t-56.5 -161.5t-62 -236t-59.5 -335.5h-121z" />
    <glyph glyph-name="eight" unicode="8" horiz-adv-x="311" 
d="M154 -8q-78 0 -102 35.5t-13 111.5l80 563q7 78 63 105q-46 25 -35 104l68 486q11 77 44.5 112t111.5 35t101 -35t13 -112l-67 -486q-11 -79 -68 -104q50 -24 39 -105l-80 -563q-11 -77 -44 -112t-111 -35zM274 862q16 0 21 31l74 520q2 25 -13 25q-14 0 -16 -25
l-74 -520q-5 -31 8 -31zM168 98q14 0 18 25l84 598q3 30 -10 33q-15 -3 -18 -33l-84 -598q-4 -25 10 -25z" />
    <glyph glyph-name="nine" unicode="9" horiz-adv-x="313" 
d="M154 -8q-78 0 -101 35t-12 112l59 428h121l-61 -444q-4 -25 10 -25t18 25l72 524q-2 -5 -8 -12t-22 -16t-35 -9q-50 0 -64.5 36.5t-3.5 113.5l90 637q11 77 44.5 112t111.5 35t101.5 -35t12.5 -112l-176 -1258q-11 -77 -45 -112t-112 -35zM256 711h3t3.5 1t4 3t3 6.5
t2.5 11.5l97 680q2 25 -13 25q-12 0 -16 -25l-96 -680q0 -9 -0.5 -13.5t3.5 -6.5t5 -2h4z" />
    <glyph glyph-name="colon" unicode=":" horiz-adv-x="169" 
d="M158 967l16 127h127l-18 -127h-125zM20 0l19 127h127l-19 -127h-127z" />
    <glyph glyph-name="semicolon" unicode=";" horiz-adv-x="169" 
d="M158 967l16 127h127l-18 -127h-125zM20 0l19 127h127l-19 -127l-92 -166h-57l72 166h-50z" />
    <glyph glyph-name="less" unicode="&#x3c;" 
d="M207 403q-13 0 -19 -2v-200q4 -2 19 -2q37 0 50 25t13 77q0 54 -13 78t-50 24zM518 330v-49h-82v-78h96v-49h-155v297h155v-52h-96v-69h82zM203 150q-47 0 -74 4v292q61 9 76 9q67 0 96 -37.5t29 -116.5t-29.5 -115t-97.5 -36zM586 451h80l39 -164l38 164h82
q3 -45 13 -297h-60q0 108 -6 213l-41 -168h-55l-41 168h-2q-4 -140 -4 -213h-58q3 156 15 297zM987 150q-60 0 -84 35.5t-24 115.5q0 81 24 117.5t84 36.5t85.5 -37t25.5 -117q0 -79 -25.5 -115t-85.5 -36zM987 403q-29 0 -39 -23.5t-10 -78.5q0 -54 10 -78t39 -24
q30 0 40.5 24t10.5 78q0 55 -10 78.5t-41 23.5zM967 1016q49 0 79.5 -24.5t39 -51t8.5 -53.5q0 -43 -34.5 -72.5t-72.5 -34.5q-213 -23 -340 -147q3 8 9 22t25 53.5t39 75.5t50 80.5t59.5 76t66 53.5t71.5 22zM285 909q39 0 78 -21t69.5 -55t58.5 -74.5t48 -81.5t35 -75
t22 -55l8 -21q-117 148 -319 148q-49 0 -88 30t-39 76q0 53 33.5 91t93.5 38zM643 1214q38 -37 48.5 -102t-2.5 -131t-31.5 -126.5t-35.5 -98.5l-18 -39q20 191 -125 330q-35 35 -42 81.5t24 83.5q23 23 53 34t65 3.5t64 -35.5z" />
    <glyph glyph-name="equal" unicode="=" 
d="M207 403q-13 0 -19 -2v-200q4 -2 19 -2q37 0 50 25t13 77q0 54 -13 78t-50 24zM518 330v-49h-82v-78h96v-49h-155v297h155v-52h-96v-69h82zM203 150q-47 0 -74 4v292q61 9 76 9q67 0 96 -37.5t29 -116.5t-29.5 -115t-97.5 -36zM586 451h80l39 -164l38 164h82
q3 -45 13 -297h-60q0 108 -6 213l-41 -168h-55l-41 168h-2q-4 -140 -4 -213h-58q3 156 15 297zM987 150q-60 0 -84 35.5t-24 115.5q0 81 24 117.5t84 36.5t85.5 -37t25.5 -117q0 -79 -25.5 -115t-85.5 -36zM987 403q-29 0 -39 -23.5t-10 -78.5q0 -54 10 -78t39 -24
q30 0 40.5 24t10.5 78q0 55 -10 78.5t-41 23.5zM967 1016q49 0 79.5 -24.5t39 -51t8.5 -53.5q0 -43 -34.5 -72.5t-72.5 -34.5q-213 -23 -340 -147q3 8 9 22t25 53.5t39 75.5t50 80.5t59.5 76t66 53.5t71.5 22zM285 909q39 0 78 -21t69.5 -55t58.5 -74.5t48 -81.5t35 -75
t22 -55l8 -21q-117 148 -319 148q-49 0 -88 30t-39 76q0 53 33.5 91t93.5 38zM643 1214q38 -37 48.5 -102t-2.5 -131t-31.5 -126.5t-35.5 -98.5l-18 -39q20 191 -125 330q-35 35 -42 81.5t24 83.5q23 23 53 34t65 3.5t64 -35.5z" />
    <glyph glyph-name="greater" unicode="&#x3e;" 
d="M207 403q-13 0 -19 -2v-200q4 -2 19 -2q37 0 50 25t13 77q0 54 -13 78t-50 24zM518 330v-49h-82v-78h96v-49h-155v297h155v-52h-96v-69h82zM203 150q-47 0 -74 4v292q61 9 76 9q67 0 96 -37.5t29 -116.5t-29.5 -115t-97.5 -36zM586 451h80l39 -164l38 164h82
q3 -45 13 -297h-60q0 108 -6 213l-41 -168h-55l-41 168h-2q-4 -140 -4 -213h-58q3 156 15 297zM987 150q-60 0 -84 35.5t-24 115.5q0 81 24 117.5t84 36.5t85.5 -37t25.5 -117q0 -79 -25.5 -115t-85.5 -36zM987 403q-29 0 -39 -23.5t-10 -78.5q0 -54 10 -78t39 -24
q30 0 40.5 24t10.5 78q0 55 -10 78.5t-41 23.5zM967 1016q49 0 79.5 -24.5t39 -51t8.5 -53.5q0 -43 -34.5 -72.5t-72.5 -34.5q-213 -23 -340 -147q3 8 9 22t25 53.5t39 75.5t50 80.5t59.5 76t66 53.5t71.5 22zM285 909q39 0 78 -21t69.5 -55t58.5 -74.5t48 -81.5t35 -75
t22 -55l8 -21q-117 148 -319 148q-49 0 -88 30t-39 76q0 53 33.5 91t93.5 38zM643 1214q38 -37 48.5 -102t-2.5 -131t-31.5 -126.5t-35.5 -98.5l-18 -39q20 191 -125 330q-35 35 -42 81.5t24 83.5q23 23 53 34t65 3.5t64 -35.5z" />
    <glyph glyph-name="question" unicode="?" horiz-adv-x="313" 
d="M131 272l57 398q8 60 30 94t67 49l84 600q4 25 -13 25q-12 0 -16 -25l-74 -526h-121l72 508q11 77 44.5 113t111.5 36t101.5 -36t12.5 -113l-77 -547q-8 -60 -30 -94.5t-67 -51.5l-61 -430h-121zM92 0l17 125h127l-19 -125h-125z" />
    <glyph glyph-name="at" unicode="@" 
d="M207 403q-13 0 -19 -2v-200q4 -2 19 -2q37 0 50 25t13 77q0 54 -13 78t-50 24zM518 330v-49h-82v-78h96v-49h-155v297h155v-52h-96v-69h82zM203 150q-47 0 -74 4v292q61 9 76 9q67 0 96 -37.5t29 -116.5t-29.5 -115t-97.5 -36zM586 451h80l39 -164l38 164h82
q3 -45 13 -297h-60q0 108 -6 213l-41 -168h-55l-41 168h-2q-4 -140 -4 -213h-58q3 156 15 297zM987 150q-60 0 -84 35.5t-24 115.5q0 81 24 117.5t84 36.5t85.5 -37t25.5 -117q0 -79 -25.5 -115t-85.5 -36zM987 403q-29 0 -39 -23.5t-10 -78.5q0 -54 10 -78t39 -24
q30 0 40.5 24t10.5 78q0 55 -10 78.5t-41 23.5zM967 1016q49 0 79.5 -24.5t39 -51t8.5 -53.5q0 -43 -34.5 -72.5t-72.5 -34.5q-213 -23 -340 -147q3 8 9 22t25 53.5t39 75.5t50 80.5t59.5 76t66 53.5t71.5 22zM285 909q39 0 78 -21t69.5 -55t58.5 -74.5t48 -81.5t35 -75
t22 -55l8 -21q-117 148 -319 148q-49 0 -88 30t-39 76q0 53 33.5 91t93.5 38zM643 1214q38 -37 48.5 -102t-2.5 -131t-31.5 -126.5t-35.5 -98.5l-18 -39q20 191 -125 330q-35 35 -42 81.5t24 83.5q23 23 53 34t65 3.5t64 -35.5z" />
    <glyph glyph-name="A" unicode="A" horiz-adv-x="315" 
d="M10 0l256 1536h215l-176 -1536h-121l56 446h-39l-70 -446h-121zM219 553h33l86 688l27 189h-13l-26 -189z" />
    <glyph glyph-name="B" unicode="B" horiz-adv-x="313" 
d="M20 0l216 1536h120q81 0 110.5 -38t18.5 -120l-65 -467q-14 -81 -70 -104q53 -26 39 -105l-76 -544q-12 -82 -51.5 -120t-120.5 -38h-121zM262 860q9 0 14.5 2t12 14t10.5 37l63 463q6 26 1.5 38t-8.5 14t-13 2zM156 106q9 0 14.5 2t12 14.5t10.5 37.5l75 540q6 26 1 38
t-9.5 14t-13.5 2z" />
    <glyph glyph-name="C" unicode="C" horiz-adv-x="311" 
d="M154 -8q-78 0 -101 35t-12 112l176 1258q10 76 44 111.5t112 35.5t101 -35t13 -112l-79 -568h-121l82 584q4 25 -11 25q-14 0 -18 -25l-182 -1290q-2 -25 12 -25t16 25l95 670h120l-90 -654q-11 -77 -45 -112t-112 -35z" />
    <glyph glyph-name="D" unicode="D" horiz-adv-x="311" 
d="M20 0l216 1536h120q81 0 110.5 -38t18.5 -120l-172 -1220q-11 -81 -51 -119.5t-121 -38.5h-121zM156 106q9 0 14.5 2t12 14.5t10.5 37.5l169 1216q6 26 1.5 38t-8.5 14t-13 2z" />
    <glyph glyph-name="E" unicode="E" horiz-adv-x="249" 
d="M20 0l216 1536h208l-14 -106h-88l-80 -566h82l-14 -106h-82l-92 -652h98l-14 -106h-220z" />
    <glyph glyph-name="F" unicode="F" horiz-adv-x="239" 
d="M20 0l216 1536h208l-14 -106h-88l-80 -566h82l-14 -106h-82l-107 -758h-121z" />
    <glyph glyph-name="G" unicode="G" horiz-adv-x="311" 
d="M125 -8q-105 0 -90 117l182 1288q10 76 44 111.5t112 35.5t101 -35t13 -112l-69 -496h-121l72 512q4 25 -11 25q-14 0 -18 -25l-182 -1292q-2 -23 12 -23t16 23l90 633h-16l16 110h136l-121 -864h-62l-14 49q-9 -22 -32 -39.5t-58 -17.5z" />
    <glyph glyph-name="H" unicode="H" horiz-adv-x="311" 
d="M20 0l216 1536h120l-94 -678h29l94 678h121l-215 -1536h-121l106 752h-28l-107 -752h-121z" />
    <glyph glyph-name="I" unicode="I" horiz-adv-x="161" 
d="M20 0l216 1536h120l-215 -1536h-121z" />
    <glyph glyph-name="J" unicode="J" horiz-adv-x="311" 
d="M154 -12q-78 0 -102 36t-13 113l84 602h121l-86 -620q-4 -25 10 -25t18 25l185 1311h-148l15 106h268l-197 -1399q-11 -77 -44.5 -113t-110.5 -36z" />
    <glyph glyph-name="K" unicode="K" horiz-adv-x="311" 
d="M20 0l216 1536h120l-94 -676q9 0 14.5 2t12 14t10.5 37l86 623h121l-86 -625q-11 -79 -68 -104q48 -25 37 -105l-98 -702h-121l98 700q6 26 1.5 38t-8.5 14t-13 2l-107 -754h-121z" />
    <glyph glyph-name="L" unicode="L" horiz-adv-x="229" 
d="M20 0l216 1536h120l-200 -1430h80l-17 -106h-199z" />
    <glyph glyph-name="M" unicode="M" horiz-adv-x="497" 
d="M20 0l216 1536h198l-145 -1212l-29 -193h12l27 193l195 1212h198l-215 -1536h-127l228 1405h-13l-248 -1405h-139l148 1405h-13l-166 -1405h-127z" />
    <glyph glyph-name="N" unicode="N" horiz-adv-x="370" 
d="M20 0l218 1536h170l-144 -1405h12l164 1405h127l-215 -1536h-174l146 1405h-13l-161 -1405h-130z" />
    <glyph glyph-name="O" unicode="O" horiz-adv-x="311" 
d="M154 -8q-78 0 -101 35t-12 112l176 1258q10 76 44 111.5t112 35.5t101 -35t13 -112l-176 -1258q-11 -77 -45 -112t-112 -35zM170 98q14 0 16 25l183 1290q4 25 -11 25q-14 0 -18 -25l-182 -1290q-2 -25 12 -25z" />
    <glyph glyph-name="P" unicode="P" horiz-adv-x="311" 
d="M20 0l216 1536h120q81 0 110.5 -38t18.5 -120l-92 -645q-11 -82 -51 -121t-121 -39l-80 -573h-121zM238 682q9 0 14 2t11 14t9 37l90 641q6 26 1.5 38t-8.5 14t-13 2z" />
    <glyph glyph-name="Q" unicode="Q" horiz-adv-x="311" 
d="M141 -8q-69 3 -90.5 38.5t-11.5 108.5l176 1258q11 77 44.5 112t111.5 35t101.5 -35t12.5 -112l-176 -1258q-13 -89 -55 -121l25 -90h-121zM168 98q14 0 18 25l183 1290q2 25 -13 25q-14 0 -16 -25l-182 -1290q-4 -25 10 -25z" />
    <glyph glyph-name="R" unicode="R" horiz-adv-x="311" 
d="M20 0l216 1536h120q81 0 110.5 -38t18.5 -120l-65 -467q-11 -79 -68 -104q48 -25 37 -105l-98 -702h-121l98 700q6 26 1.5 38t-8.5 14t-13 2l-107 -754h-121zM262 860q9 0 14.5 2t12 14t10.5 37l63 463q6 26 1.5 38t-8.5 14t-13 2z" />
    <glyph glyph-name="S" unicode="S" horiz-adv-x="311" 
d="M154 -8q-78 0 -101 35t-12 112l74 535h121l-78 -551q-2 -25 12 -25t16 25l80 559q4 33 -5 49.5t-42 40.5q-47 30 -61 68t-4 112l63 445q10 76 44 111.5t112 35.5t101 -35t13 -112l-65 -467h-121l68 483q4 25 -11 25q-14 0 -18 -25l-66 -469q-4 -34 4.5 -51t40.5 -39
q47 -32 61.5 -70.5t4.5 -111.5l-74 -533q-11 -77 -45 -112t-112 -35z" />
    <glyph glyph-name="T" unicode="T" horiz-adv-x="286" 
d="M84 0l201 1430h-72l14 106h265l-15 -106h-71l-201 -1430h-121z" />
    <glyph glyph-name="U" unicode="U" horiz-adv-x="311" 
d="M154 -8q-78 0 -101 35t-12 112l195 1397h120l-198 -1413q-2 -25 12 -25t16 25l199 1413h121l-195 -1397q-11 -77 -45 -112t-112 -35z" />
    <glyph glyph-name="V" unicode="V" horiz-adv-x="317" 
d="M53 0l174 1536h121l-153 -1241l-27 -189h12l27 189l194 1241h121l-256 -1536h-213z" />
    <glyph glyph-name="W" unicode="W" horiz-adv-x="516" 
d="M51 0l176 1536h121l-153 -1241l-27 -189h12l27 189l188 1241h158l-160 -1241l-26 -189h12l27 189l194 1241h121l-256 -1536h-191l191 1430h-10l-213 -1430h-191z" />
    <glyph glyph-name="X" unicode="X" horiz-adv-x="313" 
d="M20 0l101 711q11 74 63 98q-48 23 -37 96l89 631h120l-90 -651q-3 -23 10 -23q16 0 19 23l90 651h121l-88 -631q-7 -73 -66 -96q50 -26 39 -98l-100 -711h-121l102 731q6 25 -10 25q-12 0 -18 -25l-103 -731h-121z" />
    <glyph glyph-name="Y" unicode="Y" horiz-adv-x="311" 
d="M94 0l80 575q-39 13 -50 47t-3 95l115 819h120l-116 -838q-5 -24 10 -24q13 0 18 24l117 838h121l-115 -819q-8 -60 -30 -94.5t-66 -47.5l-80 -575h-121z" />
    <glyph glyph-name="Z" unicode="Z" horiz-adv-x="235" 
d="M12 0l6 49l291 1381h-94l14 106h213l-8 -49l-291 -1381h95l-17 -106h-209z" />
    <glyph glyph-name="bracketleft" unicode="[" 
d="M207 403q-13 0 -19 -2v-200q4 -2 19 -2q37 0 50 25t13 77q0 54 -13 78t-50 24zM518 330v-49h-82v-78h96v-49h-155v297h155v-52h-96v-69h82zM203 150q-47 0 -74 4v292q61 9 76 9q67 0 96 -37.5t29 -116.5t-29.5 -115t-97.5 -36zM586 451h80l39 -164l38 164h82
q3 -45 13 -297h-60q0 108 -6 213l-41 -168h-55l-41 168h-2q-4 -140 -4 -213h-58q3 156 15 297zM987 150q-60 0 -84 35.5t-24 115.5q0 81 24 117.5t84 36.5t85.5 -37t25.5 -117q0 -79 -25.5 -115t-85.5 -36zM987 403q-29 0 -39 -23.5t-10 -78.5q0 -54 10 -78t39 -24
q30 0 40.5 24t10.5 78q0 55 -10 78.5t-41 23.5zM967 1016q49 0 79.5 -24.5t39 -51t8.5 -53.5q0 -43 -34.5 -72.5t-72.5 -34.5q-213 -23 -340 -147q3 8 9 22t25 53.5t39 75.5t50 80.5t59.5 76t66 53.5t71.5 22zM285 909q39 0 78 -21t69.5 -55t58.5 -74.5t48 -81.5t35 -75
t22 -55l8 -21q-117 148 -319 148q-49 0 -88 30t-39 76q0 53 33.5 91t93.5 38zM643 1214q38 -37 48.5 -102t-2.5 -131t-31.5 -126.5t-35.5 -98.5l-18 -39q20 191 -125 330q-35 35 -42 81.5t24 83.5q23 23 53 34t65 3.5t64 -35.5z" />
    <glyph glyph-name="backslash" unicode="\" 
d="M207 403q-13 0 -19 -2v-200q4 -2 19 -2q37 0 50 25t13 77q0 54 -13 78t-50 24zM518 330v-49h-82v-78h96v-49h-155v297h155v-52h-96v-69h82zM203 150q-47 0 -74 4v292q61 9 76 9q67 0 96 -37.5t29 -116.5t-29.5 -115t-97.5 -36zM586 451h80l39 -164l38 164h82
q3 -45 13 -297h-60q0 108 -6 213l-41 -168h-55l-41 168h-2q-4 -140 -4 -213h-58q3 156 15 297zM987 150q-60 0 -84 35.5t-24 115.5q0 81 24 117.5t84 36.5t85.5 -37t25.5 -117q0 -79 -25.5 -115t-85.5 -36zM987 403q-29 0 -39 -23.5t-10 -78.5q0 -54 10 -78t39 -24
q30 0 40.5 24t10.5 78q0 55 -10 78.5t-41 23.5zM967 1016q49 0 79.5 -24.5t39 -51t8.5 -53.5q0 -43 -34.5 -72.5t-72.5 -34.5q-213 -23 -340 -147q3 8 9 22t25 53.5t39 75.5t50 80.5t59.5 76t66 53.5t71.5 22zM285 909q39 0 78 -21t69.5 -55t58.5 -74.5t48 -81.5t35 -75
t22 -55l8 -21q-117 148 -319 148q-49 0 -88 30t-39 76q0 53 33.5 91t93.5 38zM643 1214q38 -37 48.5 -102t-2.5 -131t-31.5 -126.5t-35.5 -98.5l-18 -39q20 191 -125 330q-35 35 -42 81.5t24 83.5q23 23 53 34t65 3.5t64 -35.5z" />
    <glyph glyph-name="bracketright" unicode="]" 
d="M207 403q-13 0 -19 -2v-200q4 -2 19 -2q37 0 50 25t13 77q0 54 -13 78t-50 24zM518 330v-49h-82v-78h96v-49h-155v297h155v-52h-96v-69h82zM203 150q-47 0 -74 4v292q61 9 76 9q67 0 96 -37.5t29 -116.5t-29.5 -115t-97.5 -36zM586 451h80l39 -164l38 164h82
q3 -45 13 -297h-60q0 108 -6 213l-41 -168h-55l-41 168h-2q-4 -140 -4 -213h-58q3 156 15 297zM987 150q-60 0 -84 35.5t-24 115.5q0 81 24 117.5t84 36.5t85.5 -37t25.5 -117q0 -79 -25.5 -115t-85.5 -36zM987 403q-29 0 -39 -23.5t-10 -78.5q0 -54 10 -78t39 -24
q30 0 40.5 24t10.5 78q0 55 -10 78.5t-41 23.5zM967 1016q49 0 79.5 -24.5t39 -51t8.5 -53.5q0 -43 -34.5 -72.5t-72.5 -34.5q-213 -23 -340 -147q3 8 9 22t25 53.5t39 75.5t50 80.5t59.5 76t66 53.5t71.5 22zM285 909q39 0 78 -21t69.5 -55t58.5 -74.5t48 -81.5t35 -75
t22 -55l8 -21q-117 148 -319 148q-49 0 -88 30t-39 76q0 53 33.5 91t93.5 38zM643 1214q38 -37 48.5 -102t-2.5 -131t-31.5 -126.5t-35.5 -98.5l-18 -39q20 191 -125 330q-35 35 -42 81.5t24 83.5q23 23 53 34t65 3.5t64 -35.5z" />
    <glyph glyph-name="asciicircum" unicode="^" 
d="M207 403q-13 0 -19 -2v-200q4 -2 19 -2q37 0 50 25t13 77q0 54 -13 78t-50 24zM518 330v-49h-82v-78h96v-49h-155v297h155v-52h-96v-69h82zM203 150q-47 0 -74 4v292q61 9 76 9q67 0 96 -37.5t29 -116.5t-29.5 -115t-97.5 -36zM586 451h80l39 -164l38 164h82
q3 -45 13 -297h-60q0 108 -6 213l-41 -168h-55l-41 168h-2q-4 -140 -4 -213h-58q3 156 15 297zM987 150q-60 0 -84 35.5t-24 115.5q0 81 24 117.5t84 36.5t85.5 -37t25.5 -117q0 -79 -25.5 -115t-85.5 -36zM987 403q-29 0 -39 -23.5t-10 -78.5q0 -54 10 -78t39 -24
q30 0 40.5 24t10.5 78q0 55 -10 78.5t-41 23.5zM967 1016q49 0 79.5 -24.5t39 -51t8.5 -53.5q0 -43 -34.5 -72.5t-72.5 -34.5q-213 -23 -340 -147q3 8 9 22t25 53.5t39 75.5t50 80.5t59.5 76t66 53.5t71.5 22zM285 909q39 0 78 -21t69.5 -55t58.5 -74.5t48 -81.5t35 -75
t22 -55l8 -21q-117 148 -319 148q-49 0 -88 30t-39 76q0 53 33.5 91t93.5 38zM643 1214q38 -37 48.5 -102t-2.5 -131t-31.5 -126.5t-35.5 -98.5l-18 -39q20 191 -125 330q-35 35 -42 81.5t24 83.5q23 23 53 34t65 3.5t64 -35.5z" />
    <glyph glyph-name="underscore" unicode="_" 
d="M207 403q-13 0 -19 -2v-200q4 -2 19 -2q37 0 50 25t13 77q0 54 -13 78t-50 24zM518 330v-49h-82v-78h96v-49h-155v297h155v-52h-96v-69h82zM203 150q-47 0 -74 4v292q61 9 76 9q67 0 96 -37.5t29 -116.5t-29.5 -115t-97.5 -36zM586 451h80l39 -164l38 164h82
q3 -45 13 -297h-60q0 108 -6 213l-41 -168h-55l-41 168h-2q-4 -140 -4 -213h-58q3 156 15 297zM987 150q-60 0 -84 35.5t-24 115.5q0 81 24 117.5t84 36.5t85.5 -37t25.5 -117q0 -79 -25.5 -115t-85.5 -36zM987 403q-29 0 -39 -23.5t-10 -78.5q0 -54 10 -78t39 -24
q30 0 40.5 24t10.5 78q0 55 -10 78.5t-41 23.5zM967 1016q49 0 79.5 -24.5t39 -51t8.5 -53.5q0 -43 -34.5 -72.5t-72.5 -34.5q-213 -23 -340 -147q3 8 9 22t25 53.5t39 75.5t50 80.5t59.5 76t66 53.5t71.5 22zM285 909q39 0 78 -21t69.5 -55t58.5 -74.5t48 -81.5t35 -75
t22 -55l8 -21q-117 148 -319 148q-49 0 -88 30t-39 76q0 53 33.5 91t93.5 38zM643 1214q38 -37 48.5 -102t-2.5 -131t-31.5 -126.5t-35.5 -98.5l-18 -39q20 191 -125 330q-35 35 -42 81.5t24 83.5q23 23 53 34t65 3.5t64 -35.5z" />
    <glyph glyph-name="grave" unicode="`" 
d="M207 403q-13 0 -19 -2v-200q4 -2 19 -2q37 0 50 25t13 77q0 54 -13 78t-50 24zM518 330v-49h-82v-78h96v-49h-155v297h155v-52h-96v-69h82zM203 150q-47 0 -74 4v292q61 9 76 9q67 0 96 -37.5t29 -116.5t-29.5 -115t-97.5 -36zM586 451h80l39 -164l38 164h82
q3 -45 13 -297h-60q0 108 -6 213l-41 -168h-55l-41 168h-2q-4 -140 -4 -213h-58q3 156 15 297zM987 150q-60 0 -84 35.5t-24 115.5q0 81 24 117.5t84 36.5t85.5 -37t25.5 -117q0 -79 -25.5 -115t-85.5 -36zM987 403q-29 0 -39 -23.5t-10 -78.5q0 -54 10 -78t39 -24
q30 0 40.5 24t10.5 78q0 55 -10 78.5t-41 23.5zM967 1016q49 0 79.5 -24.5t39 -51t8.5 -53.5q0 -43 -34.5 -72.5t-72.5 -34.5q-213 -23 -340 -147q3 8 9 22t25 53.5t39 75.5t50 80.5t59.5 76t66 53.5t71.5 22zM285 909q39 0 78 -21t69.5 -55t58.5 -74.5t48 -81.5t35 -75
t22 -55l8 -21q-117 148 -319 148q-49 0 -88 30t-39 76q0 53 33.5 91t93.5 38zM643 1214q38 -37 48.5 -102t-2.5 -131t-31.5 -126.5t-35.5 -98.5l-18 -39q20 191 -125 330q-35 35 -42 81.5t24 83.5q23 23 53 34t65 3.5t64 -35.5z" />
    <glyph glyph-name="a" unicode="a" horiz-adv-x="301" 
d="M104 -8q-84 0 -69 117l63 450q11 75 45 110.5t105 35.5h14l41 278q2 25 -12 25q-15 0 -17 -25l-36 -250h-115l33 228q9 71 44 106t105 35t95 -35t14 -106l-135 -961h-84l-13 51q-8 -22 -28 -40.5t-50 -18.5zM162 86q14 0 18 23l70 501h-14q-4 0 -6 -0.5t-6.5 -6
t-6.5 -15.5l-65 -479q-4 -23 10 -23z" />
    <glyph glyph-name="b" unicode="b" horiz-adv-x="301" 
d="M20 0l216 1536h114l-65 -485q6 18 22.5 34.5t42.5 16.5q86 0 68 -117l-123 -876q-18 -117 -102 -117q-31 0 -45.5 18t-16.5 39l-29 -49h-82zM162 86q14 0 18 23l121 874q4 23 -10 23q-15 0 -19 -23l-120 -874q-4 -23 10 -23z" />
    <glyph glyph-name="c" unicode="c" horiz-adv-x="301" 
d="M150 -8q-70 0 -95 34t-14 107l115 825q11 73 45 108.5t104 35.5t95 -35.5t16 -108.5l-51 -368h-117l55 393q4 23 -10 23q-15 0 -19 -23l-122 -874q-2 -23 12 -23t16 23l64 444h114l-59 -420q-9 -72 -44 -106.5t-105 -34.5z" />
    <glyph glyph-name="d" unicode="d" horiz-adv-x="301" 
d="M106 -8q-45 0 -62 29t-9 88l125 876q8 60 32 88.5t70 28.5q24 0 36.5 -15t14.5 -32l68 481h115l-215 -1536h-84l-15 49q-6 -20 -26 -38.5t-50 -18.5zM162 86q14 0 18 23l123 874q2 23 -12 23q-15 0 -17 -23l-122 -874q-4 -23 10 -23z" />
    <glyph glyph-name="e" unicode="e" horiz-adv-x="301" 
d="M150 -8q-70 0 -95 34.5t-16 106.5l117 825q9 73 44 108.5t105 35.5t95 -35.5t16 -108.5l-66 -458h-143l-55 -389q-4 -25 10 -25t18 25l49 354h117l-47 -332q-11 -72 -45 -106.5t-104 -34.5zM217 582h29l57 401q2 23 -12 23q-15 0 -17 -23z" />
    <glyph glyph-name="f" unicode="f" horiz-adv-x="225" 
d="M51 0l142 1006h-39l12 86h39l45 329q9 61 36.5 88t86.5 27h55l-12 -96h-33q-13 0 -16 -15l-48 -333h48l-13 -86h-47l-141 -1006h-115z" />
    <glyph glyph-name="g" unicode="g" horiz-adv-x="303" 
d="M104 -8q-44 0 -60.5 28.5t-8.5 88.5l123 876q9 60 34 88.5t70 28.5q30 0 44 -18.5t16 -41.5l26 52h84l-199 -1413q-9 -73 -44 -108.5t-105 -35.5t-95 35.5t-14 108.5l37 268h117l-43 -293q-2 -25 12 -25q13 0 17 25l55 381q-20 -45 -66 -45zM162 86q14 0 18 25l123 874
q2 23 -12 23q-15 0 -17 -23l-122 -874q-4 -25 10 -25z" />
    <glyph glyph-name="h" unicode="h" horiz-adv-x="301" 
d="M20 0l216 1536h114l-67 -481q6 17 23 32t42 15q44 0 61 -28.5t9 -88.5l-139 -985h-115l137 983q4 23 -10 23q-15 0 -19 -23l-137 -983h-115z" />
    <glyph glyph-name="i" unicode="i" horiz-adv-x="155" 
d="M190 1221l17 118h117l-17 -118h-117zM20 0l154 1092h117l-154 -1092h-117z" />
    <glyph glyph-name="j" unicode="j" horiz-adv-x="163" 
d="M197 1221l16 118h117l-17 -118h-116zM-92 -463l14 94h37q13 0 16 15l203 1446h115l-203 -1440q-8 -62 -35.5 -88.5t-85.5 -26.5h-61z" />
    <glyph glyph-name="k" unicode="k" horiz-adv-x="301" 
d="M350 1536l-125 -895h15q13 0 16 16l61 435h115l-57 -414q-5 -37 -26.5 -60.5t-61.5 -23.5q40 0 55 -23.5t8 -60.5l-71 -510h-115l74 530q3 17 -11 17h-14l-78 -547h-115l216 1536h114z" />
    <glyph glyph-name="l" unicode="l" horiz-adv-x="155" 
d="M135 0h-115l216 1536h116z" />
    <glyph glyph-name="m" unicode="m" horiz-adv-x="444" 
d="M18 0l154 1092h84l12 -50q9 22 29 41t51 19q56 0 68 -51q24 51 76 51q45 0 61 -29t8 -90l-139 -983h-115l137 983q4 23 -10 23t-18 -23l-137 -983h-115l137 983q4 23 -10 23q-15 0 -19 -23l-137 -983h-117z" />
    <glyph glyph-name="n" unicode="n" horiz-adv-x="301" 
d="M20 0l154 1092h82l14 -50q8 23 27.5 41.5t50.5 18.5q88 0 70 -119l-137 -983h-117l139 983q2 23 -12 23q-15 0 -17 -23l-139 -983h-115z" />
    <glyph glyph-name="o" unicode="o" horiz-adv-x="301" 
d="M147 -8q-70 0 -94.5 34t-13.5 107l117 825q9 73 44 108.5t105 35.5t95 -35.5t14 -108.5l-115 -825q-11 -72 -46.5 -106.5t-105.5 -34.5zM162 86q14 0 18 23l121 874q4 23 -10 23q-15 0 -19 -23l-120 -874q-4 -23 10 -23z" />
    <glyph glyph-name="p" unicode="p" horiz-adv-x="301" 
d="M193 -8q-25 0 -38.5 14.5t-13.5 30.5l-71 -500h-115l219 1555h82l14 -50q8 22 28 41t50 19q88 0 70 -119l-123 -877q-9 -59 -33.5 -86.5t-68.5 -27.5zM162 86q14 0 18 23l123 874q2 23 -12 23q-15 0 -17 -23l-122 -874q-4 -23 10 -23z" />
    <glyph glyph-name="q" unicode="q" horiz-adv-x="301" 
d="M104 -8q-87 0 -69 114l123 877q18 119 104 119q30 0 45 -19t15 -41l28 50h84l-219 -1555h-117l72 500q-5 -16 -23 -30.5t-43 -14.5zM162 86q14 0 18 23l123 874q2 23 -12 23q-15 0 -17 -23l-122 -874q-4 -23 10 -23z" />
    <glyph glyph-name="r" unicode="r" horiz-adv-x="301" 
d="M20 0l154 1092h82l14 -50q8 23 27.5 41.5t50.5 18.5q88 0 70 -119l-56 -389h-114l55 389q2 23 -12 23q-15 0 -17 -23l-139 -983h-115z" />
    <glyph glyph-name="s" unicode="s" horiz-adv-x="301" 
d="M147 -8q-70 0 -94.5 35t-13.5 106l43 316h117l-47 -340q-4 -23 10 -23t18 23l47 346q1 6 1 11t-1 10t-2 8t-5 7.5t-5.5 6.5t-7.5 6.5t-8.5 6.5t-11 7.5t-11.5 7.5q-42 29 -55.5 61t-3.5 101l39 273q9 71 44 106t105 35t95 -35t14 -106l-39 -283h-115l43 307q2 23 -12 23
q-15 0 -17 -23l-43 -305q-1 -6 -1 -11t1.5 -10t2 -8.5t4.5 -8t6 -6.5t8.5 -7t9 -7t11.5 -8l12 -8q40 -26 53.5 -56.5t3.5 -100.5l-43 -316q-11 -71 -46.5 -106t-105.5 -35z" />
    <glyph glyph-name="t" unicode="t" horiz-adv-x="223" 
d="M158 0q-58 0 -78 26.5t-12 88.5l125 891h-39l12 86h39l39 270h114l-36 -270h47l-13 -86h-47l-127 -897q0 -15 13 -15h32l-12 -94h-57z" />
    <glyph glyph-name="u" unicode="u" horiz-adv-x="301" 
d="M106 -8q-87 0 -69 117l137 983h117l-139 -983q-2 -23 12 -23t16 23l139 983h115l-153 -1092h-84l-15 49q-6 -20 -26 -38.5t-50 -18.5z" />
    <glyph glyph-name="v" unicode="v" horiz-adv-x="296" 
d="M49 0l115 1092h117l-93 -766l-28 -217h10l29 217l125 766h116l-194 -1092h-197z" />
    <glyph glyph-name="w" unicode="w" horiz-adv-x="489" 
d="M49 0l117 1092h117l-93 -766l-30 -217h10l31 217l125 766h147l-90 -766l-31 -217h10l31 217l123 766h117l-191 -1092h-182l127 983h-8l-29 -217l-119 -766h-182z" />
    <glyph glyph-name="x" unicode="x" horiz-adv-x="301" 
d="M20 0l72 510q11 81 84 84q-68 2 -61 84l59 414h115l-62 -435q0 -16 13 -16t16 16l61 435h117l-59 -414q-11 -81 -84 -84q72 -3 61 -84l-71 -510h-117l76 530q3 17 -13 17q-13 0 -16 -17l-76 -530h-115z" />
    <glyph glyph-name="y" unicode="y" horiz-adv-x="303" 
d="M106 -8q-45 0 -61.5 28.5t-7.5 88.5l137 985h117l-139 -983q-2 -25 12 -25t16 25l139 983h115l-198 -1413q-9 -73 -44.5 -108.5t-105.5 -35.5t-95 35.5t-16 108.5l39 268h115l-41 -293q-4 -25 10 -25q15 0 19 25l53 381q-5 -16 -22.5 -30.5t-41.5 -14.5z" />
    <glyph glyph-name="z" unicode="z" horiz-adv-x="223" 
d="M12 0l6 49l224 946h-90l14 97h201l-7 -50l-223 -946h90l-14 -96h-201z" />
    <glyph glyph-name="braceleft" unicode="{" 
d="M207 403q-13 0 -19 -2v-200q4 -2 19 -2q37 0 50 25t13 77q0 54 -13 78t-50 24zM518 330v-49h-82v-78h96v-49h-155v297h155v-52h-96v-69h82zM203 150q-47 0 -74 4v292q61 9 76 9q67 0 96 -37.5t29 -116.5t-29.5 -115t-97.5 -36zM586 451h80l39 -164l38 164h82
q3 -45 13 -297h-60q0 108 -6 213l-41 -168h-55l-41 168h-2q-4 -140 -4 -213h-58q3 156 15 297zM987 150q-60 0 -84 35.5t-24 115.5q0 81 24 117.5t84 36.5t85.5 -37t25.5 -117q0 -79 -25.5 -115t-85.5 -36zM987 403q-29 0 -39 -23.5t-10 -78.5q0 -54 10 -78t39 -24
q30 0 40.5 24t10.5 78q0 55 -10 78.5t-41 23.5zM967 1016q49 0 79.5 -24.5t39 -51t8.5 -53.5q0 -43 -34.5 -72.5t-72.5 -34.5q-213 -23 -340 -147q3 8 9 22t25 53.5t39 75.5t50 80.5t59.5 76t66 53.5t71.5 22zM285 909q39 0 78 -21t69.5 -55t58.5 -74.5t48 -81.5t35 -75
t22 -55l8 -21q-117 148 -319 148q-49 0 -88 30t-39 76q0 53 33.5 91t93.5 38zM643 1214q38 -37 48.5 -102t-2.5 -131t-31.5 -126.5t-35.5 -98.5l-18 -39q20 191 -125 330q-35 35 -42 81.5t24 83.5q23 23 53 34t65 3.5t64 -35.5z" />
    <glyph glyph-name="bar" unicode="|" 
d="M207 403q-13 0 -19 -2v-200q4 -2 19 -2q37 0 50 25t13 77q0 54 -13 78t-50 24zM518 330v-49h-82v-78h96v-49h-155v297h155v-52h-96v-69h82zM203 150q-47 0 -74 4v292q61 9 76 9q67 0 96 -37.5t29 -116.5t-29.5 -115t-97.5 -36zM586 451h80l39 -164l38 164h82
q3 -45 13 -297h-60q0 108 -6 213l-41 -168h-55l-41 168h-2q-4 -140 -4 -213h-58q3 156 15 297zM987 150q-60 0 -84 35.5t-24 115.5q0 81 24 117.5t84 36.5t85.5 -37t25.5 -117q0 -79 -25.5 -115t-85.5 -36zM987 403q-29 0 -39 -23.5t-10 -78.5q0 -54 10 -78t39 -24
q30 0 40.5 24t10.5 78q0 55 -10 78.5t-41 23.5zM967 1016q49 0 79.5 -24.5t39 -51t8.5 -53.5q0 -43 -34.5 -72.5t-72.5 -34.5q-213 -23 -340 -147q3 8 9 22t25 53.5t39 75.5t50 80.5t59.5 76t66 53.5t71.5 22zM285 909q39 0 78 -21t69.5 -55t58.5 -74.5t48 -81.5t35 -75
t22 -55l8 -21q-117 148 -319 148q-49 0 -88 30t-39 76q0 53 33.5 91t93.5 38zM643 1214q38 -37 48.5 -102t-2.5 -131t-31.5 -126.5t-35.5 -98.5l-18 -39q20 191 -125 330q-35 35 -42 81.5t24 83.5q23 23 53 34t65 3.5t64 -35.5z" />
    <glyph glyph-name="braceright" unicode="}" 
d="M207 403q-13 0 -19 -2v-200q4 -2 19 -2q37 0 50 25t13 77q0 54 -13 78t-50 24zM518 330v-49h-82v-78h96v-49h-155v297h155v-52h-96v-69h82zM203 150q-47 0 -74 4v292q61 9 76 9q67 0 96 -37.5t29 -116.5t-29.5 -115t-97.5 -36zM586 451h80l39 -164l38 164h82
q3 -45 13 -297h-60q0 108 -6 213l-41 -168h-55l-41 168h-2q-4 -140 -4 -213h-58q3 156 15 297zM987 150q-60 0 -84 35.5t-24 115.5q0 81 24 117.5t84 36.5t85.5 -37t25.5 -117q0 -79 -25.5 -115t-85.5 -36zM987 403q-29 0 -39 -23.5t-10 -78.5q0 -54 10 -78t39 -24
q30 0 40.5 24t10.5 78q0 55 -10 78.5t-41 23.5zM967 1016q49 0 79.5 -24.5t39 -51t8.5 -53.5q0 -43 -34.5 -72.5t-72.5 -34.5q-213 -23 -340 -147q3 8 9 22t25 53.5t39 75.5t50 80.5t59.5 76t66 53.5t71.5 22zM285 909q39 0 78 -21t69.5 -55t58.5 -74.5t48 -81.5t35 -75
t22 -55l8 -21q-117 148 -319 148q-49 0 -88 30t-39 76q0 53 33.5 91t93.5 38zM643 1214q38 -37 48.5 -102t-2.5 -131t-31.5 -126.5t-35.5 -98.5l-18 -39q20 191 -125 330q-35 35 -42 81.5t24 83.5q23 23 53 34t65 3.5t64 -35.5z" />
    <glyph glyph-name="asciitilde" unicode="~" 
d="M207 403q-13 0 -19 -2v-200q4 -2 19 -2q37 0 50 25t13 77q0 54 -13 78t-50 24zM518 330v-49h-82v-78h96v-49h-155v297h155v-52h-96v-69h82zM203 150q-47 0 -74 4v292q61 9 76 9q67 0 96 -37.5t29 -116.5t-29.5 -115t-97.5 -36zM586 451h80l39 -164l38 164h82
q3 -45 13 -297h-60q0 108 -6 213l-41 -168h-55l-41 168h-2q-4 -140 -4 -213h-58q3 156 15 297zM987 150q-60 0 -84 35.5t-24 115.5q0 81 24 117.5t84 36.5t85.5 -37t25.5 -117q0 -79 -25.5 -115t-85.5 -36zM987 403q-29 0 -39 -23.5t-10 -78.5q0 -54 10 -78t39 -24
q30 0 40.5 24t10.5 78q0 55 -10 78.5t-41 23.5zM967 1016q49 0 79.5 -24.5t39 -51t8.5 -53.5q0 -43 -34.5 -72.5t-72.5 -34.5q-213 -23 -340 -147q3 8 9 22t25 53.5t39 75.5t50 80.5t59.5 76t66 53.5t71.5 22zM285 909q39 0 78 -21t69.5 -55t58.5 -74.5t48 -81.5t35 -75
t22 -55l8 -21q-117 148 -319 148q-49 0 -88 30t-39 76q0 53 33.5 91t93.5 38zM643 1214q38 -37 48.5 -102t-2.5 -131t-31.5 -126.5t-35.5 -98.5l-18 -39q20 191 -125 330q-35 35 -42 81.5t24 83.5q23 23 53 34t65 3.5t64 -35.5z" />
    </font>
</defs>
</svg>
