<?xml version="1.0" standalone="no"?>
<!DOCTYPE svg PUBLIC "-//W3C//DTD SVG 1.1//EN" "http://www.w3.org/Graphics/SVG/1.1/DTD/svg11.dtd" >
<svg xmlns="http://www.w3.org/2000/svg" xmlns:xlink="http://www.w3.org/1999/xlink" version="1.1">
<metadata>
Created by FontForge 20201107 at Thu Feb  6 13:49:20 2025
 By 
Copyright (c) 2020 by Artegra. All rights reserved.
</metadata>
<defs>
<font id="FONTSPRINGDEMO-ProcerusExtraLightItalic" horiz-adv-x="1224" >
  <font-face 
    font-family="FSP DEMO - Procerus Extra Light"
    font-weight="200"
    font-style="italic"
    font-stretch="ultra-condensed"
    units-per-em="2048"
    panose-1="2 0 5 6 4 0 0 2 0 4"
    ascent="1585"
    descent="-463"
    x-height="1077"
    cap-height="1536"
    bbox="-90 -463 1098 1544"
    underline-thickness="102"
    underline-position="-204"
    slope="-8"
    unicode-range="U+000D-007E"
  />
<missing-glyph 
d="M207 403q-13 0 -19 -2v-200q4 -2 19 -2q37 0 50 25t13 77q0 54 -13 78t-50 24zM518 330v-49h-82v-78h96v-49h-155v297h155v-52h-96v-69h82zM203 150q-47 0 -74 4v292q61 9 76 9q67 0 96 -37.5t29 -116.5t-29.5 -115t-97.5 -36zM586 451h80l39 -164l38 164h82
q3 -45 13 -297h-60q0 108 -6 213l-41 -168h-55l-41 168h-2q-4 -140 -4 -213h-58q3 156 15 297zM987 150q-60 0 -84 35.5t-24 115.5q0 81 24 117.5t84 36.5t85.5 -37t25.5 -117q0 -79 -25.5 -115t-85.5 -36zM987 403q-29 0 -39 -23.5t-10 -78.5q0 -54 10 -78t39 -24
q30 0 40.5 24t10.5 78q0 55 -10 78.5t-41 23.5zM967 1016q49 0 79.5 -24.5t39 -51t8.5 -53.5q0 -43 -34.5 -72.5t-72.5 -34.5q-213 -23 -340 -147q3 8 9 22t25 53.5t39 75.5t50 80.5t59.5 76t66 53.5t71.5 22zM285 909q39 0 78 -21t69.5 -55t58.5 -74.5t48 -81.5t35 -75
t22 -55l8 -21q-117 148 -319 148q-49 0 -88 30t-39 76q0 53 33.5 91t93.5 38zM643 1214q38 -37 48.5 -102t-2.5 -131t-31.5 -126.5t-35.5 -98.5l-18 -39q20 191 -125 330q-35 35 -42 81.5t24 83.5q23 23 53 34t65 3.5t64 -35.5z" />
    <glyph glyph-name=".notdef" 
d="M207 403q-13 0 -19 -2v-200q4 -2 19 -2q37 0 50 25t13 77q0 54 -13 78t-50 24zM518 330v-49h-82v-78h96v-49h-155v297h155v-52h-96v-69h82zM203 150q-47 0 -74 4v292q61 9 76 9q67 0 96 -37.5t29 -116.5t-29.5 -115t-97.5 -36zM586 451h80l39 -164l38 164h82
q3 -45 13 -297h-60q0 108 -6 213l-41 -168h-55l-41 168h-2q-4 -140 -4 -213h-58q3 156 15 297zM987 150q-60 0 -84 35.5t-24 115.5q0 81 24 117.5t84 36.5t85.5 -37t25.5 -117q0 -79 -25.5 -115t-85.5 -36zM987 403q-29 0 -39 -23.5t-10 -78.5q0 -54 10 -78t39 -24
q30 0 40.5 24t10.5 78q0 55 -10 78.5t-41 23.5zM967 1016q49 0 79.5 -24.5t39 -51t8.5 -53.5q0 -43 -34.5 -72.5t-72.5 -34.5q-213 -23 -340 -147q3 8 9 22t25 53.5t39 75.5t50 80.5t59.5 76t66 53.5t71.5 22zM285 909q39 0 78 -21t69.5 -55t58.5 -74.5t48 -81.5t35 -75
t22 -55l8 -21q-117 148 -319 148q-49 0 -88 30t-39 76q0 53 33.5 91t93.5 38zM643 1214q38 -37 48.5 -102t-2.5 -131t-31.5 -126.5t-35.5 -98.5l-18 -39q20 191 -125 330q-35 35 -42 81.5t24 83.5q23 23 53 34t65 3.5t64 -35.5z" />
    <glyph glyph-name="uni0000" horiz-adv-x="0" 
 />
    <glyph glyph-name="uni0000" horiz-adv-x="0" 
 />
    <glyph glyph-name="uni000D" unicode="&#xd;" horiz-adv-x="512" 
 />
    <glyph glyph-name="space" unicode=" " horiz-adv-x="102" 
 />
    <glyph glyph-name="exclam" unicode="!" 
d="M207 403q-13 0 -19 -2v-200q4 -2 19 -2q37 0 50 25t13 77q0 54 -13 78t-50 24zM518 330v-49h-82v-78h96v-49h-155v297h155v-52h-96v-69h82zM203 150q-47 0 -74 4v292q61 9 76 9q67 0 96 -37.5t29 -116.5t-29.5 -115t-97.5 -36zM586 451h80l39 -164l38 164h82
q3 -45 13 -297h-60q0 108 -6 213l-41 -168h-55l-41 168h-2q-4 -140 -4 -213h-58q3 156 15 297zM987 150q-60 0 -84 35.5t-24 115.5q0 81 24 117.5t84 36.5t85.5 -37t25.5 -117q0 -79 -25.5 -115t-85.5 -36zM987 403q-29 0 -39 -23.5t-10 -78.5q0 -54 10 -78t39 -24
q30 0 40.5 24t10.5 78q0 55 -10 78.5t-41 23.5zM967 1016q49 0 79.5 -24.5t39 -51t8.5 -53.5q0 -43 -34.5 -72.5t-72.5 -34.5q-213 -23 -340 -147q3 8 9 22t25 53.5t39 75.5t50 80.5t59.5 76t66 53.5t71.5 22zM285 909q39 0 78 -21t69.5 -55t58.5 -74.5t48 -81.5t35 -75
t22 -55l8 -21q-117 148 -319 148q-49 0 -88 30t-39 76q0 53 33.5 91t93.5 38zM643 1214q38 -37 48.5 -102t-2.5 -131t-31.5 -126.5t-35.5 -98.5l-18 -39q20 191 -125 330q-35 35 -42 81.5t24 83.5q23 23 53 34t65 3.5t64 -35.5z" />
    <glyph glyph-name="quotedbl" unicode="&#x22;" 
d="M207 403q-13 0 -19 -2v-200q4 -2 19 -2q37 0 50 25t13 77q0 54 -13 78t-50 24zM518 330v-49h-82v-78h96v-49h-155v297h155v-52h-96v-69h82zM203 150q-47 0 -74 4v292q61 9 76 9q67 0 96 -37.5t29 -116.5t-29.5 -115t-97.5 -36zM586 451h80l39 -164l38 164h82
q3 -45 13 -297h-60q0 108 -6 213l-41 -168h-55l-41 168h-2q-4 -140 -4 -213h-58q3 156 15 297zM987 150q-60 0 -84 35.5t-24 115.5q0 81 24 117.5t84 36.5t85.5 -37t25.5 -117q0 -79 -25.5 -115t-85.5 -36zM987 403q-29 0 -39 -23.5t-10 -78.5q0 -54 10 -78t39 -24
q30 0 40.5 24t10.5 78q0 55 -10 78.5t-41 23.5zM967 1016q49 0 79.5 -24.5t39 -51t8.5 -53.5q0 -43 -34.5 -72.5t-72.5 -34.5q-213 -23 -340 -147q3 8 9 22t25 53.5t39 75.5t50 80.5t59.5 76t66 53.5t71.5 22zM285 909q39 0 78 -21t69.5 -55t58.5 -74.5t48 -81.5t35 -75
t22 -55l8 -21q-117 148 -319 148q-49 0 -88 30t-39 76q0 53 33.5 91t93.5 38zM643 1214q38 -37 48.5 -102t-2.5 -131t-31.5 -126.5t-35.5 -98.5l-18 -39q20 191 -125 330q-35 35 -42 81.5t24 83.5q23 23 53 34t65 3.5t64 -35.5z" />
    <glyph glyph-name="numbersign" unicode="#" 
d="M207 403q-13 0 -19 -2v-200q4 -2 19 -2q37 0 50 25t13 77q0 54 -13 78t-50 24zM518 330v-49h-82v-78h96v-49h-155v297h155v-52h-96v-69h82zM203 150q-47 0 -74 4v292q61 9 76 9q67 0 96 -37.5t29 -116.5t-29.5 -115t-97.5 -36zM586 451h80l39 -164l38 164h82
q3 -45 13 -297h-60q0 108 -6 213l-41 -168h-55l-41 168h-2q-4 -140 -4 -213h-58q3 156 15 297zM987 150q-60 0 -84 35.5t-24 115.5q0 81 24 117.5t84 36.5t85.5 -37t25.5 -117q0 -79 -25.5 -115t-85.5 -36zM987 403q-29 0 -39 -23.5t-10 -78.5q0 -54 10 -78t39 -24
q30 0 40.5 24t10.5 78q0 55 -10 78.5t-41 23.5zM967 1016q49 0 79.5 -24.5t39 -51t8.5 -53.5q0 -43 -34.5 -72.5t-72.5 -34.5q-213 -23 -340 -147q3 8 9 22t25 53.5t39 75.5t50 80.5t59.5 76t66 53.5t71.5 22zM285 909q39 0 78 -21t69.5 -55t58.5 -74.5t48 -81.5t35 -75
t22 -55l8 -21q-117 148 -319 148q-49 0 -88 30t-39 76q0 53 33.5 91t93.5 38zM643 1214q38 -37 48.5 -102t-2.5 -131t-31.5 -126.5t-35.5 -98.5l-18 -39q20 191 -125 330q-35 35 -42 81.5t24 83.5q23 23 53 34t65 3.5t64 -35.5z" />
    <glyph glyph-name="dollar" unicode="$" 
d="M207 403q-13 0 -19 -2v-200q4 -2 19 -2q37 0 50 25t13 77q0 54 -13 78t-50 24zM518 330v-49h-82v-78h96v-49h-155v297h155v-52h-96v-69h82zM203 150q-47 0 -74 4v292q61 9 76 9q67 0 96 -37.5t29 -116.5t-29.5 -115t-97.5 -36zM586 451h80l39 -164l38 164h82
q3 -45 13 -297h-60q0 108 -6 213l-41 -168h-55l-41 168h-2q-4 -140 -4 -213h-58q3 156 15 297zM987 150q-60 0 -84 35.5t-24 115.5q0 81 24 117.5t84 36.5t85.5 -37t25.5 -117q0 -79 -25.5 -115t-85.5 -36zM987 403q-29 0 -39 -23.5t-10 -78.5q0 -54 10 -78t39 -24
q30 0 40.5 24t10.5 78q0 55 -10 78.5t-41 23.5zM967 1016q49 0 79.5 -24.5t39 -51t8.5 -53.5q0 -43 -34.5 -72.5t-72.5 -34.5q-213 -23 -340 -147q3 8 9 22t25 53.5t39 75.5t50 80.5t59.5 76t66 53.5t71.5 22zM285 909q39 0 78 -21t69.5 -55t58.5 -74.5t48 -81.5t35 -75
t22 -55l8 -21q-117 148 -319 148q-49 0 -88 30t-39 76q0 53 33.5 91t93.5 38zM643 1214q38 -37 48.5 -102t-2.5 -131t-31.5 -126.5t-35.5 -98.5l-18 -39q20 191 -125 330q-35 35 -42 81.5t24 83.5q23 23 53 34t65 3.5t64 -35.5z" />
    <glyph glyph-name="percent" unicode="%" 
d="M207 403q-13 0 -19 -2v-200q4 -2 19 -2q37 0 50 25t13 77q0 54 -13 78t-50 24zM518 330v-49h-82v-78h96v-49h-155v297h155v-52h-96v-69h82zM203 150q-47 0 -74 4v292q61 9 76 9q67 0 96 -37.5t29 -116.5t-29.5 -115t-97.5 -36zM586 451h80l39 -164l38 164h82
q3 -45 13 -297h-60q0 108 -6 213l-41 -168h-55l-41 168h-2q-4 -140 -4 -213h-58q3 156 15 297zM987 150q-60 0 -84 35.5t-24 115.5q0 81 24 117.5t84 36.5t85.5 -37t25.5 -117q0 -79 -25.5 -115t-85.5 -36zM987 403q-29 0 -39 -23.5t-10 -78.5q0 -54 10 -78t39 -24
q30 0 40.5 24t10.5 78q0 55 -10 78.5t-41 23.5zM967 1016q49 0 79.5 -24.5t39 -51t8.5 -53.5q0 -43 -34.5 -72.5t-72.5 -34.5q-213 -23 -340 -147q3 8 9 22t25 53.5t39 75.5t50 80.5t59.5 76t66 53.5t71.5 22zM285 909q39 0 78 -21t69.5 -55t58.5 -74.5t48 -81.5t35 -75
t22 -55l8 -21q-117 148 -319 148q-49 0 -88 30t-39 76q0 53 33.5 91t93.5 38zM643 1214q38 -37 48.5 -102t-2.5 -131t-31.5 -126.5t-35.5 -98.5l-18 -39q20 191 -125 330q-35 35 -42 81.5t24 83.5q23 23 53 34t65 3.5t64 -35.5z" />
    <glyph glyph-name="ampersand" unicode="&#x26;" 
d="M207 403q-13 0 -19 -2v-200q4 -2 19 -2q37 0 50 25t13 77q0 54 -13 78t-50 24zM518 330v-49h-82v-78h96v-49h-155v297h155v-52h-96v-69h82zM203 150q-47 0 -74 4v292q61 9 76 9q67 0 96 -37.5t29 -116.5t-29.5 -115t-97.5 -36zM586 451h80l39 -164l38 164h82
q3 -45 13 -297h-60q0 108 -6 213l-41 -168h-55l-41 168h-2q-4 -140 -4 -213h-58q3 156 15 297zM987 150q-60 0 -84 35.5t-24 115.5q0 81 24 117.5t84 36.5t85.5 -37t25.5 -117q0 -79 -25.5 -115t-85.5 -36zM987 403q-29 0 -39 -23.5t-10 -78.5q0 -54 10 -78t39 -24
q30 0 40.5 24t10.5 78q0 55 -10 78.5t-41 23.5zM967 1016q49 0 79.5 -24.5t39 -51t8.5 -53.5q0 -43 -34.5 -72.5t-72.5 -34.5q-213 -23 -340 -147q3 8 9 22t25 53.5t39 75.5t50 80.5t59.5 76t66 53.5t71.5 22zM285 909q39 0 78 -21t69.5 -55t58.5 -74.5t48 -81.5t35 -75
t22 -55l8 -21q-117 148 -319 148q-49 0 -88 30t-39 76q0 53 33.5 91t93.5 38zM643 1214q38 -37 48.5 -102t-2.5 -131t-31.5 -126.5t-35.5 -98.5l-18 -39q20 191 -125 330q-35 35 -42 81.5t24 83.5q23 23 53 34t65 3.5t64 -35.5z" />
    <glyph glyph-name="quotesingle" unicode="'" 
d="M207 403q-13 0 -19 -2v-200q4 -2 19 -2q37 0 50 25t13 77q0 54 -13 78t-50 24zM518 330v-49h-82v-78h96v-49h-155v297h155v-52h-96v-69h82zM203 150q-47 0 -74 4v292q61 9 76 9q67 0 96 -37.5t29 -116.5t-29.5 -115t-97.5 -36zM586 451h80l39 -164l38 164h82
q3 -45 13 -297h-60q0 108 -6 213l-41 -168h-55l-41 168h-2q-4 -140 -4 -213h-58q3 156 15 297zM987 150q-60 0 -84 35.5t-24 115.5q0 81 24 117.5t84 36.5t85.5 -37t25.5 -117q0 -79 -25.5 -115t-85.5 -36zM987 403q-29 0 -39 -23.5t-10 -78.5q0 -54 10 -78t39 -24
q30 0 40.5 24t10.5 78q0 55 -10 78.5t-41 23.5zM967 1016q49 0 79.5 -24.5t39 -51t8.5 -53.5q0 -43 -34.5 -72.5t-72.5 -34.5q-213 -23 -340 -147q3 8 9 22t25 53.5t39 75.5t50 80.5t59.5 76t66 53.5t71.5 22zM285 909q39 0 78 -21t69.5 -55t58.5 -74.5t48 -81.5t35 -75
t22 -55l8 -21q-117 148 -319 148q-49 0 -88 30t-39 76q0 53 33.5 91t93.5 38zM643 1214q38 -37 48.5 -102t-2.5 -131t-31.5 -126.5t-35.5 -98.5l-18 -39q20 191 -125 330q-35 35 -42 81.5t24 83.5q23 23 53 34t65 3.5t64 -35.5z" />
    <glyph glyph-name="parenleft" unicode="(" 
d="M207 403q-13 0 -19 -2v-200q4 -2 19 -2q37 0 50 25t13 77q0 54 -13 78t-50 24zM518 330v-49h-82v-78h96v-49h-155v297h155v-52h-96v-69h82zM203 150q-47 0 -74 4v292q61 9 76 9q67 0 96 -37.5t29 -116.5t-29.5 -115t-97.5 -36zM586 451h80l39 -164l38 164h82
q3 -45 13 -297h-60q0 108 -6 213l-41 -168h-55l-41 168h-2q-4 -140 -4 -213h-58q3 156 15 297zM987 150q-60 0 -84 35.5t-24 115.5q0 81 24 117.5t84 36.5t85.5 -37t25.5 -117q0 -79 -25.5 -115t-85.5 -36zM987 403q-29 0 -39 -23.5t-10 -78.5q0 -54 10 -78t39 -24
q30 0 40.5 24t10.5 78q0 55 -10 78.5t-41 23.5zM967 1016q49 0 79.5 -24.5t39 -51t8.5 -53.5q0 -43 -34.5 -72.5t-72.5 -34.5q-213 -23 -340 -147q3 8 9 22t25 53.5t39 75.5t50 80.5t59.5 76t66 53.5t71.5 22zM285 909q39 0 78 -21t69.5 -55t58.5 -74.5t48 -81.5t35 -75
t22 -55l8 -21q-117 148 -319 148q-49 0 -88 30t-39 76q0 53 33.5 91t93.5 38zM643 1214q38 -37 48.5 -102t-2.5 -131t-31.5 -126.5t-35.5 -98.5l-18 -39q20 191 -125 330q-35 35 -42 81.5t24 83.5q23 23 53 34t65 3.5t64 -35.5z" />
    <glyph glyph-name="parenright" unicode=")" 
d="M207 403q-13 0 -19 -2v-200q4 -2 19 -2q37 0 50 25t13 77q0 54 -13 78t-50 24zM518 330v-49h-82v-78h96v-49h-155v297h155v-52h-96v-69h82zM203 150q-47 0 -74 4v292q61 9 76 9q67 0 96 -37.5t29 -116.5t-29.5 -115t-97.5 -36zM586 451h80l39 -164l38 164h82
q3 -45 13 -297h-60q0 108 -6 213l-41 -168h-55l-41 168h-2q-4 -140 -4 -213h-58q3 156 15 297zM987 150q-60 0 -84 35.5t-24 115.5q0 81 24 117.5t84 36.5t85.5 -37t25.5 -117q0 -79 -25.5 -115t-85.5 -36zM987 403q-29 0 -39 -23.5t-10 -78.5q0 -54 10 -78t39 -24
q30 0 40.5 24t10.5 78q0 55 -10 78.5t-41 23.5zM967 1016q49 0 79.5 -24.5t39 -51t8.5 -53.5q0 -43 -34.5 -72.5t-72.5 -34.5q-213 -23 -340 -147q3 8 9 22t25 53.5t39 75.5t50 80.5t59.5 76t66 53.5t71.5 22zM285 909q39 0 78 -21t69.5 -55t58.5 -74.5t48 -81.5t35 -75
t22 -55l8 -21q-117 148 -319 148q-49 0 -88 30t-39 76q0 53 33.5 91t93.5 38zM643 1214q38 -37 48.5 -102t-2.5 -131t-31.5 -126.5t-35.5 -98.5l-18 -39q20 191 -125 330q-35 35 -42 81.5t24 83.5q23 23 53 34t65 3.5t64 -35.5z" />
    <glyph glyph-name="asterisk" unicode="*" 
d="M207 403q-13 0 -19 -2v-200q4 -2 19 -2q37 0 50 25t13 77q0 54 -13 78t-50 24zM518 330v-49h-82v-78h96v-49h-155v297h155v-52h-96v-69h82zM203 150q-47 0 -74 4v292q61 9 76 9q67 0 96 -37.5t29 -116.5t-29.5 -115t-97.5 -36zM586 451h80l39 -164l38 164h82
q3 -45 13 -297h-60q0 108 -6 213l-41 -168h-55l-41 168h-2q-4 -140 -4 -213h-58q3 156 15 297zM987 150q-60 0 -84 35.5t-24 115.5q0 81 24 117.5t84 36.5t85.5 -37t25.5 -117q0 -79 -25.5 -115t-85.5 -36zM987 403q-29 0 -39 -23.5t-10 -78.5q0 -54 10 -78t39 -24
q30 0 40.5 24t10.5 78q0 55 -10 78.5t-41 23.5zM967 1016q49 0 79.5 -24.5t39 -51t8.5 -53.5q0 -43 -34.5 -72.5t-72.5 -34.5q-213 -23 -340 -147q3 8 9 22t25 53.5t39 75.5t50 80.5t59.5 76t66 53.5t71.5 22zM285 909q39 0 78 -21t69.5 -55t58.5 -74.5t48 -81.5t35 -75
t22 -55l8 -21q-117 148 -319 148q-49 0 -88 30t-39 76q0 53 33.5 91t93.5 38zM643 1214q38 -37 48.5 -102t-2.5 -131t-31.5 -126.5t-35.5 -98.5l-18 -39q20 191 -125 330q-35 35 -42 81.5t24 83.5q23 23 53 34t65 3.5t64 -35.5z" />
    <glyph glyph-name="plus" unicode="+" 
d="M207 403q-13 0 -19 -2v-200q4 -2 19 -2q37 0 50 25t13 77q0 54 -13 78t-50 24zM518 330v-49h-82v-78h96v-49h-155v297h155v-52h-96v-69h82zM203 150q-47 0 -74 4v292q61 9 76 9q67 0 96 -37.5t29 -116.5t-29.5 -115t-97.5 -36zM586 451h80l39 -164l38 164h82
q3 -45 13 -297h-60q0 108 -6 213l-41 -168h-55l-41 168h-2q-4 -140 -4 -213h-58q3 156 15 297zM987 150q-60 0 -84 35.5t-24 115.5q0 81 24 117.5t84 36.5t85.5 -37t25.5 -117q0 -79 -25.5 -115t-85.5 -36zM987 403q-29 0 -39 -23.5t-10 -78.5q0 -54 10 -78t39 -24
q30 0 40.5 24t10.5 78q0 55 -10 78.5t-41 23.5zM967 1016q49 0 79.5 -24.5t39 -51t8.5 -53.5q0 -43 -34.5 -72.5t-72.5 -34.5q-213 -23 -340 -147q3 8 9 22t25 53.5t39 75.5t50 80.5t59.5 76t66 53.5t71.5 22zM285 909q39 0 78 -21t69.5 -55t58.5 -74.5t48 -81.5t35 -75
t22 -55l8 -21q-117 148 -319 148q-49 0 -88 30t-39 76q0 53 33.5 91t93.5 38zM643 1214q38 -37 48.5 -102t-2.5 -131t-31.5 -126.5t-35.5 -98.5l-18 -39q20 191 -125 330q-35 35 -42 81.5t24 83.5q23 23 53 34t65 3.5t64 -35.5z" />
    <glyph glyph-name="comma" unicode="," horiz-adv-x="131" 
d="M0 -154l57 154h-34l12 90h90l-12 -90l-78 -154h-35z" />
    <glyph glyph-name="hyphen" unicode="-" 
d="M207 403q-13 0 -19 -2v-200q4 -2 19 -2q37 0 50 25t13 77q0 54 -13 78t-50 24zM518 330v-49h-82v-78h96v-49h-155v297h155v-52h-96v-69h82zM203 150q-47 0 -74 4v292q61 9 76 9q67 0 96 -37.5t29 -116.5t-29.5 -115t-97.5 -36zM586 451h80l39 -164l38 164h82
q3 -45 13 -297h-60q0 108 -6 213l-41 -168h-55l-41 168h-2q-4 -140 -4 -213h-58q3 156 15 297zM987 150q-60 0 -84 35.5t-24 115.5q0 81 24 117.5t84 36.5t85.5 -37t25.5 -117q0 -79 -25.5 -115t-85.5 -36zM987 403q-29 0 -39 -23.5t-10 -78.5q0 -54 10 -78t39 -24
q30 0 40.5 24t10.5 78q0 55 -10 78.5t-41 23.5zM967 1016q49 0 79.5 -24.5t39 -51t8.5 -53.5q0 -43 -34.5 -72.5t-72.5 -34.5q-213 -23 -340 -147q3 8 9 22t25 53.5t39 75.5t50 80.5t59.5 76t66 53.5t71.5 22zM285 909q39 0 78 -21t69.5 -55t58.5 -74.5t48 -81.5t35 -75
t22 -55l8 -21q-117 148 -319 148q-49 0 -88 30t-39 76q0 53 33.5 91t93.5 38zM643 1214q38 -37 48.5 -102t-2.5 -131t-31.5 -126.5t-35.5 -98.5l-18 -39q20 191 -125 330q-35 35 -42 81.5t24 83.5q23 23 53 34t65 3.5t64 -35.5z" />
    <glyph glyph-name="period" unicode="." horiz-adv-x="131" 
d="M20 0l13 90h92l-14 -90h-91z" />
    <glyph glyph-name="slash" unicode="/" 
d="M207 403q-13 0 -19 -2v-200q4 -2 19 -2q37 0 50 25t13 77q0 54 -13 78t-50 24zM518 330v-49h-82v-78h96v-49h-155v297h155v-52h-96v-69h82zM203 150q-47 0 -74 4v292q61 9 76 9q67 0 96 -37.5t29 -116.5t-29.5 -115t-97.5 -36zM586 451h80l39 -164l38 164h82
q3 -45 13 -297h-60q0 108 -6 213l-41 -168h-55l-41 168h-2q-4 -140 -4 -213h-58q3 156 15 297zM987 150q-60 0 -84 35.5t-24 115.5q0 81 24 117.5t84 36.5t85.5 -37t25.5 -117q0 -79 -25.5 -115t-85.5 -36zM987 403q-29 0 -39 -23.5t-10 -78.5q0 -54 10 -78t39 -24
q30 0 40.5 24t10.5 78q0 55 -10 78.5t-41 23.5zM967 1016q49 0 79.5 -24.5t39 -51t8.5 -53.5q0 -43 -34.5 -72.5t-72.5 -34.5q-213 -23 -340 -147q3 8 9 22t25 53.5t39 75.5t50 80.5t59.5 76t66 53.5t71.5 22zM285 909q39 0 78 -21t69.5 -55t58.5 -74.5t48 -81.5t35 -75
t22 -55l8 -21q-117 148 -319 148q-49 0 -88 30t-39 76q0 53 33.5 91t93.5 38zM643 1214q38 -37 48.5 -102t-2.5 -131t-31.5 -126.5t-35.5 -98.5l-18 -39q20 191 -125 330q-35 35 -42 81.5t24 83.5q23 23 53 34t65 3.5t64 -35.5z" />
    <glyph glyph-name="zero" unicode="0" horiz-adv-x="229" 
d="M113 -8q-52 0 -69 25t-11 77l190 1348q6 51 31.5 76.5t77.5 25.5t69 -25t11 -77l-191 -1348q-6 -52 -31 -77t-77 -25zM123 63q14 0 18 25l191 1360q4 25 -13 25q-12 0 -16 -25l-190 -1360q-4 -25 10 -25z" />
    <glyph glyph-name="one" unicode="1" horiz-adv-x="161" 
d="M59 0l199 1421q-18 -18 -51 -18l10 63q52 17 90 70h49l-215 -1536h-82z" />
    <glyph glyph-name="two" unicode="2" horiz-adv-x="231" 
d="M20 0l99 700q7 55 25 84t59 56q30 22 40.5 38t14.5 46l74 524q2 25 -13 25q-14 0 -16 -25l-74 -526h-79l73 520q6 51 31.5 76.5t77.5 25.5t69 -25t11 -77l-74 -516q-7 -55 -24.5 -83t-59.5 -57q-30 -21 -41 -37.5t-14 -46.5l-90 -630h28l86 604h80l-94 -676h-189z" />
    <glyph glyph-name="three" unicode="3" horiz-adv-x="231" 
d="M113 -8q-52 0 -69 24t-11 76l88 629h80l-88 -633q-4 -25 10 -25t18 25l90 635q5 26 0 37.5t-9 13.5t-13 2h-45l10 72h45q9 0 14.5 2t11.5 14t9 37l78 547q4 25 -13 25q-12 0 -16 -25l-78 -551h-80l78 545q6 51 31.5 76.5t77.5 25.5t69 -25t11 -77l-78 -547
q-7 -61 -49 -84q33 -20 26 -82l-90 -637q-6 -51 -31 -75.5t-77 -24.5z" />
    <glyph glyph-name="four" unicode="4" 
d="M207 403q-13 0 -19 -2v-200q4 -2 19 -2q37 0 50 25t13 77q0 54 -13 78t-50 24zM518 330v-49h-82v-78h96v-49h-155v297h155v-52h-96v-69h82zM203 150q-47 0 -74 4v292q61 9 76 9q67 0 96 -37.5t29 -116.5t-29.5 -115t-97.5 -36zM586 451h80l39 -164l38 164h82
q3 -45 13 -297h-60q0 108 -6 213l-41 -168h-55l-41 168h-2q-4 -140 -4 -213h-58q3 156 15 297zM987 150q-60 0 -84 35.5t-24 115.5q0 81 24 117.5t84 36.5t85.5 -37t25.5 -117q0 -79 -25.5 -115t-85.5 -36zM987 403q-29 0 -39 -23.5t-10 -78.5q0 -54 10 -78t39 -24
q30 0 40.5 24t10.5 78q0 55 -10 78.5t-41 23.5zM967 1016q49 0 79.5 -24.5t39 -51t8.5 -53.5q0 -43 -34.5 -72.5t-72.5 -34.5q-213 -23 -340 -147q3 8 9 22t25 53.5t39 75.5t50 80.5t59.5 76t66 53.5t71.5 22zM285 909q39 0 78 -21t69.5 -55t58.5 -74.5t48 -81.5t35 -75
t22 -55l8 -21q-117 148 -319 148q-49 0 -88 30t-39 76q0 53 33.5 91t93.5 38zM643 1214q38 -37 48.5 -102t-2.5 -131t-31.5 -126.5t-35.5 -98.5l-18 -39q20 191 -125 330q-35 35 -42 81.5t24 83.5q23 23 53 34t65 3.5t64 -35.5z" />
    <glyph glyph-name="five" unicode="5" horiz-adv-x="229" 
d="M115 -8q-52 0 -70 25t-12 77l90 641h80l-90 -647q-4 -25 10 -25t18 25l103 725q2 25 -17 25q-15 0 -30 -25h-62l101 723h188l-80 -565h-80l72 493h-29l-84 -581q24 24 47 24q67 0 52 -102l-101 -711q-6 -52 -30 -77t-76 -25z" />
    <glyph glyph-name="six" unicode="6" horiz-adv-x="231" 
d="M113 -8q-52 0 -69 25t-11 77l190 1348q6 51 31.5 76.5t77.5 25.5t69 -25t11 -77l-70 -488h-80l70 494q4 25 -13 25q-12 0 -16 -25l-78 -563q2 7 14.5 16.5t30.5 9.5q35 0 47.5 -25t4.5 -79l-101 -713q-6 -52 -31 -77t-77 -25zM123 63q14 0 18 25l103 729q4 23 -11 23
q-14 0 -18 -23l-102 -729q-4 -25 10 -25z" />
    <glyph glyph-name="seven" unicode="7" horiz-adv-x="219" 
d="M37 0q33 237 72.5 416t68.5 263t57 182.5t41 193.5l60 409h-29l-69 -483h-80l78 555h188l-68 -481q-15 -107 -44 -210.5t-57 -186t-66.5 -255.5t-71.5 -403h-80z" />
    <glyph glyph-name="eight" unicode="8" horiz-adv-x="231" 
d="M113 -8q-52 0 -69 25t-11 77l88 631q10 61 49 82q-35 23 -25 82l78 553q6 51 31.5 76.5t77.5 25.5t69 -25t11 -77l-78 -553q-10 -61 -51 -82q36 -22 26 -82l-88 -631q-6 -52 -31 -77t-77 -25zM233 844q17 8 19 41l80 563q2 25 -13 25q-12 0 -16 -25l-80 -563
q-3 -36 10 -41zM123 63q14 0 18 25l90 641q5 38 -10 41q-13 -3 -18 -41l-90 -641q-4 -25 10 -25z" />
    <glyph glyph-name="nine" unicode="9" horiz-adv-x="229" 
d="M115 -8q-52 0 -70 25t-12 77l69 488h80l-69 -494q-4 -25 10 -25t18 25l80 563l-4 -4t-5 -5.5t-6.5 -6t-8.5 -5.5t-10.5 -3.5t-12.5 -1.5q-35 0 -47 24.5t-4 79.5l100 713q6 51 31.5 76.5t77.5 25.5t69 -25t11 -77l-191 -1348q-6 -52 -30 -77t-76 -25zM213 694q14 0 16 25
l105 729q2 25 -12 25q-15 0 -17 -25l-104 -729q-2 -25 12 -25z" />
    <glyph glyph-name="colon" unicode=":" horiz-adv-x="133" 
d="M160 987l14 90h90l-12 -90h-92zM23 0l12 90h90l-12 -90h-90z" />
    <glyph glyph-name="semicolon" unicode=";" horiz-adv-x="133" 
d="M160 987l14 90h90l-12 -90h-92zM23 0l12 90h90l-12 -90l-78 -154h-35l57 154h-34z" />
    <glyph glyph-name="less" unicode="&#x3c;" 
d="M207 403q-13 0 -19 -2v-200q4 -2 19 -2q37 0 50 25t13 77q0 54 -13 78t-50 24zM518 330v-49h-82v-78h96v-49h-155v297h155v-52h-96v-69h82zM203 150q-47 0 -74 4v292q61 9 76 9q67 0 96 -37.5t29 -116.5t-29.5 -115t-97.5 -36zM586 451h80l39 -164l38 164h82
q3 -45 13 -297h-60q0 108 -6 213l-41 -168h-55l-41 168h-2q-4 -140 -4 -213h-58q3 156 15 297zM987 150q-60 0 -84 35.5t-24 115.5q0 81 24 117.5t84 36.5t85.5 -37t25.5 -117q0 -79 -25.5 -115t-85.5 -36zM987 403q-29 0 -39 -23.5t-10 -78.5q0 -54 10 -78t39 -24
q30 0 40.5 24t10.5 78q0 55 -10 78.5t-41 23.5zM967 1016q49 0 79.5 -24.5t39 -51t8.5 -53.5q0 -43 -34.5 -72.5t-72.5 -34.5q-213 -23 -340 -147q3 8 9 22t25 53.5t39 75.5t50 80.5t59.5 76t66 53.5t71.5 22zM285 909q39 0 78 -21t69.5 -55t58.5 -74.5t48 -81.5t35 -75
t22 -55l8 -21q-117 148 -319 148q-49 0 -88 30t-39 76q0 53 33.5 91t93.5 38zM643 1214q38 -37 48.5 -102t-2.5 -131t-31.5 -126.5t-35.5 -98.5l-18 -39q20 191 -125 330q-35 35 -42 81.5t24 83.5q23 23 53 34t65 3.5t64 -35.5z" />
    <glyph glyph-name="equal" unicode="=" 
d="M207 403q-13 0 -19 -2v-200q4 -2 19 -2q37 0 50 25t13 77q0 54 -13 78t-50 24zM518 330v-49h-82v-78h96v-49h-155v297h155v-52h-96v-69h82zM203 150q-47 0 -74 4v292q61 9 76 9q67 0 96 -37.5t29 -116.5t-29.5 -115t-97.5 -36zM586 451h80l39 -164l38 164h82
q3 -45 13 -297h-60q0 108 -6 213l-41 -168h-55l-41 168h-2q-4 -140 -4 -213h-58q3 156 15 297zM987 150q-60 0 -84 35.5t-24 115.5q0 81 24 117.5t84 36.5t85.5 -37t25.5 -117q0 -79 -25.5 -115t-85.5 -36zM987 403q-29 0 -39 -23.5t-10 -78.5q0 -54 10 -78t39 -24
q30 0 40.5 24t10.5 78q0 55 -10 78.5t-41 23.5zM967 1016q49 0 79.5 -24.5t39 -51t8.5 -53.5q0 -43 -34.5 -72.5t-72.5 -34.5q-213 -23 -340 -147q3 8 9 22t25 53.5t39 75.5t50 80.5t59.5 76t66 53.5t71.5 22zM285 909q39 0 78 -21t69.5 -55t58.5 -74.5t48 -81.5t35 -75
t22 -55l8 -21q-117 148 -319 148q-49 0 -88 30t-39 76q0 53 33.5 91t93.5 38zM643 1214q38 -37 48.5 -102t-2.5 -131t-31.5 -126.5t-35.5 -98.5l-18 -39q20 191 -125 330q-35 35 -42 81.5t24 83.5q23 23 53 34t65 3.5t64 -35.5z" />
    <glyph glyph-name="greater" unicode="&#x3e;" 
d="M207 403q-13 0 -19 -2v-200q4 -2 19 -2q37 0 50 25t13 77q0 54 -13 78t-50 24zM518 330v-49h-82v-78h96v-49h-155v297h155v-52h-96v-69h82zM203 150q-47 0 -74 4v292q61 9 76 9q67 0 96 -37.5t29 -116.5t-29.5 -115t-97.5 -36zM586 451h80l39 -164l38 164h82
q3 -45 13 -297h-60q0 108 -6 213l-41 -168h-55l-41 168h-2q-4 -140 -4 -213h-58q3 156 15 297zM987 150q-60 0 -84 35.5t-24 115.5q0 81 24 117.5t84 36.5t85.5 -37t25.5 -117q0 -79 -25.5 -115t-85.5 -36zM987 403q-29 0 -39 -23.5t-10 -78.5q0 -54 10 -78t39 -24
q30 0 40.5 24t10.5 78q0 55 -10 78.5t-41 23.5zM967 1016q49 0 79.5 -24.5t39 -51t8.5 -53.5q0 -43 -34.5 -72.5t-72.5 -34.5q-213 -23 -340 -147q3 8 9 22t25 53.5t39 75.5t50 80.5t59.5 76t66 53.5t71.5 22zM285 909q39 0 78 -21t69.5 -55t58.5 -74.5t48 -81.5t35 -75
t22 -55l8 -21q-117 148 -319 148q-49 0 -88 30t-39 76q0 53 33.5 91t93.5 38zM643 1214q38 -37 48.5 -102t-2.5 -131t-31.5 -126.5t-35.5 -98.5l-18 -39q20 191 -125 330q-35 35 -42 81.5t24 83.5q23 23 53 34t65 3.5t64 -35.5z" />
    <glyph glyph-name="question" unicode="?" horiz-adv-x="231" 
d="M104 219l68 479q6 42 22 65t48 38l92 647q2 25 -12 25q-15 0 -17 -25l-82 -563h-80l80 559q6 51 31.5 75.5t77.5 24.5t69 -24t11 -76l-86 -621q-14 -81 -72 -104l-70 -500h-80zM68 0l14 90l90 2l-12 -92h-92z" />
    <glyph glyph-name="at" unicode="@" 
d="M207 403q-13 0 -19 -2v-200q4 -2 19 -2q37 0 50 25t13 77q0 54 -13 78t-50 24zM518 330v-49h-82v-78h96v-49h-155v297h155v-52h-96v-69h82zM203 150q-47 0 -74 4v292q61 9 76 9q67 0 96 -37.5t29 -116.5t-29.5 -115t-97.5 -36zM586 451h80l39 -164l38 164h82
q3 -45 13 -297h-60q0 108 -6 213l-41 -168h-55l-41 168h-2q-4 -140 -4 -213h-58q3 156 15 297zM987 150q-60 0 -84 35.5t-24 115.5q0 81 24 117.5t84 36.5t85.5 -37t25.5 -117q0 -79 -25.5 -115t-85.5 -36zM987 403q-29 0 -39 -23.5t-10 -78.5q0 -54 10 -78t39 -24
q30 0 40.5 24t10.5 78q0 55 -10 78.5t-41 23.5zM967 1016q49 0 79.5 -24.5t39 -51t8.5 -53.5q0 -43 -34.5 -72.5t-72.5 -34.5q-213 -23 -340 -147q3 8 9 22t25 53.5t39 75.5t50 80.5t59.5 76t66 53.5t71.5 22zM285 909q39 0 78 -21t69.5 -55t58.5 -74.5t48 -81.5t35 -75
t22 -55l8 -21q-117 148 -319 148q-49 0 -88 30t-39 76q0 53 33.5 91t93.5 38zM643 1214q38 -37 48.5 -102t-2.5 -131t-31.5 -126.5t-35.5 -98.5l-18 -39q20 191 -125 330q-35 35 -42 81.5t24 83.5q23 23 53 34t65 3.5t64 -35.5z" />
    <glyph glyph-name="A" unicode="A" horiz-adv-x="225" 
d="M10 0l244 1536h149l-188 -1536h-80l62 469h-35l-72 -469h-80zM172 541h33l92 733l29 190h-13z" />
    <glyph glyph-name="B" unicode="B" horiz-adv-x="231" 
d="M20 0l216 1536h79q56 0 79 -28.5t14 -92.5l-74 -526q-7 -59 -49 -82q33 -20 26 -82l-86 -604q-7 -64 -38 -92.5t-87 -28.5h-80zM219 844q9 0 14.5 2t11.5 14t9 37l74 514q6 26 1 37.5t-9 13.5t-13 2zM111 72q9 0 13.5 2t10.5 14t10 37l86 594q5 26 0 37.5t-9 13.5t-13 2z
" />
    <glyph glyph-name="C" unicode="C" horiz-adv-x="229" 
d="M115 -8q-52 0 -70 25t-12 77l190 1348q8 52 32.5 77t76.5 25t70 -25t10 -77l-86 -613h-80l86 619q4 25 -10 25q-15 0 -19 -25l-190 -1360q-4 -25 10 -25t18 25l99 705h79l-98 -699q-6 -52 -30 -77t-76 -25z" />
    <glyph glyph-name="D" unicode="D" horiz-adv-x="229" 
d="M20 0l216 1536h79q57 0 79.5 -28.5t13.5 -92.5l-183 -1294q-9 -64 -39 -92.5t-86 -28.5h-80zM111 72q9 0 14 2t11.5 14t10.5 37l181 1286q6 26 1 37.5t-9 13.5t-13 2z" />
    <glyph glyph-name="E" unicode="E" horiz-adv-x="188" 
d="M20 0l216 1536h147l-8 -72h-68l-88 -612h66l-11 -72h-63l-100 -708h77l-10 -72h-158z" />
    <glyph glyph-name="F" unicode="F" horiz-adv-x="178" 
d="M20 0l216 1536h147l-8 -72h-68l-88 -612h66l-11 -72h-63l-111 -780h-80z" />
    <glyph glyph-name="G" unicode="G" horiz-adv-x="229" 
d="M94 -8q-75 0 -61 88l190 1362q8 52 32.5 77t76.5 25t70 -25t10 -77l-78 -557h-80l78 563q4 25 -10 25q-15 0 -19 -25l-190 -1362q-4 -23 10 -23t18 23l97 688h-15l13 74h92l-119 -848h-43l-8 33q-18 -41 -64 -41z" />
    <glyph glyph-name="H" unicode="H" horiz-adv-x="229" 
d="M20 0l216 1536h79l-96 -698h29l96 698h80l-215 -1536h-80l109 766h-29l-109 -766h-80z" />
    <glyph glyph-name="I" unicode="I" horiz-adv-x="120" 
d="M20 0l216 1536h79l-215 -1536h-80z" />
    <glyph glyph-name="J" unicode="J" horiz-adv-x="229" 
d="M115 -10q-52 0 -70 24.5t-10 75.5l88 633h80l-90 -637q-2 -25 10 -25q16 0 18 25l195 1378h-103l9 72h184l-203 -1446q-8 -52 -32 -76t-76 -24z" />
    <glyph glyph-name="K" unicode="K" horiz-adv-x="229" 
d="M20 0l216 1536h79l-96 -692q9 0 14.5 2t12 14t10.5 37l88 639h80l-90 -647q-7 -59 -49 -82q33 -21 26 -82l-102 -725h-80l100 719q6 26 1.5 37.5t-8.5 13.5t-13 2l-109 -772h-80z" />
    <glyph glyph-name="L" unicode="L" horiz-adv-x="180" 
d="M20 0l216 1536h79l-204 -1464h69l-10 -72h-150z" />
    <glyph glyph-name="M" unicode="M" horiz-adv-x="364" 
d="M20 0l216 1536h137l-185 -1456h9l225 1456h137l-215 -1536h-86l225 1456h-10l-237 -1456h-107l172 1456h-12l-183 -1456h-86z" />
    <glyph glyph-name="N" unicode="N" horiz-adv-x="274" 
d="M20 0l216 1536h122l-168 -1456h13l180 1456h86l-217 -1536h-123l170 1456h-12l-183 -1456h-84z" />
    <glyph glyph-name="O" unicode="O" horiz-adv-x="229" 
d="M115 -8q-52 0 -70 25t-12 77l190 1348q8 52 32.5 77t76.5 25t70 -25t10 -77l-191 -1348q-6 -52 -30 -77t-76 -25zM123 63q14 0 18 25l191 1360q4 25 -10 25q-15 0 -19 -25l-190 -1360q-4 -25 10 -25z" />
    <glyph glyph-name="P" unicode="P" horiz-adv-x="229" 
d="M20 0l216 1536h79q57 0 79.5 -28.5t13.5 -92.5l-97 -692q-9 -64 -39 -91.5t-88 -27.5l-84 -604h-80zM195 674q9 0 14 2t11.5 14t10.5 37l97 684q6 26 1 37.5t-9 13.5t-13 2z" />
    <glyph glyph-name="Q" unicode="Q" horiz-adv-x="229" 
d="M106 -8q-48 1 -63.5 25.5t-9.5 76.5l190 1348q6 51 31.5 76.5t77.5 25.5t69 -25t11 -77l-191 -1348q-10 -62 -41 -84l19 -82h-78zM123 63q14 0 18 25l191 1360q4 25 -13 25q-12 0 -16 -25l-190 -1360q-4 -25 10 -25z" />
    <glyph glyph-name="R" unicode="R" horiz-adv-x="229" 
d="M20 0l216 1536h79q57 0 79.5 -28.5t13.5 -92.5l-74 -526q-7 -59 -49 -82q33 -21 26 -82l-102 -725h-80l100 719q6 26 1.5 37.5t-8.5 13.5t-13 2l-109 -772h-80zM219 844q9 0 14.5 2t12 14t10.5 37l72 514q6 26 1 37.5t-9 13.5t-13 2z" />
    <glyph glyph-name="S" unicode="S" horiz-adv-x="229" 
d="M115 -8q-52 0 -70 25t-12 77l82 580h80l-82 -586q-4 -25 10 -25t18 25l86 614q5 31 -1.5 47.5t-30.5 36.5q-33 29 -42.5 57t-0.5 83l71 516q8 52 32.5 77t76.5 25t70 -25t10 -77l-74 -520h-80l74 526q4 25 -10 25q-15 0 -19 -25l-74 -524q-3 -31 3.5 -46.5t29.5 -37.5
q33 -27 42.5 -55.5t2.5 -84.5l-86 -606q-6 -52 -30 -77t-76 -25z" />
    <glyph glyph-name="T" unicode="T" horiz-adv-x="212" 
d="M68 0l206 1464h-55l8 72h191l-8 -72h-56l-207 -1464h-79z" />
    <glyph glyph-name="U" unicode="U" horiz-adv-x="229" 
d="M115 -8q-52 0 -70 25t-12 77l203 1442h79l-202 -1448q-4 -25 10 -25t18 25l203 1448h80l-203 -1442q-6 -52 -30 -77t-76 -25z" />
    <glyph glyph-name="V" unicode="V" horiz-adv-x="227" 
d="M39 0l188 1536h80l-162 -1274l-26 -190h12l27 190l194 1274h80l-242 -1536h-151z" />
    <glyph glyph-name="W" unicode="W" horiz-adv-x="389" 
d="M41 0l188 1536h80l-164 -1274l-26 -190h12l27 190l192 1274h123l-166 -1274l-26 -190h12l26 190l195 1274h80l-244 -1536h-137l195 1464h-11l-219 -1464h-137z" />
    <glyph glyph-name="X" unicode="X" horiz-adv-x="231" 
d="M20 0l105 741q7 51 45 68q-34 19 -27 70l93 657h79l-92 -668q-4 -22 10 -22q15 0 19 22l92 668h80l-92 -657q-7 -50 -45 -70q33 -16 26 -68l-104 -741h-80l107 752q2 22 -13 22q-14 0 -16 -22l-107 -752h-80z" />
    <glyph glyph-name="Y" unicode="Y" horiz-adv-x="229" 
d="M74 0l84 588q-51 16 -41 96l121 852h79l-120 -858q-5 -23 10 -23q13 0 18 23l121 858h80l-121 -852q-9 -79 -67 -96l-84 -588h-80z" />
    <glyph glyph-name="Z" unicode="Z" horiz-adv-x="180" 
d="M12 0l285 1464h-74l8 72h154l-4 -37l-281 -1427h72l-10 -72h-150z" />
    <glyph glyph-name="bracketleft" unicode="[" 
d="M207 403q-13 0 -19 -2v-200q4 -2 19 -2q37 0 50 25t13 77q0 54 -13 78t-50 24zM518 330v-49h-82v-78h96v-49h-155v297h155v-52h-96v-69h82zM203 150q-47 0 -74 4v292q61 9 76 9q67 0 96 -37.5t29 -116.5t-29.5 -115t-97.5 -36zM586 451h80l39 -164l38 164h82
q3 -45 13 -297h-60q0 108 -6 213l-41 -168h-55l-41 168h-2q-4 -140 -4 -213h-58q3 156 15 297zM987 150q-60 0 -84 35.5t-24 115.5q0 81 24 117.5t84 36.5t85.5 -37t25.5 -117q0 -79 -25.5 -115t-85.5 -36zM987 403q-29 0 -39 -23.5t-10 -78.5q0 -54 10 -78t39 -24
q30 0 40.5 24t10.5 78q0 55 -10 78.5t-41 23.5zM967 1016q49 0 79.5 -24.5t39 -51t8.5 -53.5q0 -43 -34.5 -72.5t-72.5 -34.5q-213 -23 -340 -147q3 8 9 22t25 53.5t39 75.5t50 80.5t59.5 76t66 53.5t71.5 22zM285 909q39 0 78 -21t69.5 -55t58.5 -74.5t48 -81.5t35 -75
t22 -55l8 -21q-117 148 -319 148q-49 0 -88 30t-39 76q0 53 33.5 91t93.5 38zM643 1214q38 -37 48.5 -102t-2.5 -131t-31.5 -126.5t-35.5 -98.5l-18 -39q20 191 -125 330q-35 35 -42 81.5t24 83.5q23 23 53 34t65 3.5t64 -35.5z" />
    <glyph glyph-name="backslash" unicode="\" 
d="M207 403q-13 0 -19 -2v-200q4 -2 19 -2q37 0 50 25t13 77q0 54 -13 78t-50 24zM518 330v-49h-82v-78h96v-49h-155v297h155v-52h-96v-69h82zM203 150q-47 0 -74 4v292q61 9 76 9q67 0 96 -37.5t29 -116.5t-29.5 -115t-97.5 -36zM586 451h80l39 -164l38 164h82
q3 -45 13 -297h-60q0 108 -6 213l-41 -168h-55l-41 168h-2q-4 -140 -4 -213h-58q3 156 15 297zM987 150q-60 0 -84 35.5t-24 115.5q0 81 24 117.5t84 36.5t85.5 -37t25.5 -117q0 -79 -25.5 -115t-85.5 -36zM987 403q-29 0 -39 -23.5t-10 -78.5q0 -54 10 -78t39 -24
q30 0 40.5 24t10.5 78q0 55 -10 78.5t-41 23.5zM967 1016q49 0 79.5 -24.5t39 -51t8.5 -53.5q0 -43 -34.5 -72.5t-72.5 -34.5q-213 -23 -340 -147q3 8 9 22t25 53.5t39 75.5t50 80.5t59.5 76t66 53.5t71.5 22zM285 909q39 0 78 -21t69.5 -55t58.5 -74.5t48 -81.5t35 -75
t22 -55l8 -21q-117 148 -319 148q-49 0 -88 30t-39 76q0 53 33.5 91t93.5 38zM643 1214q38 -37 48.5 -102t-2.5 -131t-31.5 -126.5t-35.5 -98.5l-18 -39q20 191 -125 330q-35 35 -42 81.5t24 83.5q23 23 53 34t65 3.5t64 -35.5z" />
    <glyph glyph-name="bracketright" unicode="]" 
d="M207 403q-13 0 -19 -2v-200q4 -2 19 -2q37 0 50 25t13 77q0 54 -13 78t-50 24zM518 330v-49h-82v-78h96v-49h-155v297h155v-52h-96v-69h82zM203 150q-47 0 -74 4v292q61 9 76 9q67 0 96 -37.5t29 -116.5t-29.5 -115t-97.5 -36zM586 451h80l39 -164l38 164h82
q3 -45 13 -297h-60q0 108 -6 213l-41 -168h-55l-41 168h-2q-4 -140 -4 -213h-58q3 156 15 297zM987 150q-60 0 -84 35.5t-24 115.5q0 81 24 117.5t84 36.5t85.5 -37t25.5 -117q0 -79 -25.5 -115t-85.5 -36zM987 403q-29 0 -39 -23.5t-10 -78.5q0 -54 10 -78t39 -24
q30 0 40.5 24t10.5 78q0 55 -10 78.5t-41 23.5zM967 1016q49 0 79.5 -24.5t39 -51t8.5 -53.5q0 -43 -34.5 -72.5t-72.5 -34.5q-213 -23 -340 -147q3 8 9 22t25 53.5t39 75.5t50 80.5t59.5 76t66 53.5t71.5 22zM285 909q39 0 78 -21t69.5 -55t58.5 -74.5t48 -81.5t35 -75
t22 -55l8 -21q-117 148 -319 148q-49 0 -88 30t-39 76q0 53 33.5 91t93.5 38zM643 1214q38 -37 48.5 -102t-2.5 -131t-31.5 -126.5t-35.5 -98.5l-18 -39q20 191 -125 330q-35 35 -42 81.5t24 83.5q23 23 53 34t65 3.5t64 -35.5z" />
    <glyph glyph-name="asciicircum" unicode="^" 
d="M207 403q-13 0 -19 -2v-200q4 -2 19 -2q37 0 50 25t13 77q0 54 -13 78t-50 24zM518 330v-49h-82v-78h96v-49h-155v297h155v-52h-96v-69h82zM203 150q-47 0 -74 4v292q61 9 76 9q67 0 96 -37.5t29 -116.5t-29.5 -115t-97.5 -36zM586 451h80l39 -164l38 164h82
q3 -45 13 -297h-60q0 108 -6 213l-41 -168h-55l-41 168h-2q-4 -140 -4 -213h-58q3 156 15 297zM987 150q-60 0 -84 35.5t-24 115.5q0 81 24 117.5t84 36.5t85.5 -37t25.5 -117q0 -79 -25.5 -115t-85.5 -36zM987 403q-29 0 -39 -23.5t-10 -78.5q0 -54 10 -78t39 -24
q30 0 40.5 24t10.5 78q0 55 -10 78.5t-41 23.5zM967 1016q49 0 79.5 -24.5t39 -51t8.5 -53.5q0 -43 -34.5 -72.5t-72.5 -34.5q-213 -23 -340 -147q3 8 9 22t25 53.5t39 75.5t50 80.5t59.5 76t66 53.5t71.5 22zM285 909q39 0 78 -21t69.5 -55t58.5 -74.5t48 -81.5t35 -75
t22 -55l8 -21q-117 148 -319 148q-49 0 -88 30t-39 76q0 53 33.5 91t93.5 38zM643 1214q38 -37 48.5 -102t-2.5 -131t-31.5 -126.5t-35.5 -98.5l-18 -39q20 191 -125 330q-35 35 -42 81.5t24 83.5q23 23 53 34t65 3.5t64 -35.5z" />
    <glyph glyph-name="underscore" unicode="_" 
d="M207 403q-13 0 -19 -2v-200q4 -2 19 -2q37 0 50 25t13 77q0 54 -13 78t-50 24zM518 330v-49h-82v-78h96v-49h-155v297h155v-52h-96v-69h82zM203 150q-47 0 -74 4v292q61 9 76 9q67 0 96 -37.5t29 -116.5t-29.5 -115t-97.5 -36zM586 451h80l39 -164l38 164h82
q3 -45 13 -297h-60q0 108 -6 213l-41 -168h-55l-41 168h-2q-4 -140 -4 -213h-58q3 156 15 297zM987 150q-60 0 -84 35.5t-24 115.5q0 81 24 117.5t84 36.5t85.5 -37t25.5 -117q0 -79 -25.5 -115t-85.5 -36zM987 403q-29 0 -39 -23.5t-10 -78.5q0 -54 10 -78t39 -24
q30 0 40.5 24t10.5 78q0 55 -10 78.5t-41 23.5zM967 1016q49 0 79.5 -24.5t39 -51t8.5 -53.5q0 -43 -34.5 -72.5t-72.5 -34.5q-213 -23 -340 -147q3 8 9 22t25 53.5t39 75.5t50 80.5t59.5 76t66 53.5t71.5 22zM285 909q39 0 78 -21t69.5 -55t58.5 -74.5t48 -81.5t35 -75
t22 -55l8 -21q-117 148 -319 148q-49 0 -88 30t-39 76q0 53 33.5 91t93.5 38zM643 1214q38 -37 48.5 -102t-2.5 -131t-31.5 -126.5t-35.5 -98.5l-18 -39q20 191 -125 330q-35 35 -42 81.5t24 83.5q23 23 53 34t65 3.5t64 -35.5z" />
    <glyph glyph-name="grave" unicode="`" 
d="M207 403q-13 0 -19 -2v-200q4 -2 19 -2q37 0 50 25t13 77q0 54 -13 78t-50 24zM518 330v-49h-82v-78h96v-49h-155v297h155v-52h-96v-69h82zM203 150q-47 0 -74 4v292q61 9 76 9q67 0 96 -37.5t29 -116.5t-29.5 -115t-97.5 -36zM586 451h80l39 -164l38 164h82
q3 -45 13 -297h-60q0 108 -6 213l-41 -168h-55l-41 168h-2q-4 -140 -4 -213h-58q3 156 15 297zM987 150q-60 0 -84 35.5t-24 115.5q0 81 24 117.5t84 36.5t85.5 -37t25.5 -117q0 -79 -25.5 -115t-85.5 -36zM987 403q-29 0 -39 -23.5t-10 -78.5q0 -54 10 -78t39 -24
q30 0 40.5 24t10.5 78q0 55 -10 78.5t-41 23.5zM967 1016q49 0 79.5 -24.5t39 -51t8.5 -53.5q0 -43 -34.5 -72.5t-72.5 -34.5q-213 -23 -340 -147q3 8 9 22t25 53.5t39 75.5t50 80.5t59.5 76t66 53.5t71.5 22zM285 909q39 0 78 -21t69.5 -55t58.5 -74.5t48 -81.5t35 -75
t22 -55l8 -21q-117 148 -319 148q-49 0 -88 30t-39 76q0 53 33.5 91t93.5 38zM643 1214q38 -37 48.5 -102t-2.5 -131t-31.5 -126.5t-35.5 -98.5l-18 -39q20 191 -125 330q-35 35 -42 81.5t24 83.5q23 23 53 34t65 3.5t64 -35.5z" />
    <glyph glyph-name="a" unicode="a" horiz-adv-x="223" 
d="M84 -8q-63 0 -51 88l71 514q8 53 32 77.5t75 24.5h14l41 301q4 23 -10 23t-18 -23l-37 -272h-78l37 262q8 50 32.5 74t73.5 24t66.5 -23.5t9.5 -74.5l-137 -987h-53l-11 31q-17 -39 -57 -39zM121 57q14 0 16 23l78 551h-14q-15 0 -17 -23l-75 -528q-2 -23 12 -23z" />
    <glyph glyph-name="b" unicode="b" horiz-adv-x="225" 
d="M20 0l216 1536h77l-67 -481q18 30 47 30q32 0 44.5 -19.5t6.5 -64.5l-129 -921q-12 -88 -78 -88q-40 0 -45 41l-18 -33h-54zM121 57q12 0 16 23l129 917q4 25 -10 25t-18 -25l-129 -917q-4 -23 12 -23z" />
    <glyph glyph-name="c" unicode="c" horiz-adv-x="223" 
d="M111 -8q-94 0 -78 98l127 899q12 96 104 96q48 0 66 -23.5t12 -72.5l-55 -397h-78l57 405q2 25 -12 25t-16 -25l-129 -915q-4 -25 10 -25t18 25l66 471h78l-66 -463q-12 -98 -104 -98z" />
    <glyph glyph-name="d" unicode="d" horiz-adv-x="223" 
d="M84 -8q-65 0 -51 88l129 921q11 84 76 84q31 0 36 -28l68 479h78l-217 -1536h-53l-9 33q-6 -15 -20.5 -28t-36.5 -13zM121 57q14 0 16 23l129 917q4 25 -10 25t-18 -25l-129 -917q-2 -23 12 -23z" />
    <glyph glyph-name="e" unicode="e" horiz-adv-x="223" 
d="M111 -8q-48 0 -66 23.5t-12 74.5l127 899q12 96 104 96q93 0 78 -96l-68 -487h-106l-59 -422q-2 -23 12 -23t16 23l56 389h77l-53 -379q-8 -50 -32.5 -74t-73.5 -24zM176 559h29l61 438q4 25 -10 25t-18 -25z" />
    <glyph glyph-name="f" unicode="f" horiz-adv-x="182" 
d="M49 0l144 1018h-37l8 61h37l53 375q4 44 24 63t60 19h47l-8 -63h-29q-13 0 -16 -15l-53 -379h43l-9 -61h-43l-143 -1018h-78z" />
    <glyph glyph-name="g" unicode="g" horiz-adv-x="225" 
d="M84 -8q-65 0 -51 84l129 921q12 88 78 88q38 0 43 -38l20 30h53l-202 -1442q-16 -98 -107 -98q-48 0 -66 24.5t-12 73.5l43 308h78l-45 -318q-1 -10 1.5 -15.5t4.5 -6t6 -0.5h3t3.5 1t4 3t3.5 6.5t3 11.5l57 398q-15 -31 -47 -31zM121 57q14 0 18 23l129 917q2 23 -12 23
t-16 -23l-129 -917q-4 -23 10 -23z" />
    <glyph glyph-name="h" unicode="h" horiz-adv-x="223" 
d="M20 0l218 1536h75l-65 -479q3 10 15.5 19t29.5 9q65 0 51 -84l-139 -1001h-78l139 997q4 25 -10 25t-18 -25l-140 -997h-78z" />
    <glyph glyph-name="i" unicode="i" horiz-adv-x="118" 
d="M190 1221l11 86h80l-11 -86h-80zM20 0l152 1079h76l-152 -1079h-76z" />
    <glyph glyph-name="j" unicode="j" horiz-adv-x="124" 
d="M199 1221l10 86h80l-10 -86h-80zM-90 -463l10 66h37q9 0 11.5 3t4.5 11l205 1462h78l-205 -1460q-6 -43 -26 -62.5t-60 -19.5h-55z" />
    <glyph glyph-name="k" unicode="k" horiz-adv-x="223" 
d="M313 1536l-127 -911h15q13 0 16 16l62 438h77l-59 -426q-10 -63 -68 -63q57 0 50 -64l-74 -526h-78l76 539q3 16 -13 16h-14l-78 -555h-78l218 1536h75z" />
    <glyph glyph-name="l" unicode="l" horiz-adv-x="118" 
d="M98 0h-78l216 1536h77z" />
    <glyph glyph-name="m" unicode="m" horiz-adv-x="329" 
d="M20 0l152 1079h51l10 -32q4 13 19.5 25.5t38.5 12.5q41 0 49 -32q20 32 57 32q66 0 52 -86l-140 -999h-78l142 999q2 23 -13 23q-12 0 -16 -23l-141 -999h-78l141 999q4 23 -12 23q-14 0 -16 -23l-142 -999h-76z" />
    <glyph glyph-name="n" unicode="n" horiz-adv-x="223" 
d="M20 0l152 1079h53l11 -32q16 38 55 38q64 0 53 -86l-141 -999h-76l139 999q4 23 -10 23t-18 -23l-140 -999h-78z" />
    <glyph glyph-name="o" unicode="o" horiz-adv-x="223" 
d="M113 -8q-94 0 -78 98l125 899q8 49 33 72.5t73 23.5t66 -23.5t12 -72.5l-127 -899q-8 -49 -32 -73.5t-72 -24.5zM121 57q14 0 18 25l127 915q4 25 -10 25t-18 -25l-127 -915q-4 -25 10 -25z" />
    <glyph glyph-name="p" unicode="p" horiz-adv-x="225" 
d="M139 -8q-18 0 -27.5 10t-9.5 21l-69 -486h-78l217 1542h53l8 -32q22 38 60 38q62 0 51 -86l-131 -921q-11 -86 -74 -86zM121 57q12 0 16 25l129 917q4 23 -10 23t-18 -23l-129 -917q-4 -25 12 -25z" />
    <glyph glyph-name="q" unicode="q" horiz-adv-x="225" 
d="M84 -8q-64 0 -53 86l131 921q11 86 78 86q38 0 43 -38l18 32h53l-217 -1542h-76l70 486q-21 -31 -47 -31zM121 57q14 0 16 25l129 917q4 23 -10 23t-18 -23l-129 -917q-4 -25 12 -25z" />
    <glyph glyph-name="r" unicode="r" horiz-adv-x="223" 
d="M20 0l152 1079h53l11 -32q16 38 55 38q64 0 53 -86l-57 -403h-76l55 403q4 23 -10 23t-18 -23l-140 -999h-78z" />
    <glyph glyph-name="s" unicode="s" horiz-adv-x="223" 
d="M111 -8q-49 0 -66.5 23.5t-9.5 74.5l47 344h78l-51 -354q-2 -23 12 -23t16 23l56 379q3 27 -4 40.5t-29 32.5q-33 27 -42.5 52.5t-2.5 83.5l45 319q8 50 32.5 74t73.5 24t66.5 -23.5t9.5 -74.5l-43 -313h-78l47 323q2 23 -12 23t-16 -23l-47 -333q-1 -6 -1 -11.5
t-0.5 -9.5t1 -8t1.5 -6.5t3 -6.5t3.5 -6t5 -6t6 -5.5t7.5 -7t8 -7.5q30 -23 39.5 -47t1.5 -82l-51 -371q-8 -50 -32.5 -74t-73.5 -24z" />
    <glyph glyph-name="t" unicode="t" horiz-adv-x="180" 
d="M123 0q-41 0 -55.5 19.5t-8.5 62.5l134 936h-37l8 61h37l39 279h77l-41 -279h43l-8 -61h-43l-131 -938q-3 -14 13 -14h28l-10 -66h-45z" />
    <glyph glyph-name="u" unicode="u" horiz-adv-x="223" 
d="M84 -8q-65 0 -53 88l141 999h76l-139 -999q-4 -23 10 -23t18 23l139 999h78l-151 -1079h-53l-11 33q-15 -41 -55 -41z" />
    <glyph glyph-name="v" unicode="v" horiz-adv-x="223" 
d="M43 0l121 1079h78l-90 -753l-35 -250h10l35 250l123 753h77l-184 -1079h-135z" />
    <glyph glyph-name="w" unicode="w" horiz-adv-x="374" 
d="M45 0l119 1079h78l-88 -753l-35 -250h10l35 250l121 753h110l-90 -753l-35 -250h11l34 250l123 753h78l-184 -1079h-129l96 754l35 250h-8l-35 -250l-117 -754h-129z" />
    <glyph glyph-name="x" unicode="x" horiz-adv-x="225" 
d="M20 0l74 526q11 64 64 64q-28 0 -39 17.5t-6 45.5l59 426h78l-62 -438q-3 -16 13 -16q13 0 16 16l62 438h75l-59 -426q-3 -28 -20 -45.5t-46 -17.5q29 0 40.5 -18t6.5 -46l-73 -526h-76l76 539q0 16 -13 16q-16 0 -16 -16l-76 -539h-78z" />
    <glyph glyph-name="y" unicode="y" horiz-adv-x="225" 
d="M82 -8q-62 0 -51 84l141 1001h76l-139 -997q-4 -23 10 -23t18 23l139 997h78l-202 -1442q-12 -98 -105 -98q-94 0 -78 98l43 308h76l-43 -318q-3 -11 0 -16t4.5 -5.5t5.5 -0.5t6 0.5t6.5 6t6.5 15.5l55 398q-15 -31 -47 -31z" />
    <glyph glyph-name="z" unicode="z" horiz-adv-x="176" 
d="M12 0l6 37l215 973h-77l8 69h153l-4 -37l-215 -972h78l-10 -70h-154z" />
    <glyph glyph-name="braceleft" unicode="{" 
d="M207 403q-13 0 -19 -2v-200q4 -2 19 -2q37 0 50 25t13 77q0 54 -13 78t-50 24zM518 330v-49h-82v-78h96v-49h-155v297h155v-52h-96v-69h82zM203 150q-47 0 -74 4v292q61 9 76 9q67 0 96 -37.5t29 -116.5t-29.5 -115t-97.5 -36zM586 451h80l39 -164l38 164h82
q3 -45 13 -297h-60q0 108 -6 213l-41 -168h-55l-41 168h-2q-4 -140 -4 -213h-58q3 156 15 297zM987 150q-60 0 -84 35.5t-24 115.5q0 81 24 117.5t84 36.5t85.5 -37t25.5 -117q0 -79 -25.5 -115t-85.5 -36zM987 403q-29 0 -39 -23.5t-10 -78.5q0 -54 10 -78t39 -24
q30 0 40.5 24t10.5 78q0 55 -10 78.5t-41 23.5zM967 1016q49 0 79.5 -24.5t39 -51t8.5 -53.5q0 -43 -34.5 -72.5t-72.5 -34.5q-213 -23 -340 -147q3 8 9 22t25 53.5t39 75.5t50 80.5t59.5 76t66 53.5t71.5 22zM285 909q39 0 78 -21t69.5 -55t58.5 -74.5t48 -81.5t35 -75
t22 -55l8 -21q-117 148 -319 148q-49 0 -88 30t-39 76q0 53 33.5 91t93.5 38zM643 1214q38 -37 48.5 -102t-2.5 -131t-31.5 -126.5t-35.5 -98.5l-18 -39q20 191 -125 330q-35 35 -42 81.5t24 83.5q23 23 53 34t65 3.5t64 -35.5z" />
    <glyph glyph-name="bar" unicode="|" 
d="M207 403q-13 0 -19 -2v-200q4 -2 19 -2q37 0 50 25t13 77q0 54 -13 78t-50 24zM518 330v-49h-82v-78h96v-49h-155v297h155v-52h-96v-69h82zM203 150q-47 0 -74 4v292q61 9 76 9q67 0 96 -37.5t29 -116.5t-29.5 -115t-97.5 -36zM586 451h80l39 -164l38 164h82
q3 -45 13 -297h-60q0 108 -6 213l-41 -168h-55l-41 168h-2q-4 -140 -4 -213h-58q3 156 15 297zM987 150q-60 0 -84 35.5t-24 115.5q0 81 24 117.5t84 36.5t85.5 -37t25.5 -117q0 -79 -25.5 -115t-85.5 -36zM987 403q-29 0 -39 -23.5t-10 -78.5q0 -54 10 -78t39 -24
q30 0 40.5 24t10.5 78q0 55 -10 78.5t-41 23.5zM967 1016q49 0 79.5 -24.5t39 -51t8.5 -53.5q0 -43 -34.5 -72.5t-72.5 -34.5q-213 -23 -340 -147q3 8 9 22t25 53.5t39 75.5t50 80.5t59.5 76t66 53.5t71.5 22zM285 909q39 0 78 -21t69.5 -55t58.5 -74.5t48 -81.5t35 -75
t22 -55l8 -21q-117 148 -319 148q-49 0 -88 30t-39 76q0 53 33.5 91t93.5 38zM643 1214q38 -37 48.5 -102t-2.5 -131t-31.5 -126.5t-35.5 -98.5l-18 -39q20 191 -125 330q-35 35 -42 81.5t24 83.5q23 23 53 34t65 3.5t64 -35.5z" />
    <glyph glyph-name="braceright" unicode="}" 
d="M207 403q-13 0 -19 -2v-200q4 -2 19 -2q37 0 50 25t13 77q0 54 -13 78t-50 24zM518 330v-49h-82v-78h96v-49h-155v297h155v-52h-96v-69h82zM203 150q-47 0 -74 4v292q61 9 76 9q67 0 96 -37.5t29 -116.5t-29.5 -115t-97.5 -36zM586 451h80l39 -164l38 164h82
q3 -45 13 -297h-60q0 108 -6 213l-41 -168h-55l-41 168h-2q-4 -140 -4 -213h-58q3 156 15 297zM987 150q-60 0 -84 35.5t-24 115.5q0 81 24 117.5t84 36.5t85.5 -37t25.5 -117q0 -79 -25.5 -115t-85.5 -36zM987 403q-29 0 -39 -23.5t-10 -78.5q0 -54 10 -78t39 -24
q30 0 40.5 24t10.5 78q0 55 -10 78.5t-41 23.5zM967 1016q49 0 79.5 -24.5t39 -51t8.5 -53.5q0 -43 -34.5 -72.5t-72.5 -34.5q-213 -23 -340 -147q3 8 9 22t25 53.5t39 75.5t50 80.5t59.5 76t66 53.5t71.5 22zM285 909q39 0 78 -21t69.5 -55t58.5 -74.5t48 -81.5t35 -75
t22 -55l8 -21q-117 148 -319 148q-49 0 -88 30t-39 76q0 53 33.5 91t93.5 38zM643 1214q38 -37 48.5 -102t-2.5 -131t-31.5 -126.5t-35.5 -98.5l-18 -39q20 191 -125 330q-35 35 -42 81.5t24 83.5q23 23 53 34t65 3.5t64 -35.5z" />
    <glyph glyph-name="asciitilde" unicode="~" 
d="M207 403q-13 0 -19 -2v-200q4 -2 19 -2q37 0 50 25t13 77q0 54 -13 78t-50 24zM518 330v-49h-82v-78h96v-49h-155v297h155v-52h-96v-69h82zM203 150q-47 0 -74 4v292q61 9 76 9q67 0 96 -37.5t29 -116.5t-29.5 -115t-97.5 -36zM586 451h80l39 -164l38 164h82
q3 -45 13 -297h-60q0 108 -6 213l-41 -168h-55l-41 168h-2q-4 -140 -4 -213h-58q3 156 15 297zM987 150q-60 0 -84 35.5t-24 115.5q0 81 24 117.5t84 36.5t85.5 -37t25.5 -117q0 -79 -25.5 -115t-85.5 -36zM987 403q-29 0 -39 -23.5t-10 -78.5q0 -54 10 -78t39 -24
q30 0 40.5 24t10.5 78q0 55 -10 78.5t-41 23.5zM967 1016q49 0 79.5 -24.5t39 -51t8.5 -53.5q0 -43 -34.5 -72.5t-72.5 -34.5q-213 -23 -340 -147q3 8 9 22t25 53.5t39 75.5t50 80.5t59.5 76t66 53.5t71.5 22zM285 909q39 0 78 -21t69.5 -55t58.5 -74.5t48 -81.5t35 -75
t22 -55l8 -21q-117 148 -319 148q-49 0 -88 30t-39 76q0 53 33.5 91t93.5 38zM643 1214q38 -37 48.5 -102t-2.5 -131t-31.5 -126.5t-35.5 -98.5l-18 -39q20 191 -125 330q-35 35 -42 81.5t24 83.5q23 23 53 34t65 3.5t64 -35.5z" />
    </font>
</defs>
</svg>
