<?xml version="1.0" standalone="no"?>
<!DOCTYPE svg PUBLIC "-//W3C//DTD SVG 1.1//EN" "http://www.w3.org/Graphics/SVG/1.1/DTD/svg11.dtd" >
<svg xmlns="http://www.w3.org/2000/svg" xmlns:xlink="http://www.w3.org/1999/xlink" version="1.1">
<metadata>
Created by FontForge 20201107 at Thu Feb  6 13:49:21 2025
 By 
Copyright (c) 2020 by Artegra. All rights reserved.
</metadata>
<defs>
<font id="FONTSPRINGDEMO-ProcerusBlackItalic" horiz-adv-x="1224" >
  <font-face 
    font-family="FSP DEMO - Procerus Black"
    font-weight="900"
    font-style="italic"
    font-stretch="ultra-condensed"
    units-per-em="2048"
    panose-1="2 0 5 6 4 0 0 2 0 4"
    ascent="1585"
    descent="-463"
    x-height="1147"
    cap-height="1536"
    bbox="-127 -463 1624 1556"
    underline-thickness="102"
    underline-position="-204"
    slope="-8"
    unicode-range="U+000D-007E"
  />
<missing-glyph 
d="M207 403q-13 0 -19 -2v-200q4 -2 19 -2q37 0 50 25t13 77q0 54 -13 78t-50 24zM518 330v-49h-82v-78h96v-49h-155v297h155v-52h-96v-69h82zM203 150q-47 0 -74 4v292q61 9 76 9q67 0 96 -37.5t29 -116.5t-29.5 -115t-97.5 -36zM586 451h80l39 -164l38 164h82
q3 -45 13 -297h-60q0 108 -6 213l-41 -168h-55l-41 168h-2q-4 -140 -4 -213h-58q3 156 15 297zM987 150q-60 0 -84 35.5t-24 115.5q0 81 24 117.5t84 36.5t85.5 -37t25.5 -117q0 -79 -25.5 -115t-85.5 -36zM987 403q-29 0 -39 -23.5t-10 -78.5q0 -54 10 -78t39 -24
q30 0 40.5 24t10.5 78q0 55 -10 78.5t-41 23.5zM967 1016q49 0 79.5 -24.5t39 -51t8.5 -53.5q0 -43 -34.5 -72.5t-72.5 -34.5q-213 -23 -340 -147q3 8 9 22t25 53.5t39 75.5t50 80.5t59.5 76t66 53.5t71.5 22zM285 909q39 0 78 -21t69.5 -55t58.5 -74.5t48 -81.5t35 -75
t22 -55l8 -21q-117 148 -319 148q-49 0 -88 30t-39 76q0 53 33.5 91t93.5 38zM643 1214q38 -37 48.5 -102t-2.5 -131t-31.5 -126.5t-35.5 -98.5l-18 -39q20 191 -125 330q-35 35 -42 81.5t24 83.5q23 23 53 34t65 3.5t64 -35.5z" />
    <glyph glyph-name=".notdef" 
d="M207 403q-13 0 -19 -2v-200q4 -2 19 -2q37 0 50 25t13 77q0 54 -13 78t-50 24zM518 330v-49h-82v-78h96v-49h-155v297h155v-52h-96v-69h82zM203 150q-47 0 -74 4v292q61 9 76 9q67 0 96 -37.5t29 -116.5t-29.5 -115t-97.5 -36zM586 451h80l39 -164l38 164h82
q3 -45 13 -297h-60q0 108 -6 213l-41 -168h-55l-41 168h-2q-4 -140 -4 -213h-58q3 156 15 297zM987 150q-60 0 -84 35.5t-24 115.5q0 81 24 117.5t84 36.5t85.5 -37t25.5 -117q0 -79 -25.5 -115t-85.5 -36zM987 403q-29 0 -39 -23.5t-10 -78.5q0 -54 10 -78t39 -24
q30 0 40.5 24t10.5 78q0 55 -10 78.5t-41 23.5zM967 1016q49 0 79.5 -24.5t39 -51t8.5 -53.5q0 -43 -34.5 -72.5t-72.5 -34.5q-213 -23 -340 -147q3 8 9 22t25 53.5t39 75.5t50 80.5t59.5 76t66 53.5t71.5 22zM285 909q39 0 78 -21t69.5 -55t58.5 -74.5t48 -81.5t35 -75
t22 -55l8 -21q-117 148 -319 148q-49 0 -88 30t-39 76q0 53 33.5 91t93.5 38zM643 1214q38 -37 48.5 -102t-2.5 -131t-31.5 -126.5t-35.5 -98.5l-18 -39q20 191 -125 330q-35 35 -42 81.5t24 83.5q23 23 53 34t65 3.5t64 -35.5z" />
    <glyph glyph-name="uni0000" horiz-adv-x="0" 
 />
    <glyph glyph-name="uni0000" horiz-adv-x="0" 
 />
    <glyph glyph-name="uni000D" unicode="&#xd;" horiz-adv-x="512" 
 />
    <glyph glyph-name="space" unicode=" " horiz-adv-x="225" 
 />
    <glyph glyph-name="exclam" unicode="!" 
d="M207 403q-13 0 -19 -2v-200q4 -2 19 -2q37 0 50 25t13 77q0 54 -13 78t-50 24zM518 330v-49h-82v-78h96v-49h-155v297h155v-52h-96v-69h82zM203 150q-47 0 -74 4v292q61 9 76 9q67 0 96 -37.5t29 -116.5t-29.5 -115t-97.5 -36zM586 451h80l39 -164l38 164h82
q3 -45 13 -297h-60q0 108 -6 213l-41 -168h-55l-41 168h-2q-4 -140 -4 -213h-58q3 156 15 297zM987 150q-60 0 -84 35.5t-24 115.5q0 81 24 117.5t84 36.5t85.5 -37t25.5 -117q0 -79 -25.5 -115t-85.5 -36zM987 403q-29 0 -39 -23.5t-10 -78.5q0 -54 10 -78t39 -24
q30 0 40.5 24t10.5 78q0 55 -10 78.5t-41 23.5zM967 1016q49 0 79.5 -24.5t39 -51t8.5 -53.5q0 -43 -34.5 -72.5t-72.5 -34.5q-213 -23 -340 -147q3 8 9 22t25 53.5t39 75.5t50 80.5t59.5 76t66 53.5t71.5 22zM285 909q39 0 78 -21t69.5 -55t58.5 -74.5t48 -81.5t35 -75
t22 -55l8 -21q-117 148 -319 148q-49 0 -88 30t-39 76q0 53 33.5 91t93.5 38zM643 1214q38 -37 48.5 -102t-2.5 -131t-31.5 -126.5t-35.5 -98.5l-18 -39q20 191 -125 330q-35 35 -42 81.5t24 83.5q23 23 53 34t65 3.5t64 -35.5z" />
    <glyph glyph-name="quotedbl" unicode="&#x22;" 
d="M207 403q-13 0 -19 -2v-200q4 -2 19 -2q37 0 50 25t13 77q0 54 -13 78t-50 24zM518 330v-49h-82v-78h96v-49h-155v297h155v-52h-96v-69h82zM203 150q-47 0 -74 4v292q61 9 76 9q67 0 96 -37.5t29 -116.5t-29.5 -115t-97.5 -36zM586 451h80l39 -164l38 164h82
q3 -45 13 -297h-60q0 108 -6 213l-41 -168h-55l-41 168h-2q-4 -140 -4 -213h-58q3 156 15 297zM987 150q-60 0 -84 35.5t-24 115.5q0 81 24 117.5t84 36.5t85.5 -37t25.5 -117q0 -79 -25.5 -115t-85.5 -36zM987 403q-29 0 -39 -23.5t-10 -78.5q0 -54 10 -78t39 -24
q30 0 40.5 24t10.5 78q0 55 -10 78.5t-41 23.5zM967 1016q49 0 79.5 -24.5t39 -51t8.5 -53.5q0 -43 -34.5 -72.5t-72.5 -34.5q-213 -23 -340 -147q3 8 9 22t25 53.5t39 75.5t50 80.5t59.5 76t66 53.5t71.5 22zM285 909q39 0 78 -21t69.5 -55t58.5 -74.5t48 -81.5t35 -75
t22 -55l8 -21q-117 148 -319 148q-49 0 -88 30t-39 76q0 53 33.5 91t93.5 38zM643 1214q38 -37 48.5 -102t-2.5 -131t-31.5 -126.5t-35.5 -98.5l-18 -39q20 191 -125 330q-35 35 -42 81.5t24 83.5q23 23 53 34t65 3.5t64 -35.5z" />
    <glyph glyph-name="numbersign" unicode="#" 
d="M207 403q-13 0 -19 -2v-200q4 -2 19 -2q37 0 50 25t13 77q0 54 -13 78t-50 24zM518 330v-49h-82v-78h96v-49h-155v297h155v-52h-96v-69h82zM203 150q-47 0 -74 4v292q61 9 76 9q67 0 96 -37.5t29 -116.5t-29.5 -115t-97.5 -36zM586 451h80l39 -164l38 164h82
q3 -45 13 -297h-60q0 108 -6 213l-41 -168h-55l-41 168h-2q-4 -140 -4 -213h-58q3 156 15 297zM987 150q-60 0 -84 35.5t-24 115.5q0 81 24 117.5t84 36.5t85.5 -37t25.5 -117q0 -79 -25.5 -115t-85.5 -36zM987 403q-29 0 -39 -23.5t-10 -78.5q0 -54 10 -78t39 -24
q30 0 40.5 24t10.5 78q0 55 -10 78.5t-41 23.5zM967 1016q49 0 79.5 -24.5t39 -51t8.5 -53.5q0 -43 -34.5 -72.5t-72.5 -34.5q-213 -23 -340 -147q3 8 9 22t25 53.5t39 75.5t50 80.5t59.5 76t66 53.5t71.5 22zM285 909q39 0 78 -21t69.5 -55t58.5 -74.5t48 -81.5t35 -75
t22 -55l8 -21q-117 148 -319 148q-49 0 -88 30t-39 76q0 53 33.5 91t93.5 38zM643 1214q38 -37 48.5 -102t-2.5 -131t-31.5 -126.5t-35.5 -98.5l-18 -39q20 191 -125 330q-35 35 -42 81.5t24 83.5q23 23 53 34t65 3.5t64 -35.5z" />
    <glyph glyph-name="dollar" unicode="$" 
d="M207 403q-13 0 -19 -2v-200q4 -2 19 -2q37 0 50 25t13 77q0 54 -13 78t-50 24zM518 330v-49h-82v-78h96v-49h-155v297h155v-52h-96v-69h82zM203 150q-47 0 -74 4v292q61 9 76 9q67 0 96 -37.5t29 -116.5t-29.5 -115t-97.5 -36zM586 451h80l39 -164l38 164h82
q3 -45 13 -297h-60q0 108 -6 213l-41 -168h-55l-41 168h-2q-4 -140 -4 -213h-58q3 156 15 297zM987 150q-60 0 -84 35.5t-24 115.5q0 81 24 117.5t84 36.5t85.5 -37t25.5 -117q0 -79 -25.5 -115t-85.5 -36zM987 403q-29 0 -39 -23.5t-10 -78.5q0 -54 10 -78t39 -24
q30 0 40.5 24t10.5 78q0 55 -10 78.5t-41 23.5zM967 1016q49 0 79.5 -24.5t39 -51t8.5 -53.5q0 -43 -34.5 -72.5t-72.5 -34.5q-213 -23 -340 -147q3 8 9 22t25 53.5t39 75.5t50 80.5t59.5 76t66 53.5t71.5 22zM285 909q39 0 78 -21t69.5 -55t58.5 -74.5t48 -81.5t35 -75
t22 -55l8 -21q-117 148 -319 148q-49 0 -88 30t-39 76q0 53 33.5 91t93.5 38zM643 1214q38 -37 48.5 -102t-2.5 -131t-31.5 -126.5t-35.5 -98.5l-18 -39q20 191 -125 330q-35 35 -42 81.5t24 83.5q23 23 53 34t65 3.5t64 -35.5z" />
    <glyph glyph-name="percent" unicode="%" 
d="M207 403q-13 0 -19 -2v-200q4 -2 19 -2q37 0 50 25t13 77q0 54 -13 78t-50 24zM518 330v-49h-82v-78h96v-49h-155v297h155v-52h-96v-69h82zM203 150q-47 0 -74 4v292q61 9 76 9q67 0 96 -37.5t29 -116.5t-29.5 -115t-97.5 -36zM586 451h80l39 -164l38 164h82
q3 -45 13 -297h-60q0 108 -6 213l-41 -168h-55l-41 168h-2q-4 -140 -4 -213h-58q3 156 15 297zM987 150q-60 0 -84 35.5t-24 115.5q0 81 24 117.5t84 36.5t85.5 -37t25.5 -117q0 -79 -25.5 -115t-85.5 -36zM987 403q-29 0 -39 -23.5t-10 -78.5q0 -54 10 -78t39 -24
q30 0 40.5 24t10.5 78q0 55 -10 78.5t-41 23.5zM967 1016q49 0 79.5 -24.5t39 -51t8.5 -53.5q0 -43 -34.5 -72.5t-72.5 -34.5q-213 -23 -340 -147q3 8 9 22t25 53.5t39 75.5t50 80.5t59.5 76t66 53.5t71.5 22zM285 909q39 0 78 -21t69.5 -55t58.5 -74.5t48 -81.5t35 -75
t22 -55l8 -21q-117 148 -319 148q-49 0 -88 30t-39 76q0 53 33.5 91t93.5 38zM643 1214q38 -37 48.5 -102t-2.5 -131t-31.5 -126.5t-35.5 -98.5l-18 -39q20 191 -125 330q-35 35 -42 81.5t24 83.5q23 23 53 34t65 3.5t64 -35.5z" />
    <glyph glyph-name="ampersand" unicode="&#x26;" 
d="M207 403q-13 0 -19 -2v-200q4 -2 19 -2q37 0 50 25t13 77q0 54 -13 78t-50 24zM518 330v-49h-82v-78h96v-49h-155v297h155v-52h-96v-69h82zM203 150q-47 0 -74 4v292q61 9 76 9q67 0 96 -37.5t29 -116.5t-29.5 -115t-97.5 -36zM586 451h80l39 -164l38 164h82
q3 -45 13 -297h-60q0 108 -6 213l-41 -168h-55l-41 168h-2q-4 -140 -4 -213h-58q3 156 15 297zM987 150q-60 0 -84 35.5t-24 115.5q0 81 24 117.5t84 36.5t85.5 -37t25.5 -117q0 -79 -25.5 -115t-85.5 -36zM987 403q-29 0 -39 -23.5t-10 -78.5q0 -54 10 -78t39 -24
q30 0 40.5 24t10.5 78q0 55 -10 78.5t-41 23.5zM967 1016q49 0 79.5 -24.5t39 -51t8.5 -53.5q0 -43 -34.5 -72.5t-72.5 -34.5q-213 -23 -340 -147q3 8 9 22t25 53.5t39 75.5t50 80.5t59.5 76t66 53.5t71.5 22zM285 909q39 0 78 -21t69.5 -55t58.5 -74.5t48 -81.5t35 -75
t22 -55l8 -21q-117 148 -319 148q-49 0 -88 30t-39 76q0 53 33.5 91t93.5 38zM643 1214q38 -37 48.5 -102t-2.5 -131t-31.5 -126.5t-35.5 -98.5l-18 -39q20 191 -125 330q-35 35 -42 81.5t24 83.5q23 23 53 34t65 3.5t64 -35.5z" />
    <glyph glyph-name="quotesingle" unicode="'" 
d="M207 403q-13 0 -19 -2v-200q4 -2 19 -2q37 0 50 25t13 77q0 54 -13 78t-50 24zM518 330v-49h-82v-78h96v-49h-155v297h155v-52h-96v-69h82zM203 150q-47 0 -74 4v292q61 9 76 9q67 0 96 -37.5t29 -116.5t-29.5 -115t-97.5 -36zM586 451h80l39 -164l38 164h82
q3 -45 13 -297h-60q0 108 -6 213l-41 -168h-55l-41 168h-2q-4 -140 -4 -213h-58q3 156 15 297zM987 150q-60 0 -84 35.5t-24 115.5q0 81 24 117.5t84 36.5t85.5 -37t25.5 -117q0 -79 -25.5 -115t-85.5 -36zM987 403q-29 0 -39 -23.5t-10 -78.5q0 -54 10 -78t39 -24
q30 0 40.5 24t10.5 78q0 55 -10 78.5t-41 23.5zM967 1016q49 0 79.5 -24.5t39 -51t8.5 -53.5q0 -43 -34.5 -72.5t-72.5 -34.5q-213 -23 -340 -147q3 8 9 22t25 53.5t39 75.5t50 80.5t59.5 76t66 53.5t71.5 22zM285 909q39 0 78 -21t69.5 -55t58.5 -74.5t48 -81.5t35 -75
t22 -55l8 -21q-117 148 -319 148q-49 0 -88 30t-39 76q0 53 33.5 91t93.5 38zM643 1214q38 -37 48.5 -102t-2.5 -131t-31.5 -126.5t-35.5 -98.5l-18 -39q20 191 -125 330q-35 35 -42 81.5t24 83.5q23 23 53 34t65 3.5t64 -35.5z" />
    <glyph glyph-name="parenleft" unicode="(" 
d="M207 403q-13 0 -19 -2v-200q4 -2 19 -2q37 0 50 25t13 77q0 54 -13 78t-50 24zM518 330v-49h-82v-78h96v-49h-155v297h155v-52h-96v-69h82zM203 150q-47 0 -74 4v292q61 9 76 9q67 0 96 -37.5t29 -116.5t-29.5 -115t-97.5 -36zM586 451h80l39 -164l38 164h82
q3 -45 13 -297h-60q0 108 -6 213l-41 -168h-55l-41 168h-2q-4 -140 -4 -213h-58q3 156 15 297zM987 150q-60 0 -84 35.5t-24 115.5q0 81 24 117.5t84 36.5t85.5 -37t25.5 -117q0 -79 -25.5 -115t-85.5 -36zM987 403q-29 0 -39 -23.5t-10 -78.5q0 -54 10 -78t39 -24
q30 0 40.5 24t10.5 78q0 55 -10 78.5t-41 23.5zM967 1016q49 0 79.5 -24.5t39 -51t8.5 -53.5q0 -43 -34.5 -72.5t-72.5 -34.5q-213 -23 -340 -147q3 8 9 22t25 53.5t39 75.5t50 80.5t59.5 76t66 53.5t71.5 22zM285 909q39 0 78 -21t69.5 -55t58.5 -74.5t48 -81.5t35 -75
t22 -55l8 -21q-117 148 -319 148q-49 0 -88 30t-39 76q0 53 33.5 91t93.5 38zM643 1214q38 -37 48.5 -102t-2.5 -131t-31.5 -126.5t-35.5 -98.5l-18 -39q20 191 -125 330q-35 35 -42 81.5t24 83.5q23 23 53 34t65 3.5t64 -35.5z" />
    <glyph glyph-name="parenright" unicode=")" 
d="M207 403q-13 0 -19 -2v-200q4 -2 19 -2q37 0 50 25t13 77q0 54 -13 78t-50 24zM518 330v-49h-82v-78h96v-49h-155v297h155v-52h-96v-69h82zM203 150q-47 0 -74 4v292q61 9 76 9q67 0 96 -37.5t29 -116.5t-29.5 -115t-97.5 -36zM586 451h80l39 -164l38 164h82
q3 -45 13 -297h-60q0 108 -6 213l-41 -168h-55l-41 168h-2q-4 -140 -4 -213h-58q3 156 15 297zM987 150q-60 0 -84 35.5t-24 115.5q0 81 24 117.5t84 36.5t85.5 -37t25.5 -117q0 -79 -25.5 -115t-85.5 -36zM987 403q-29 0 -39 -23.5t-10 -78.5q0 -54 10 -78t39 -24
q30 0 40.5 24t10.5 78q0 55 -10 78.5t-41 23.5zM967 1016q49 0 79.5 -24.5t39 -51t8.5 -53.5q0 -43 -34.5 -72.5t-72.5 -34.5q-213 -23 -340 -147q3 8 9 22t25 53.5t39 75.5t50 80.5t59.5 76t66 53.5t71.5 22zM285 909q39 0 78 -21t69.5 -55t58.5 -74.5t48 -81.5t35 -75
t22 -55l8 -21q-117 148 -319 148q-49 0 -88 30t-39 76q0 53 33.5 91t93.5 38zM643 1214q38 -37 48.5 -102t-2.5 -131t-31.5 -126.5t-35.5 -98.5l-18 -39q20 191 -125 330q-35 35 -42 81.5t24 83.5q23 23 53 34t65 3.5t64 -35.5z" />
    <glyph glyph-name="asterisk" unicode="*" 
d="M207 403q-13 0 -19 -2v-200q4 -2 19 -2q37 0 50 25t13 77q0 54 -13 78t-50 24zM518 330v-49h-82v-78h96v-49h-155v297h155v-52h-96v-69h82zM203 150q-47 0 -74 4v292q61 9 76 9q67 0 96 -37.5t29 -116.5t-29.5 -115t-97.5 -36zM586 451h80l39 -164l38 164h82
q3 -45 13 -297h-60q0 108 -6 213l-41 -168h-55l-41 168h-2q-4 -140 -4 -213h-58q3 156 15 297zM987 150q-60 0 -84 35.5t-24 115.5q0 81 24 117.5t84 36.5t85.5 -37t25.5 -117q0 -79 -25.5 -115t-85.5 -36zM987 403q-29 0 -39 -23.5t-10 -78.5q0 -54 10 -78t39 -24
q30 0 40.5 24t10.5 78q0 55 -10 78.5t-41 23.5zM967 1016q49 0 79.5 -24.5t39 -51t8.5 -53.5q0 -43 -34.5 -72.5t-72.5 -34.5q-213 -23 -340 -147q3 8 9 22t25 53.5t39 75.5t50 80.5t59.5 76t66 53.5t71.5 22zM285 909q39 0 78 -21t69.5 -55t58.5 -74.5t48 -81.5t35 -75
t22 -55l8 -21q-117 148 -319 148q-49 0 -88 30t-39 76q0 53 33.5 91t93.5 38zM643 1214q38 -37 48.5 -102t-2.5 -131t-31.5 -126.5t-35.5 -98.5l-18 -39q20 191 -125 330q-35 35 -42 81.5t24 83.5q23 23 53 34t65 3.5t64 -35.5z" />
    <glyph glyph-name="plus" unicode="+" 
d="M207 403q-13 0 -19 -2v-200q4 -2 19 -2q37 0 50 25t13 77q0 54 -13 78t-50 24zM518 330v-49h-82v-78h96v-49h-155v297h155v-52h-96v-69h82zM203 150q-47 0 -74 4v292q61 9 76 9q67 0 96 -37.5t29 -116.5t-29.5 -115t-97.5 -36zM586 451h80l39 -164l38 164h82
q3 -45 13 -297h-60q0 108 -6 213l-41 -168h-55l-41 168h-2q-4 -140 -4 -213h-58q3 156 15 297zM987 150q-60 0 -84 35.5t-24 115.5q0 81 24 117.5t84 36.5t85.5 -37t25.5 -117q0 -79 -25.5 -115t-85.5 -36zM987 403q-29 0 -39 -23.5t-10 -78.5q0 -54 10 -78t39 -24
q30 0 40.5 24t10.5 78q0 55 -10 78.5t-41 23.5zM967 1016q49 0 79.5 -24.5t39 -51t8.5 -53.5q0 -43 -34.5 -72.5t-72.5 -34.5q-213 -23 -340 -147q3 8 9 22t25 53.5t39 75.5t50 80.5t59.5 76t66 53.5t71.5 22zM285 909q39 0 78 -21t69.5 -55t58.5 -74.5t48 -81.5t35 -75
t22 -55l8 -21q-117 148 -319 148q-49 0 -88 30t-39 76q0 53 33.5 91t93.5 38zM643 1214q38 -37 48.5 -102t-2.5 -131t-31.5 -126.5t-35.5 -98.5l-18 -39q20 191 -125 330q-35 35 -42 81.5t24 83.5q23 23 53 34t65 3.5t64 -35.5z" />
    <glyph glyph-name="comma" unicode="," horiz-adv-x="342" 
d="M-20 -307l135 307h-92l43 301h301l-43 -301l-209 -307h-135z" />
    <glyph glyph-name="hyphen" unicode="-" 
d="M207 403q-13 0 -19 -2v-200q4 -2 19 -2q37 0 50 25t13 77q0 54 -13 78t-50 24zM518 330v-49h-82v-78h96v-49h-155v297h155v-52h-96v-69h82zM203 150q-47 0 -74 4v292q61 9 76 9q67 0 96 -37.5t29 -116.5t-29.5 -115t-97.5 -36zM586 451h80l39 -164l38 164h82
q3 -45 13 -297h-60q0 108 -6 213l-41 -168h-55l-41 168h-2q-4 -140 -4 -213h-58q3 156 15 297zM987 150q-60 0 -84 35.5t-24 115.5q0 81 24 117.5t84 36.5t85.5 -37t25.5 -117q0 -79 -25.5 -115t-85.5 -36zM987 403q-29 0 -39 -23.5t-10 -78.5q0 -54 10 -78t39 -24
q30 0 40.5 24t10.5 78q0 55 -10 78.5t-41 23.5zM967 1016q49 0 79.5 -24.5t39 -51t8.5 -53.5q0 -43 -34.5 -72.5t-72.5 -34.5q-213 -23 -340 -147q3 8 9 22t25 53.5t39 75.5t50 80.5t59.5 76t66 53.5t71.5 22zM285 909q39 0 78 -21t69.5 -55t58.5 -74.5t48 -81.5t35 -75
t22 -55l8 -21q-117 148 -319 148q-49 0 -88 30t-39 76q0 53 33.5 91t93.5 38zM643 1214q38 -37 48.5 -102t-2.5 -131t-31.5 -126.5t-35.5 -98.5l-18 -39q20 191 -125 330q-35 35 -42 81.5t24 83.5q23 23 53 34t65 3.5t64 -35.5z" />
    <glyph glyph-name="period" unicode="." horiz-adv-x="342" 
d="M20 0l43 301h302l-43 -301h-302z" />
    <glyph glyph-name="slash" unicode="/" 
d="M207 403q-13 0 -19 -2v-200q4 -2 19 -2q37 0 50 25t13 77q0 54 -13 78t-50 24zM518 330v-49h-82v-78h96v-49h-155v297h155v-52h-96v-69h82zM203 150q-47 0 -74 4v292q61 9 76 9q67 0 96 -37.5t29 -116.5t-29.5 -115t-97.5 -36zM586 451h80l39 -164l38 164h82
q3 -45 13 -297h-60q0 108 -6 213l-41 -168h-55l-41 168h-2q-4 -140 -4 -213h-58q3 156 15 297zM987 150q-60 0 -84 35.5t-24 115.5q0 81 24 117.5t84 36.5t85.5 -37t25.5 -117q0 -79 -25.5 -115t-85.5 -36zM987 403q-29 0 -39 -23.5t-10 -78.5q0 -54 10 -78t39 -24
q30 0 40.5 24t10.5 78q0 55 -10 78.5t-41 23.5zM967 1016q49 0 79.5 -24.5t39 -51t8.5 -53.5q0 -43 -34.5 -72.5t-72.5 -34.5q-213 -23 -340 -147q3 8 9 22t25 53.5t39 75.5t50 80.5t59.5 76t66 53.5t71.5 22zM285 909q39 0 78 -21t69.5 -55t58.5 -74.5t48 -81.5t35 -75
t22 -55l8 -21q-117 148 -319 148q-49 0 -88 30t-39 76q0 53 33.5 91t93.5 38zM643 1214q38 -37 48.5 -102t-2.5 -131t-31.5 -126.5t-35.5 -98.5l-18 -39q20 191 -125 330q-35 35 -42 81.5t24 83.5q23 23 53 34t65 3.5t64 -35.5z" />
    <glyph glyph-name="zero" unicode="0" horiz-adv-x="815" 
d="M403 -20q-197 0 -279.5 90.5t-53.5 289.5l114 816q29 199 136.5 289.5t304.5 90.5t279.5 -90.5t53.5 -289.5l-114 -816q-29 -199 -136.5 -289.5t-304.5 -90.5zM440 246q21 0 25 24l139 996q2 11 -2 17t-7 6.5t-7 0.5q-21 0 -25 -24l-139 -996q-2 -11 2 -17t7 -6.5t7 -0.5
z" />
    <glyph glyph-name="one" unicode="1" horiz-adv-x="536" 
d="M150 0l159 1143q-63 -41 -133 -41l39 280q102 55 191 154h325l-215 -1536h-366z" />
    <glyph glyph-name="two" unicode="2" horiz-adv-x="815" 
d="M18 0l82 580q5 33 13.5 61.5t18 51.5t27 44.5t29.5 36t35.5 31t36.5 25.5t41.5 23t40.5 19.5t44 19t42 17.5q90 39 115.5 72t36.5 106l24 179q2 11 -2 17t-7 6.5t-7 0.5q-21 0 -25 -24l-35 -250h-366l22 160q27 199 135.5 289.5t305.5 90.5t278.5 -90t54.5 -290l-18 -134
q-10 -64 -35 -117.5t-55.5 -89.5t-75.5 -68.5t-81.5 -51.5t-86.5 -41q-63 -27 -93.5 -52t-40.5 -50t-17 -76l-33 -240h41l43 315h366l-79 -571h-775z" />
    <glyph glyph-name="three" unicode="3" horiz-adv-x="817" 
d="M406 -20q-197 0 -280 90.5t-54 289.5l37 269h366l-49 -359q-2 -11 2 -17t7 -6.5t7 -0.5q21 0 25 24l49 351q6 51 -14 51h-203l39 270h203q20 0 26 51l39 273q2 11 -2 17t-7 6.5t-7 0.5q-21 0 -25 -24l-39 -281h-366l26 191q27 199 135.5 289.5t305.5 90.5t280.5 -90.5
t53.5 -289.5l-19 -121q-14 -97 -48.5 -157.5t-115.5 -90.5q72 -30 90 -90.5t4 -157.5l-26 -199q-29 -200 -136 -290t-304 -90z" />
    <glyph glyph-name="four" unicode="4" 
d="M207 403q-13 0 -19 -2v-200q4 -2 19 -2q37 0 50 25t13 77q0 54 -13 78t-50 24zM518 330v-49h-82v-78h96v-49h-155v297h155v-52h-96v-69h82zM203 150q-47 0 -74 4v292q61 9 76 9q67 0 96 -37.5t29 -116.5t-29.5 -115t-97.5 -36zM586 451h80l39 -164l38 164h82
q3 -45 13 -297h-60q0 108 -6 213l-41 -168h-55l-41 168h-2q-4 -140 -4 -213h-58q3 156 15 297zM987 150q-60 0 -84 35.5t-24 115.5q0 81 24 117.5t84 36.5t85.5 -37t25.5 -117q0 -79 -25.5 -115t-85.5 -36zM987 403q-29 0 -39 -23.5t-10 -78.5q0 -54 10 -78t39 -24
q30 0 40.5 24t10.5 78q0 55 -10 78.5t-41 23.5zM967 1016q49 0 79.5 -24.5t39 -51t8.5 -53.5q0 -43 -34.5 -72.5t-72.5 -34.5q-213 -23 -340 -147q3 8 9 22t25 53.5t39 75.5t50 80.5t59.5 76t66 53.5t71.5 22zM285 909q39 0 78 -21t69.5 -55t58.5 -74.5t48 -81.5t35 -75
t22 -55l8 -21q-117 148 -319 148q-49 0 -88 30t-39 76q0 53 33.5 91t93.5 38zM643 1214q38 -37 48.5 -102t-2.5 -131t-31.5 -126.5t-35.5 -98.5l-18 -39q20 191 -125 330q-35 35 -42 81.5t24 83.5q23 23 53 34t65 3.5t64 -35.5z" />
    <glyph glyph-name="five" unicode="5" horiz-adv-x="817" 
d="M406 -20q-197 0 -280 90.5t-54 289.5l37 267h366l-49 -357q-2 -11 2 -17t7 -6.5t7 -0.5q21 0 25 24l49 361q12 92 -51 92q-46 0 -117 -47h-233l121 860h774l-68 -494h-367l33 238h-41l-45 -317q66 34 152 34q119 0 180 -70t43 -200l-51 -367q-29 -200 -136 -290t-304 -90
z" />
    <glyph glyph-name="six" unicode="6" horiz-adv-x="815" 
d="M403 -20q-197 0 -279.5 90.5t-53.5 289.5l114 816q29 199 136.5 289.5t304.5 90.5t279.5 -90.5t53.5 -289.5l-18 -125h-367l31 215q2 11 -2 17t-7 6.5t-7 0.5q-21 0 -25 -24l-41 -283q72 35 154 35q119 0 180 -70t41 -200l-53 -388q-29 -199 -136.5 -289.5t-304.5 -90.5z
M440 246q21 0 25 24l63 457q4 25 -16 25q-21 0 -25 -25l-63 -457q-2 -11 2 -17t7 -6.5t7 -0.5z" />
    <glyph glyph-name="seven" unicode="7" horiz-adv-x="806" 
d="M164 0q20 142 51.5 261.5t66.5 202t73.5 153t75 128t67.5 112t54.5 120.5t33.5 139l22 164h-41l-32 -238h-367l68 494h774l-58 -420q-12 -87 -37 -161.5t-56 -131.5t-67.5 -114t-74 -123t-72 -143t-65.5 -191t-50 -252h-366z" />
    <glyph glyph-name="eight" unicode="8" horiz-adv-x="817" 
d="M406 -20q-197 0 -280 90.5t-54 289.5l26 199q14 97 48.5 157.5t115.5 90.5q-72 30 -90 90.5t-4 157.5l18 121q30 200 137.5 290t303.5 90q197 0 280.5 -90.5t53.5 -289.5l-19 -121q-14 -97 -48.5 -157.5t-115.5 -90.5q72 -30 90 -90.5t4 -157.5l-26 -199
q-29 -200 -136 -290t-304 -90zM541 942q20 0 26 51l39 273q2 11 -2 17t-7 6.5t-7 0.5q-21 0 -25 -24l-39 -273q-6 -51 15 -51zM442 246q21 0 25 24l49 351q6 51 -14 51q-21 0 -27 -51l-49 -351q-2 -11 2 -17t7 -6.5t7 -0.5z" />
    <glyph glyph-name="nine" unicode="9" horiz-adv-x="817" 
d="M406 -20q-197 0 -280 90.5t-54 289.5l16 125h367l-29 -215q-2 -11 2 -17t7 -6.5t7 -0.5q21 0 25 24l39 283q-68 -35 -152 -35q-119 0 -180 70t-43 200l55 388q29 199 136.5 289.5t304.5 90.5t280 -90.5t54 -289.5l-115 -816q-29 -200 -136 -290t-304 -90zM518 784
q21 0 25 25l63 457q2 11 -2 17t-7 6.5t-7 0.5q-21 0 -25 -24l-63 -457q-4 -25 16 -25z" />
    <glyph glyph-name="colon" unicode=":" horiz-adv-x="344" 
d="M141 846l43 301h301l-43 -301h-301zM23 0l43 301h301l-43 -301h-301z" />
    <glyph glyph-name="semicolon" unicode=";" horiz-adv-x="344" 
d="M141 846l43 301h301l-43 -301h-301zM23 0l43 301h301l-43 -301l-209 -307h-135l135 307h-92z" />
    <glyph glyph-name="less" unicode="&#x3c;" 
d="M207 403q-13 0 -19 -2v-200q4 -2 19 -2q37 0 50 25t13 77q0 54 -13 78t-50 24zM518 330v-49h-82v-78h96v-49h-155v297h155v-52h-96v-69h82zM203 150q-47 0 -74 4v292q61 9 76 9q67 0 96 -37.5t29 -116.5t-29.5 -115t-97.5 -36zM586 451h80l39 -164l38 164h82
q3 -45 13 -297h-60q0 108 -6 213l-41 -168h-55l-41 168h-2q-4 -140 -4 -213h-58q3 156 15 297zM987 150q-60 0 -84 35.5t-24 115.5q0 81 24 117.5t84 36.5t85.5 -37t25.5 -117q0 -79 -25.5 -115t-85.5 -36zM987 403q-29 0 -39 -23.5t-10 -78.5q0 -54 10 -78t39 -24
q30 0 40.5 24t10.5 78q0 55 -10 78.5t-41 23.5zM967 1016q49 0 79.5 -24.5t39 -51t8.5 -53.5q0 -43 -34.5 -72.5t-72.5 -34.5q-213 -23 -340 -147q3 8 9 22t25 53.5t39 75.5t50 80.5t59.5 76t66 53.5t71.5 22zM285 909q39 0 78 -21t69.5 -55t58.5 -74.5t48 -81.5t35 -75
t22 -55l8 -21q-117 148 -319 148q-49 0 -88 30t-39 76q0 53 33.5 91t93.5 38zM643 1214q38 -37 48.5 -102t-2.5 -131t-31.5 -126.5t-35.5 -98.5l-18 -39q20 191 -125 330q-35 35 -42 81.5t24 83.5q23 23 53 34t65 3.5t64 -35.5z" />
    <glyph glyph-name="equal" unicode="=" 
d="M207 403q-13 0 -19 -2v-200q4 -2 19 -2q37 0 50 25t13 77q0 54 -13 78t-50 24zM518 330v-49h-82v-78h96v-49h-155v297h155v-52h-96v-69h82zM203 150q-47 0 -74 4v292q61 9 76 9q67 0 96 -37.5t29 -116.5t-29.5 -115t-97.5 -36zM586 451h80l39 -164l38 164h82
q3 -45 13 -297h-60q0 108 -6 213l-41 -168h-55l-41 168h-2q-4 -140 -4 -213h-58q3 156 15 297zM987 150q-60 0 -84 35.5t-24 115.5q0 81 24 117.5t84 36.5t85.5 -37t25.5 -117q0 -79 -25.5 -115t-85.5 -36zM987 403q-29 0 -39 -23.5t-10 -78.5q0 -54 10 -78t39 -24
q30 0 40.5 24t10.5 78q0 55 -10 78.5t-41 23.5zM967 1016q49 0 79.5 -24.5t39 -51t8.5 -53.5q0 -43 -34.5 -72.5t-72.5 -34.5q-213 -23 -340 -147q3 8 9 22t25 53.5t39 75.5t50 80.5t59.5 76t66 53.5t71.5 22zM285 909q39 0 78 -21t69.5 -55t58.5 -74.5t48 -81.5t35 -75
t22 -55l8 -21q-117 148 -319 148q-49 0 -88 30t-39 76q0 53 33.5 91t93.5 38zM643 1214q38 -37 48.5 -102t-2.5 -131t-31.5 -126.5t-35.5 -98.5l-18 -39q20 191 -125 330q-35 35 -42 81.5t24 83.5q23 23 53 34t65 3.5t64 -35.5z" />
    <glyph glyph-name="greater" unicode="&#x3e;" 
d="M207 403q-13 0 -19 -2v-200q4 -2 19 -2q37 0 50 25t13 77q0 54 -13 78t-50 24zM518 330v-49h-82v-78h96v-49h-155v297h155v-52h-96v-69h82zM203 150q-47 0 -74 4v292q61 9 76 9q67 0 96 -37.5t29 -116.5t-29.5 -115t-97.5 -36zM586 451h80l39 -164l38 164h82
q3 -45 13 -297h-60q0 108 -6 213l-41 -168h-55l-41 168h-2q-4 -140 -4 -213h-58q3 156 15 297zM987 150q-60 0 -84 35.5t-24 115.5q0 81 24 117.5t84 36.5t85.5 -37t25.5 -117q0 -79 -25.5 -115t-85.5 -36zM987 403q-29 0 -39 -23.5t-10 -78.5q0 -54 10 -78t39 -24
q30 0 40.5 24t10.5 78q0 55 -10 78.5t-41 23.5zM967 1016q49 0 79.5 -24.5t39 -51t8.5 -53.5q0 -43 -34.5 -72.5t-72.5 -34.5q-213 -23 -340 -147q3 8 9 22t25 53.5t39 75.5t50 80.5t59.5 76t66 53.5t71.5 22zM285 909q39 0 78 -21t69.5 -55t58.5 -74.5t48 -81.5t35 -75
t22 -55l8 -21q-117 148 -319 148q-49 0 -88 30t-39 76q0 53 33.5 91t93.5 38zM643 1214q38 -37 48.5 -102t-2.5 -131t-31.5 -126.5t-35.5 -98.5l-18 -39q20 191 -125 330q-35 35 -42 81.5t24 83.5q23 23 53 34t65 3.5t64 -35.5z" />
    <glyph glyph-name="question" unicode="?" horiz-adv-x="817" 
d="M297 408l25 178q20 147 67 222.5t170 123.5l47 334q2 11 -2 17t-7 6.5t-7 0.5q-21 0 -25 -24l-45 -314h-366l32 224q29 199 136.5 289.5t304.5 90.5t280 -90.5t54 -289.5l-21 -142q-20 -136 -84 -215.5t-194 -130.5l-39 -280h-326zM252 0l43 301h301l-43 -301h-301z" />
    <glyph glyph-name="at" unicode="@" 
d="M207 403q-13 0 -19 -2v-200q4 -2 19 -2q37 0 50 25t13 77q0 54 -13 78t-50 24zM518 330v-49h-82v-78h96v-49h-155v297h155v-52h-96v-69h82zM203 150q-47 0 -74 4v292q61 9 76 9q67 0 96 -37.5t29 -116.5t-29.5 -115t-97.5 -36zM586 451h80l39 -164l38 164h82
q3 -45 13 -297h-60q0 108 -6 213l-41 -168h-55l-41 168h-2q-4 -140 -4 -213h-58q3 156 15 297zM987 150q-60 0 -84 35.5t-24 115.5q0 81 24 117.5t84 36.5t85.5 -37t25.5 -117q0 -79 -25.5 -115t-85.5 -36zM987 403q-29 0 -39 -23.5t-10 -78.5q0 -54 10 -78t39 -24
q30 0 40.5 24t10.5 78q0 55 -10 78.5t-41 23.5zM967 1016q49 0 79.5 -24.5t39 -51t8.5 -53.5q0 -43 -34.5 -72.5t-72.5 -34.5q-213 -23 -340 -147q3 8 9 22t25 53.5t39 75.5t50 80.5t59.5 76t66 53.5t71.5 22zM285 909q39 0 78 -21t69.5 -55t58.5 -74.5t48 -81.5t35 -75
t22 -55l8 -21q-117 148 -319 148q-49 0 -88 30t-39 76q0 53 33.5 91t93.5 38zM643 1214q38 -37 48.5 -102t-2.5 -131t-31.5 -126.5t-35.5 -98.5l-18 -39q20 191 -125 330q-35 35 -42 81.5t24 83.5q23 23 53 34t65 3.5t64 -35.5z" />
    <glyph glyph-name="A" unicode="A" horiz-adv-x="827" 
d="M10 0l309 1536h619l-121 -1536h-366l36 301h-61l-49 -301h-367zM469 567h49l62 520l24 183h-24l-25 -183z" />
    <glyph glyph-name="B" unicode="B" horiz-adv-x="817" 
d="M20 0l216 1536h448q168 0 236.5 -80t44.5 -239l-27 -203q-14 -91 -42 -140.5t-77 -66.5q44 -17 58 -66.5t2 -140.5l-39 -281q-22 -159 -112.5 -239t-258.5 -80h-449zM520 940q13 0 20.5 2t15.5 14t11 37l31 224q4 25 -1 37t-12 14t-20 2zM424 266q13 0 20.5 2t16 14
t12.5 37l43 302q0 20 0.5 30.5t-7.5 15.5t-13 6t-15 1z" />
    <glyph glyph-name="C" unicode="C" horiz-adv-x="815" 
d="M406 -20q-197 0 -280 90.5t-54 289.5l114 816q27 199 135.5 289.5t305.5 90.5t279 -90.5t55 -289.5l-50 -342h-366l61 432q2 11 -2 17t-7 6.5t-7 0.5q-21 0 -25 -24l-139 -996q-2 -11 2 -17t7 -6.5t7 -0.5q21 0 25 24l72 518h366l-59 -428q-29 -200 -136 -290t-304 -90z
" />
    <glyph glyph-name="D" unicode="D" horiz-adv-x="815" 
d="M20 0l216 1536h460q166 0 229.5 -79t41.5 -240l-127 -898q-22 -161 -107.5 -240t-251.5 -79h-461zM424 266q13 0 20.5 2t16 14t12.5 37l127 898q3 25 -2.5 37t-12.5 14t-20 2z" />
    <glyph glyph-name="E" unicode="E" horiz-adv-x="671" 
d="M20 0l216 1536h630l-37 -266h-264l-45 -330h254l-39 -266h-254l-57 -408h274l-36 -266h-642z" />
    <glyph glyph-name="F" unicode="F" horiz-adv-x="665" 
d="M20 0l216 1536h634l-36 -266h-269l-51 -371h258l-39 -266h-258l-88 -633h-367z" />
    <glyph glyph-name="G" unicode="G" horiz-adv-x="815" 
d="M358 -20q-168 0 -241.5 91.5t-44.5 288.5l114 816q27 199 135.5 289.5t305.5 90.5t279 -90.5t55 -289.5l-46 -310h-366l57 400q2 11 -2 17t-7 6.5t-7 0.5q-21 0 -25 -24l-139 -996q-2 -11 2 -17t7 -6.5t7 -0.5q21 0 25 24l45 326h-16l30 225h383l-114 -821h-195l-22 66
q-75 -86 -220 -86z" />
    <glyph glyph-name="H" unicode="H" horiz-adv-x="815" 
d="M20 0l216 1536h366l-82 -596h41l82 596h367l-215 -1536h-367l94 674h-41l-94 -674h-367z" />
    <glyph glyph-name="I" unicode="I" horiz-adv-x="407" 
d="M20 0l216 1536h366l-215 -1536h-367z" />
    <glyph glyph-name="J" unicode="J" horiz-adv-x="815" 
d="M406 -20q-197 0 -280 90.5t-54 289.5l65 469h367l-78 -559q-2 -11 2 -17t7 -6.5t7 -0.5q21 0 25 24l139 1000h-407l37 266h774l-164 -1176q-29 -200 -136 -290t-304 -90z" />
    <glyph glyph-name="K" unicode="K" horiz-adv-x="815" 
d="M20 0l216 1536h366l-82 -594q25 0 34.5 11.5t12.5 39.5l76 543h367l-68 -481q-12 -96 -47.5 -157t-116.5 -91q72 -30 90 -90.5t4 -157.5l-77 -559h-367l88 621q3 28 -3.5 39.5t-31.5 11.5l-94 -672h-367z" />
    <glyph glyph-name="L" unicode="L" horiz-adv-x="669" 
d="M20 0l216 1536h366l-178 -1270h272l-37 -266h-639z" />
    <glyph glyph-name="M" unicode="M" horiz-adv-x="1288" 
d="M20 0l216 1536h583l-102 -920l-43 -313h26l43 313l156 920h584l-215 -1536h-367l215 1233h-24l-240 -1233h-416l109 1233h-25l-133 -1233h-367z" />
    <glyph glyph-name="N" unicode="N" horiz-adv-x="989" 
d="M20 0l216 1536h530l-100 -1233h24l127 1233h367l-215 -1536h-533l103 1233h-25l-127 -1233h-367z" />
    <glyph glyph-name="O" unicode="O" horiz-adv-x="815" 
d="M406 -20q-197 0 -280 90.5t-54 289.5l114 816q27 199 135.5 289.5t305.5 90.5t279 -90.5t55 -289.5l-115 -816q-29 -200 -136 -290t-304 -90zM442 246q21 0 25 24l139 996q2 11 -2 17t-7 6.5t-7 0.5q-21 0 -25 -24l-139 -996q-2 -11 2 -17t7 -6.5t7 -0.5z" />
    <glyph glyph-name="P" unicode="P" horiz-adv-x="815" 
d="M20 0l216 1536h460q166 0 229.5 -79t41.5 -240l-66 -461q-9 -61 -25.5 -108t-38 -81t-53.5 -57.5t-65 -38t-79.5 -22.5t-89.5 -10.5t-101 -2.5l-62 -436h-367zM485 702q13 0 20.5 2t16.5 14.5t13 37.5l65 461q3 25 -2.5 37t-12.5 14t-20 2z" />
    <glyph glyph-name="Q" unicode="Q" horiz-adv-x="815" 
d="M403 -20q-197 0 -279.5 90.5t-53.5 289.5l114 816q29 199 136.5 289.5t304.5 90.5t279.5 -90.5t53.5 -289.5l-114 -816q-23 -178 -119 -274l45 -170h-352zM440 246q21 0 25 24l139 996q2 11 -2 17t-7 6.5t-7 0.5q-21 0 -25 -24l-139 -996q-2 -11 2 -17t7 -6.5t7 -0.5z
" />
    <glyph glyph-name="R" unicode="R" horiz-adv-x="815" 
d="M20 0l216 1536h460q166 0 229.5 -79t41.5 -240l-39 -265q-12 -91 -40 -140.5t-77 -66.5q44 -17 57.5 -65.5t1.5 -140.5l-75 -539h-367l78 559q4 25 -1 37t-12 14t-20 2l-86 -612h-367zM510 879q13 0 20.5 2t16 14t12.5 37l41 285q3 25 -2.5 37t-12.5 14t-20 2z" />
    <glyph glyph-name="S" unicode="S" horiz-adv-x="815" 
d="M406 -20q-197 0 -280 90.5t-54 289.5l28 211h367l-41 -301q-2 -11 2 -17t7 -6.5t7 -0.5q21 0 25 24l31 226q8 43 2.5 73t-29.5 51.5t-80 49.5q-29 14 -53 28.5t-51 35t-46 43t-37.5 53t-26 64.5t-12 77t4.5 92l16 113q27 199 135.5 289.5t305.5 90.5t279 -90.5t55 -289.5
l-23 -160h-367l35 250q2 11 -2 17t-7 6.5t-7 0.5q-21 0 -25 -24l-24 -179q-11 -71 6.5 -102.5t97.5 -71.5q102 -50 139 -81q108 -88 90 -253l-2 -20l-26 -199q-29 -200 -136 -290t-304 -90z" />
    <glyph glyph-name="T" unicode="T" horiz-adv-x="811" 
d="M223 0l178 1270h-211l37 266h789l-37 -266h-211l-178 -1270h-367z" />
    <glyph glyph-name="U" unicode="U" horiz-adv-x="815" 
d="M406 -20q-197 0 -280 90.5t-54 289.5l164 1176h366l-176 -1266q-2 -11 2 -17t7 -6.5t7 -0.5q21 0 25 24l176 1266h367l-164 -1176q-29 -200 -136 -290t-304 -90z" />
    <glyph glyph-name="V" unicode="V" horiz-adv-x="829" 
d="M106 0l121 1536h367l-127 -1087l-27 -183h25l27 183l176 1087h366l-309 -1536h-619z" />
    <glyph glyph-name="W" unicode="W" horiz-adv-x="1419" 
d="M106 0l121 1536h408l-127 -1087l-27 -183h25l192 1270h455l-137 -1087l-27 -183h25l26 183l177 1087h407l-309 -1536h-582l168 1270h-24l-25 -183l-164 -1087h-582z" />
    <glyph glyph-name="X" unicode="X" horiz-adv-x="815" 
d="M20 0l78 559q14 97 48.5 157.5t115.5 90.5q-72 30 -89 90t-5 158l68 481h366l-76 -543q-6 -51 15 -51q20 0 26 51l76 543h367l-68 -481q-14 -97 -48.5 -157.5t-115.5 -90.5q72 -30 90 -90.5t4 -157.5l-77 -559h-367l88 621q6 51 -14 51q-21 0 -27 -51l-88 -621h-367z" />
    <glyph glyph-name="Y" unicode="Y" horiz-adv-x="815" 
d="M223 0l72 512q-98 36 -136 122t-18 232l95 670h366l-106 -760q-1 -11 3.5 -17t7.5 -6.5t7 -0.5q3 0 5 0.5t7 2t7.5 7t3.5 14.5l106 760h367l-95 -670q-20 -146 -82.5 -232t-170.5 -122l-72 -512h-367z" />
    <glyph glyph-name="Z" unicode="Z" horiz-adv-x="710" 
d="M12 0l29 207l436 1063h-287l37 266h688l-28 -207l-436 -1063h286l-37 -266h-688z" />
    <glyph glyph-name="bracketleft" unicode="[" 
d="M207 403q-13 0 -19 -2v-200q4 -2 19 -2q37 0 50 25t13 77q0 54 -13 78t-50 24zM518 330v-49h-82v-78h96v-49h-155v297h155v-52h-96v-69h82zM203 150q-47 0 -74 4v292q61 9 76 9q67 0 96 -37.5t29 -116.5t-29.5 -115t-97.5 -36zM586 451h80l39 -164l38 164h82
q3 -45 13 -297h-60q0 108 -6 213l-41 -168h-55l-41 168h-2q-4 -140 -4 -213h-58q3 156 15 297zM987 150q-60 0 -84 35.5t-24 115.5q0 81 24 117.5t84 36.5t85.5 -37t25.5 -117q0 -79 -25.5 -115t-85.5 -36zM987 403q-29 0 -39 -23.5t-10 -78.5q0 -54 10 -78t39 -24
q30 0 40.5 24t10.5 78q0 55 -10 78.5t-41 23.5zM967 1016q49 0 79.5 -24.5t39 -51t8.5 -53.5q0 -43 -34.5 -72.5t-72.5 -34.5q-213 -23 -340 -147q3 8 9 22t25 53.5t39 75.5t50 80.5t59.5 76t66 53.5t71.5 22zM285 909q39 0 78 -21t69.5 -55t58.5 -74.5t48 -81.5t35 -75
t22 -55l8 -21q-117 148 -319 148q-49 0 -88 30t-39 76q0 53 33.5 91t93.5 38zM643 1214q38 -37 48.5 -102t-2.5 -131t-31.5 -126.5t-35.5 -98.5l-18 -39q20 191 -125 330q-35 35 -42 81.5t24 83.5q23 23 53 34t65 3.5t64 -35.5z" />
    <glyph glyph-name="backslash" unicode="\" 
d="M207 403q-13 0 -19 -2v-200q4 -2 19 -2q37 0 50 25t13 77q0 54 -13 78t-50 24zM518 330v-49h-82v-78h96v-49h-155v297h155v-52h-96v-69h82zM203 150q-47 0 -74 4v292q61 9 76 9q67 0 96 -37.5t29 -116.5t-29.5 -115t-97.5 -36zM586 451h80l39 -164l38 164h82
q3 -45 13 -297h-60q0 108 -6 213l-41 -168h-55l-41 168h-2q-4 -140 -4 -213h-58q3 156 15 297zM987 150q-60 0 -84 35.5t-24 115.5q0 81 24 117.5t84 36.5t85.5 -37t25.5 -117q0 -79 -25.5 -115t-85.5 -36zM987 403q-29 0 -39 -23.5t-10 -78.5q0 -54 10 -78t39 -24
q30 0 40.5 24t10.5 78q0 55 -10 78.5t-41 23.5zM967 1016q49 0 79.5 -24.5t39 -51t8.5 -53.5q0 -43 -34.5 -72.5t-72.5 -34.5q-213 -23 -340 -147q3 8 9 22t25 53.5t39 75.5t50 80.5t59.5 76t66 53.5t71.5 22zM285 909q39 0 78 -21t69.5 -55t58.5 -74.5t48 -81.5t35 -75
t22 -55l8 -21q-117 148 -319 148q-49 0 -88 30t-39 76q0 53 33.5 91t93.5 38zM643 1214q38 -37 48.5 -102t-2.5 -131t-31.5 -126.5t-35.5 -98.5l-18 -39q20 191 -125 330q-35 35 -42 81.5t24 83.5q23 23 53 34t65 3.5t64 -35.5z" />
    <glyph glyph-name="bracketright" unicode="]" 
d="M207 403q-13 0 -19 -2v-200q4 -2 19 -2q37 0 50 25t13 77q0 54 -13 78t-50 24zM518 330v-49h-82v-78h96v-49h-155v297h155v-52h-96v-69h82zM203 150q-47 0 -74 4v292q61 9 76 9q67 0 96 -37.5t29 -116.5t-29.5 -115t-97.5 -36zM586 451h80l39 -164l38 164h82
q3 -45 13 -297h-60q0 108 -6 213l-41 -168h-55l-41 168h-2q-4 -140 -4 -213h-58q3 156 15 297zM987 150q-60 0 -84 35.5t-24 115.5q0 81 24 117.5t84 36.5t85.5 -37t25.5 -117q0 -79 -25.5 -115t-85.5 -36zM987 403q-29 0 -39 -23.5t-10 -78.5q0 -54 10 -78t39 -24
q30 0 40.5 24t10.5 78q0 55 -10 78.5t-41 23.5zM967 1016q49 0 79.5 -24.5t39 -51t8.5 -53.5q0 -43 -34.5 -72.5t-72.5 -34.5q-213 -23 -340 -147q3 8 9 22t25 53.5t39 75.5t50 80.5t59.5 76t66 53.5t71.5 22zM285 909q39 0 78 -21t69.5 -55t58.5 -74.5t48 -81.5t35 -75
t22 -55l8 -21q-117 148 -319 148q-49 0 -88 30t-39 76q0 53 33.5 91t93.5 38zM643 1214q38 -37 48.5 -102t-2.5 -131t-31.5 -126.5t-35.5 -98.5l-18 -39q20 191 -125 330q-35 35 -42 81.5t24 83.5q23 23 53 34t65 3.5t64 -35.5z" />
    <glyph glyph-name="asciicircum" unicode="^" 
d="M207 403q-13 0 -19 -2v-200q4 -2 19 -2q37 0 50 25t13 77q0 54 -13 78t-50 24zM518 330v-49h-82v-78h96v-49h-155v297h155v-52h-96v-69h82zM203 150q-47 0 -74 4v292q61 9 76 9q67 0 96 -37.5t29 -116.5t-29.5 -115t-97.5 -36zM586 451h80l39 -164l38 164h82
q3 -45 13 -297h-60q0 108 -6 213l-41 -168h-55l-41 168h-2q-4 -140 -4 -213h-58q3 156 15 297zM987 150q-60 0 -84 35.5t-24 115.5q0 81 24 117.5t84 36.5t85.5 -37t25.5 -117q0 -79 -25.5 -115t-85.5 -36zM987 403q-29 0 -39 -23.5t-10 -78.5q0 -54 10 -78t39 -24
q30 0 40.5 24t10.5 78q0 55 -10 78.5t-41 23.5zM967 1016q49 0 79.5 -24.5t39 -51t8.5 -53.5q0 -43 -34.5 -72.5t-72.5 -34.5q-213 -23 -340 -147q3 8 9 22t25 53.5t39 75.5t50 80.5t59.5 76t66 53.5t71.5 22zM285 909q39 0 78 -21t69.5 -55t58.5 -74.5t48 -81.5t35 -75
t22 -55l8 -21q-117 148 -319 148q-49 0 -88 30t-39 76q0 53 33.5 91t93.5 38zM643 1214q38 -37 48.5 -102t-2.5 -131t-31.5 -126.5t-35.5 -98.5l-18 -39q20 191 -125 330q-35 35 -42 81.5t24 83.5q23 23 53 34t65 3.5t64 -35.5z" />
    <glyph glyph-name="underscore" unicode="_" 
d="M207 403q-13 0 -19 -2v-200q4 -2 19 -2q37 0 50 25t13 77q0 54 -13 78t-50 24zM518 330v-49h-82v-78h96v-49h-155v297h155v-52h-96v-69h82zM203 150q-47 0 -74 4v292q61 9 76 9q67 0 96 -37.5t29 -116.5t-29.5 -115t-97.5 -36zM586 451h80l39 -164l38 164h82
q3 -45 13 -297h-60q0 108 -6 213l-41 -168h-55l-41 168h-2q-4 -140 -4 -213h-58q3 156 15 297zM987 150q-60 0 -84 35.5t-24 115.5q0 81 24 117.5t84 36.5t85.5 -37t25.5 -117q0 -79 -25.5 -115t-85.5 -36zM987 403q-29 0 -39 -23.5t-10 -78.5q0 -54 10 -78t39 -24
q30 0 40.5 24t10.5 78q0 55 -10 78.5t-41 23.5zM967 1016q49 0 79.5 -24.5t39 -51t8.5 -53.5q0 -43 -34.5 -72.5t-72.5 -34.5q-213 -23 -340 -147q3 8 9 22t25 53.5t39 75.5t50 80.5t59.5 76t66 53.5t71.5 22zM285 909q39 0 78 -21t69.5 -55t58.5 -74.5t48 -81.5t35 -75
t22 -55l8 -21q-117 148 -319 148q-49 0 -88 30t-39 76q0 53 33.5 91t93.5 38zM643 1214q38 -37 48.5 -102t-2.5 -131t-31.5 -126.5t-35.5 -98.5l-18 -39q20 191 -125 330q-35 35 -42 81.5t24 83.5q23 23 53 34t65 3.5t64 -35.5z" />
    <glyph glyph-name="grave" unicode="`" 
d="M207 403q-13 0 -19 -2v-200q4 -2 19 -2q37 0 50 25t13 77q0 54 -13 78t-50 24zM518 330v-49h-82v-78h96v-49h-155v297h155v-52h-96v-69h82zM203 150q-47 0 -74 4v292q61 9 76 9q67 0 96 -37.5t29 -116.5t-29.5 -115t-97.5 -36zM586 451h80l39 -164l38 164h82
q3 -45 13 -297h-60q0 108 -6 213l-41 -168h-55l-41 168h-2q-4 -140 -4 -213h-58q3 156 15 297zM987 150q-60 0 -84 35.5t-24 115.5q0 81 24 117.5t84 36.5t85.5 -37t25.5 -117q0 -79 -25.5 -115t-85.5 -36zM987 403q-29 0 -39 -23.5t-10 -78.5q0 -54 10 -78t39 -24
q30 0 40.5 24t10.5 78q0 55 -10 78.5t-41 23.5zM967 1016q49 0 79.5 -24.5t39 -51t8.5 -53.5q0 -43 -34.5 -72.5t-72.5 -34.5q-213 -23 -340 -147q3 8 9 22t25 53.5t39 75.5t50 80.5t59.5 76t66 53.5t71.5 22zM285 909q39 0 78 -21t69.5 -55t58.5 -74.5t48 -81.5t35 -75
t22 -55l8 -21q-117 148 -319 148q-49 0 -88 30t-39 76q0 53 33.5 91t93.5 38zM643 1214q38 -37 48.5 -102t-2.5 -131t-31.5 -126.5t-35.5 -98.5l-18 -39q20 191 -125 330q-35 35 -42 81.5t24 83.5q23 23 53 34t65 3.5t64 -35.5z" />
    <glyph glyph-name="a" unicode="a" horiz-adv-x="757" 
d="M250 -10q-231 0 -193 270l19 139q25 173 102 242.5t260 69.5h62l26 186q2 23 -18 23q-21 0 -23 -23l-22 -158h-338l14 99q45 329 404 329q358 0 313 -329l-119 -838h-258l-24 59q-84 -69 -205 -69zM412 238q20 0 24 22l39 285h-20q-21 0 -23 -23l-37 -262q-1 -8 0.5 -13
t5.5 -6.5t6 -2t5 -0.5z" />
    <glyph glyph-name="b" unicode="b" horiz-adv-x="759" 
d="M20 0l216 1536h337l-57 -414q68 35 152 35q232 0 194 -270l-88 -627q-38 -270 -270 -270q-121 0 -185 69l-40 -59h-259zM412 238q20 0 24 22l88 627q2 10 -2.5 15.5t-7.5 6t-8 0.5q-19 0 -23 -22l-88 -627q-1 -8 0.5 -13t5.5 -6.5t6 -2t5 -0.5z" />
    <glyph glyph-name="c" unicode="c" horiz-adv-x="757" 
d="M377 -20q-175 0 -256 81.5t-58 247.5l76 529q45 329 404 329q358 0 313 -329l-33 -220h-338l41 279q2 23 -18 23q-21 0 -23 -23l-92 -647q-2 -23 19 -23q20 0 22 23l45 321h338l-37 -262q-45 -329 -403 -329z" />
    <glyph glyph-name="d" unicode="d" horiz-adv-x="757" 
d="M250 -10q-231 0 -193 270l88 627q38 270 269 270q83 0 143 -35l57 414h338l-215 -1536h-258l-24 59q-84 -69 -205 -69zM412 238q20 0 24 22l88 627q1 10 -3.5 15.5t-7.5 6t-7 0.5q-21 0 -23 -22l-88 -627q-1 -8 0.5 -13t5.5 -6.5t6 -2t5 -0.5z" />
    <glyph glyph-name="e" unicode="e" horiz-adv-x="757" 
d="M377 -20q-175 0 -256 81.5t-58 247.5l76 529q45 329 404 329q358 0 313 -329l-43 -306h-379l-41 -282q-2 -23 19 -23q20 0 22 23l33 235h338l-25 -176q-45 -329 -403 -329zM455 678h41l30 219q2 23 -18 23q-21 0 -23 -23z" />
    <glyph glyph-name="f" unicode="f" horiz-adv-x="534" 
d="M92 0l127 899h-82l35 248h82l18 139q19 127 84 188.5t191 61.5h190l-35 -248h-57q-19 0 -27.5 -9t-11.5 -30l-14 -102h92l-35 -248h-92l-127 -899h-338z" />
    <glyph glyph-name="g" unicode="g" horiz-adv-x="759" 
d="M250 -10q-231 0 -193 270l88 627q38 270 269 270q116 0 186 -70l41 60h258l-180 -1280q-48 -330 -406 -330q-175 0 -255 82t-56 248l12 90h338l-20 -150q-2 -10 2 -15.5t7 -6t7 -0.5q21 0 25 22l30 218q-72 -35 -153 -35zM412 238q20 0 24 22l88 627q1 10 -3.5 15.5
t-7.5 6t-7 0.5q-21 0 -23 -22l-88 -627q-1 -8 0.5 -13t5.5 -6.5t6 -2t5 -0.5z" />
    <glyph glyph-name="h" unicode="h" horiz-adv-x="757" 
d="M20 0l216 1536h337l-57 -414q68 35 152 35q232 0 194 -270l-125 -887h-338l125 887q1 10 -3.5 15.5t-7.5 6t-7 0.5q-21 0 -23 -22l-125 -887h-338z" />
    <glyph glyph-name="i" unicode="i" horiz-adv-x="378" 
d="M203 1200l43 301h301l-43 -301h-301zM20 0l162 1147h338l-162 -1147h-338z" />
    <glyph glyph-name="j" unicode="j" horiz-adv-x="391" 
d="M215 1200l43 301h301l-43 -301h-301zM-127 -463l35 248h57q20 0 29 9t12 30l187 1323h337l-192 -1360q-18 -127 -83 -188.5t-192 -61.5h-190z" />
    <glyph glyph-name="k" unicode="k" horiz-adv-x="757" 
d="M573 1534l-114 -817h18q7 0 11 1t9 8.5t7 21.5l57 399h338l-61 -428q-5 -46 -31 -75.5t-78 -29.5q95 0 80 -104l-72 -510h-338l68 481q2 14 -1 21.5t-6.5 8.5t-10.5 1h-19l-72 -512h-338l216 1534h337z" />
    <glyph glyph-name="l" unicode="l" horiz-adv-x="378" 
d="M358 0h-338l216 1536h337z" />
    <glyph glyph-name="m" unicode="m" horiz-adv-x="1136" 
d="M18 0l162 1147h258l25 -60q80 70 203 70q120 0 168 -76q99 76 210 76q233 0 195 -270l-125 -887h-338l125 887q2 10 -2.5 15.5t-7.5 6t-8 0.5q-19 0 -23 -22l-125 -887h-338l125 887q2 10 -2.5 15.5t-7.5 6t-8 0.5q-19 0 -23 -22l-125 -887h-338z" />
    <glyph glyph-name="n" unicode="n" horiz-adv-x="757" 
d="M20 0l162 1147h258l25 -60q80 70 203 70q232 0 194 -270l-125 -887h-338l125 887q1 10 -3.5 15.5t-7.5 6t-7 0.5q-21 0 -23 -22l-125 -887h-338z" />
    <glyph glyph-name="o" unicode="o" horiz-adv-x="757" 
d="M377 -20q-175 0 -256 81.5t-58 247.5l76 529q45 329 404 329q358 0 313 -329l-76 -529q-45 -329 -403 -329zM412 227q20 0 22 23l92 647q2 23 -18 23q-21 0 -23 -23l-92 -647q-2 -23 19 -23z" />
    <glyph glyph-name="p" unicode="p" horiz-adv-x="759" 
d="M504 -10q-86 0 -142 35l-69 -488h-338l227 1610h258l25 -60q80 70 203 70q232 0 194 -270l-88 -627q-38 -270 -270 -270zM412 238q20 0 24 22l88 627q2 10 -2.5 15.5t-7.5 6t-8 0.5q-19 0 -23 -22l-88 -627q-1 -8 0.5 -13t5.5 -6.5t6 -2t5 -0.5z" />
    <glyph glyph-name="q" unicode="q" horiz-adv-x="757" 
d="M248 -10q-231 0 -193 270l88 627q38 270 269 270q116 0 186 -70l41 60h258l-227 -1610h-338l69 488q-72 -35 -153 -35zM410 238q20 0 24 22l88 627q1 10 -3.5 15.5t-7.5 6t-7 0.5q-19 0 -23 -22l-88 -627q-1 -8 0.5 -13t5.5 -6.5t6 -2t5 -0.5z" />
    <glyph glyph-name="r" unicode="r" horiz-adv-x="757" 
d="M20 0l162 1147h258l25 -60q80 70 203 70q232 0 194 -270l-41 -291h-338l41 291q1 10 -3.5 15.5t-7.5 6t-7 0.5q-21 0 -23 -22l-125 -887h-338z" />
    <glyph glyph-name="s" unicode="s" horiz-adv-x="757" 
d="M377 -20q-175 0 -256 81.5t-58 247.5l17 111h338l-25 -170q-2 -23 19 -23q20 0 22 23l15 94q9 45 3 73t-32 44t-92 35q-119 34 -167 98.5t-30 191.5l8 52q45 329 404 329q358 0 313 -329l-14 -93h-338l22 152q2 23 -18 23q-21 0 -23 -23l-12 -82q-9 -45 -3 -72.5
t31.5 -43.5t92.5 -35q116 -33 166 -92t35 -158l-15 -105q-45 -329 -403 -329z" />
    <glyph glyph-name="t" unicode="t" horiz-adv-x="534" 
d="M334 0q-127 0 -175 61.5t-30 188.5l92 649h-82l35 248h82l33 244h338l-33 -244h92l-35 -248h-92l-86 -612q-3 -21 3 -30t26 -9h57l-35 -248h-190z" />
    <glyph glyph-name="u" unicode="u" horiz-adv-x="757" 
d="M250 -10q-231 0 -193 270l125 887h338l-125 -887q-1 -8 0.5 -13t5.5 -6.5t6 -2t5 -0.5q20 0 24 22l125 887h338l-162 -1147h-258l-24 59q-84 -69 -205 -69z" />
    <glyph glyph-name="v" unicode="v" horiz-adv-x="753" 
d="M94 0l78 1147h338l-84 -717l-27 -182h23l27 182l116 717h338l-248 -1147h-561z" />
    <glyph glyph-name="w" unicode="w" horiz-adv-x="1120" 
d="M76 0l98 1147h338l-84 -717l-27 -182h23l27 182l116 717h324l-96 -717l-27 -182h23l26 182l117 717h338l-225 -1147h-459l90 717l27 182h-21l-27 -182l-110 -717h-471z" />
    <glyph glyph-name="x" unicode="x" horiz-adv-x="759" 
d="M20 0l72 510q15 104 109 104q-91 0 -80 105l61 428h338l-57 -408q-2 -10 2 -15.5t7 -6t7 -0.5q21 0 25 22l57 408h338l-61 -428q-15 -105 -109 -105q95 0 80 -104l-72 -510h-338l70 489q4 23 -18 23q-19 0 -23 -23l-70 -489h-338z" />
    <glyph glyph-name="y" unicode="y" horiz-adv-x="759" 
d="M250 -10q-231 0 -193 270l125 887h338l-125 -887q-1 -8 0.5 -13t5.5 -6.5t6 -2t5 -0.5q20 0 24 22l125 887h338l-180 -1280q-48 -330 -406 -330q-175 0 -255 82t-56 248l12 90h338l-20 -150q-2 -10 2 -15.5t7 -6t7 -0.5q21 0 25 22l30 218q-72 -35 -153 -35z" />
    <glyph glyph-name="z" unicode="z" horiz-adv-x="647" 
d="M12 0l27 186l346 713h-246l35 248h625l-27 -186l-346 -713h246l-35 -248h-625z" />
    <glyph glyph-name="braceleft" unicode="{" 
d="M207 403q-13 0 -19 -2v-200q4 -2 19 -2q37 0 50 25t13 77q0 54 -13 78t-50 24zM518 330v-49h-82v-78h96v-49h-155v297h155v-52h-96v-69h82zM203 150q-47 0 -74 4v292q61 9 76 9q67 0 96 -37.5t29 -116.5t-29.5 -115t-97.5 -36zM586 451h80l39 -164l38 164h82
q3 -45 13 -297h-60q0 108 -6 213l-41 -168h-55l-41 168h-2q-4 -140 -4 -213h-58q3 156 15 297zM987 150q-60 0 -84 35.5t-24 115.5q0 81 24 117.5t84 36.5t85.5 -37t25.5 -117q0 -79 -25.5 -115t-85.5 -36zM987 403q-29 0 -39 -23.5t-10 -78.5q0 -54 10 -78t39 -24
q30 0 40.5 24t10.5 78q0 55 -10 78.5t-41 23.5zM967 1016q49 0 79.5 -24.5t39 -51t8.5 -53.5q0 -43 -34.5 -72.5t-72.5 -34.5q-213 -23 -340 -147q3 8 9 22t25 53.5t39 75.5t50 80.5t59.5 76t66 53.5t71.5 22zM285 909q39 0 78 -21t69.5 -55t58.5 -74.5t48 -81.5t35 -75
t22 -55l8 -21q-117 148 -319 148q-49 0 -88 30t-39 76q0 53 33.5 91t93.5 38zM643 1214q38 -37 48.5 -102t-2.5 -131t-31.5 -126.5t-35.5 -98.5l-18 -39q20 191 -125 330q-35 35 -42 81.5t24 83.5q23 23 53 34t65 3.5t64 -35.5z" />
    <glyph glyph-name="bar" unicode="|" 
d="M207 403q-13 0 -19 -2v-200q4 -2 19 -2q37 0 50 25t13 77q0 54 -13 78t-50 24zM518 330v-49h-82v-78h96v-49h-155v297h155v-52h-96v-69h82zM203 150q-47 0 -74 4v292q61 9 76 9q67 0 96 -37.5t29 -116.5t-29.5 -115t-97.5 -36zM586 451h80l39 -164l38 164h82
q3 -45 13 -297h-60q0 108 -6 213l-41 -168h-55l-41 168h-2q-4 -140 -4 -213h-58q3 156 15 297zM987 150q-60 0 -84 35.5t-24 115.5q0 81 24 117.5t84 36.5t85.5 -37t25.5 -117q0 -79 -25.5 -115t-85.5 -36zM987 403q-29 0 -39 -23.5t-10 -78.5q0 -54 10 -78t39 -24
q30 0 40.5 24t10.5 78q0 55 -10 78.5t-41 23.5zM967 1016q49 0 79.5 -24.5t39 -51t8.5 -53.5q0 -43 -34.5 -72.5t-72.5 -34.5q-213 -23 -340 -147q3 8 9 22t25 53.5t39 75.5t50 80.5t59.5 76t66 53.5t71.5 22zM285 909q39 0 78 -21t69.5 -55t58.5 -74.5t48 -81.5t35 -75
t22 -55l8 -21q-117 148 -319 148q-49 0 -88 30t-39 76q0 53 33.5 91t93.5 38zM643 1214q38 -37 48.5 -102t-2.5 -131t-31.5 -126.5t-35.5 -98.5l-18 -39q20 191 -125 330q-35 35 -42 81.5t24 83.5q23 23 53 34t65 3.5t64 -35.5z" />
    <glyph glyph-name="braceright" unicode="}" 
d="M207 403q-13 0 -19 -2v-200q4 -2 19 -2q37 0 50 25t13 77q0 54 -13 78t-50 24zM518 330v-49h-82v-78h96v-49h-155v297h155v-52h-96v-69h82zM203 150q-47 0 -74 4v292q61 9 76 9q67 0 96 -37.5t29 -116.5t-29.5 -115t-97.5 -36zM586 451h80l39 -164l38 164h82
q3 -45 13 -297h-60q0 108 -6 213l-41 -168h-55l-41 168h-2q-4 -140 -4 -213h-58q3 156 15 297zM987 150q-60 0 -84 35.5t-24 115.5q0 81 24 117.5t84 36.5t85.5 -37t25.5 -117q0 -79 -25.5 -115t-85.5 -36zM987 403q-29 0 -39 -23.5t-10 -78.5q0 -54 10 -78t39 -24
q30 0 40.5 24t10.5 78q0 55 -10 78.5t-41 23.5zM967 1016q49 0 79.5 -24.5t39 -51t8.5 -53.5q0 -43 -34.5 -72.5t-72.5 -34.5q-213 -23 -340 -147q3 8 9 22t25 53.5t39 75.5t50 80.5t59.5 76t66 53.5t71.5 22zM285 909q39 0 78 -21t69.5 -55t58.5 -74.5t48 -81.5t35 -75
t22 -55l8 -21q-117 148 -319 148q-49 0 -88 30t-39 76q0 53 33.5 91t93.5 38zM643 1214q38 -37 48.5 -102t-2.5 -131t-31.5 -126.5t-35.5 -98.5l-18 -39q20 191 -125 330q-35 35 -42 81.5t24 83.5q23 23 53 34t65 3.5t64 -35.5z" />
    <glyph glyph-name="asciitilde" unicode="~" 
d="M207 403q-13 0 -19 -2v-200q4 -2 19 -2q37 0 50 25t13 77q0 54 -13 78t-50 24zM518 330v-49h-82v-78h96v-49h-155v297h155v-52h-96v-69h82zM203 150q-47 0 -74 4v292q61 9 76 9q67 0 96 -37.5t29 -116.5t-29.5 -115t-97.5 -36zM586 451h80l39 -164l38 164h82
q3 -45 13 -297h-60q0 108 -6 213l-41 -168h-55l-41 168h-2q-4 -140 -4 -213h-58q3 156 15 297zM987 150q-60 0 -84 35.5t-24 115.5q0 81 24 117.5t84 36.5t85.5 -37t25.5 -117q0 -79 -25.5 -115t-85.5 -36zM987 403q-29 0 -39 -23.5t-10 -78.5q0 -54 10 -78t39 -24
q30 0 40.5 24t10.5 78q0 55 -10 78.5t-41 23.5zM967 1016q49 0 79.5 -24.5t39 -51t8.5 -53.5q0 -43 -34.5 -72.5t-72.5 -34.5q-213 -23 -340 -147q3 8 9 22t25 53.5t39 75.5t50 80.5t59.5 76t66 53.5t71.5 22zM285 909q39 0 78 -21t69.5 -55t58.5 -74.5t48 -81.5t35 -75
t22 -55l8 -21q-117 148 -319 148q-49 0 -88 30t-39 76q0 53 33.5 91t93.5 38zM643 1214q38 -37 48.5 -102t-2.5 -131t-31.5 -126.5t-35.5 -98.5l-18 -39q20 191 -125 330q-35 35 -42 81.5t24 83.5q23 23 53 34t65 3.5t64 -35.5z" />
    </font>
</defs>
</svg>
