<?xml version="1.0" standalone="no"?>
<!DOCTYPE svg PUBLIC "-//W3C//DTD SVG 1.1//EN" "http://www.w3.org/Graphics/SVG/1.1/DTD/svg11.dtd" >
<svg xmlns="http://www.w3.org/2000/svg" xmlns:xlink="http://www.w3.org/1999/xlink" version="1.1">
<metadata>
Created by FontForge 20201107 at Thu Feb  6 13:49:21 2025
 By 
Copyright (c) 2020 by Artegra. All rights reserved.
</metadata>
<defs>
<font id="FONTSPRINGDEMO-ProcerusBlackRegular" horiz-adv-x="1224" >
  <font-face 
    font-family="FSP DEMO - Procerus Black"
    font-weight="900"
    font-stretch="ultra-condensed"
    units-per-em="2048"
    panose-1="2 0 5 6 4 0 0 2 0 4"
    ascent="1585"
    descent="-463"
    x-height="1147"
    cap-height="1536"
    bbox="-61 -463 1407 1556"
    underline-thickness="102"
    underline-position="-204"
    unicode-range="U+000D-007E"
  />
<missing-glyph 
d="M207 403q-13 0 -19 -2v-200q4 -2 19 -2q37 0 50 25t13 77q0 54 -13 78t-50 24zM518 330v-49h-82v-78h96v-49h-155v297h155v-52h-96v-69h82zM203 150q-47 0 -74 4v292q61 9 76 9q67 0 96 -37.5t29 -116.5t-29.5 -115t-97.5 -36zM586 451h80l39 -164l38 164h82
q3 -45 13 -297h-60q0 108 -6 213l-41 -168h-55l-41 168h-2q-4 -140 -4 -213h-58q3 156 15 297zM987 150q-60 0 -84 35.5t-24 115.5q0 81 24 117.5t84 36.5t85.5 -37t25.5 -117q0 -79 -25.5 -115t-85.5 -36zM987 403q-29 0 -39 -23.5t-10 -78.5q0 -54 10 -78t39 -24
q30 0 40.5 24t10.5 78q0 55 -10 78.5t-41 23.5zM967 1016q49 0 79.5 -24.5t39 -51t8.5 -53.5q0 -43 -34.5 -72.5t-72.5 -34.5q-213 -23 -340 -147q3 8 9 22t25 53.5t39 75.5t50 80.5t59.5 76t66 53.5t71.5 22zM285 909q39 0 78 -21t69.5 -55t58.5 -74.5t48 -81.5t35 -75
t22 -55l8 -21q-117 148 -319 148q-49 0 -88 30t-39 76q0 53 33.5 91t93.5 38zM643 1214q38 -37 48.5 -102t-2.5 -131t-31.5 -126.5t-35.5 -98.5l-18 -39q20 191 -125 330q-35 35 -42 81.5t24 83.5q23 23 53 34t65 3.5t64 -35.5z" />
    <glyph glyph-name=".notdef" 
d="M207 403q-13 0 -19 -2v-200q4 -2 19 -2q37 0 50 25t13 77q0 54 -13 78t-50 24zM518 330v-49h-82v-78h96v-49h-155v297h155v-52h-96v-69h82zM203 150q-47 0 -74 4v292q61 9 76 9q67 0 96 -37.5t29 -116.5t-29.5 -115t-97.5 -36zM586 451h80l39 -164l38 164h82
q3 -45 13 -297h-60q0 108 -6 213l-41 -168h-55l-41 168h-2q-4 -140 -4 -213h-58q3 156 15 297zM987 150q-60 0 -84 35.5t-24 115.5q0 81 24 117.5t84 36.5t85.5 -37t25.5 -117q0 -79 -25.5 -115t-85.5 -36zM987 403q-29 0 -39 -23.5t-10 -78.5q0 -54 10 -78t39 -24
q30 0 40.5 24t10.5 78q0 55 -10 78.5t-41 23.5zM967 1016q49 0 79.5 -24.5t39 -51t8.5 -53.5q0 -43 -34.5 -72.5t-72.5 -34.5q-213 -23 -340 -147q3 8 9 22t25 53.5t39 75.5t50 80.5t59.5 76t66 53.5t71.5 22zM285 909q39 0 78 -21t69.5 -55t58.5 -74.5t48 -81.5t35 -75
t22 -55l8 -21q-117 148 -319 148q-49 0 -88 30t-39 76q0 53 33.5 91t93.5 38zM643 1214q38 -37 48.5 -102t-2.5 -131t-31.5 -126.5t-35.5 -98.5l-18 -39q20 191 -125 330q-35 35 -42 81.5t24 83.5q23 23 53 34t65 3.5t64 -35.5z" />
    <glyph glyph-name="uni0000" horiz-adv-x="0" 
 />
    <glyph glyph-name="uni0000" horiz-adv-x="0" 
 />
    <glyph glyph-name="uni000D" unicode="&#xd;" horiz-adv-x="512" 
 />
    <glyph glyph-name="space" unicode=" " horiz-adv-x="225" 
 />
    <glyph glyph-name="exclam" unicode="!" 
d="M207 403q-13 0 -19 -2v-200q4 -2 19 -2q37 0 50 25t13 77q0 54 -13 78t-50 24zM518 330v-49h-82v-78h96v-49h-155v297h155v-52h-96v-69h82zM203 150q-47 0 -74 4v292q61 9 76 9q67 0 96 -37.5t29 -116.5t-29.5 -115t-97.5 -36zM586 451h80l39 -164l38 164h82
q3 -45 13 -297h-60q0 108 -6 213l-41 -168h-55l-41 168h-2q-4 -140 -4 -213h-58q3 156 15 297zM987 150q-60 0 -84 35.5t-24 115.5q0 81 24 117.5t84 36.5t85.5 -37t25.5 -117q0 -79 -25.5 -115t-85.5 -36zM987 403q-29 0 -39 -23.5t-10 -78.5q0 -54 10 -78t39 -24
q30 0 40.5 24t10.5 78q0 55 -10 78.5t-41 23.5zM967 1016q49 0 79.5 -24.5t39 -51t8.5 -53.5q0 -43 -34.5 -72.5t-72.5 -34.5q-213 -23 -340 -147q3 8 9 22t25 53.5t39 75.5t50 80.5t59.5 76t66 53.5t71.5 22zM285 909q39 0 78 -21t69.5 -55t58.5 -74.5t48 -81.5t35 -75
t22 -55l8 -21q-117 148 -319 148q-49 0 -88 30t-39 76q0 53 33.5 91t93.5 38zM643 1214q38 -37 48.5 -102t-2.5 -131t-31.5 -126.5t-35.5 -98.5l-18 -39q20 191 -125 330q-35 35 -42 81.5t24 83.5q23 23 53 34t65 3.5t64 -35.5z" />
    <glyph glyph-name="quotedbl" unicode="&#x22;" 
d="M207 403q-13 0 -19 -2v-200q4 -2 19 -2q37 0 50 25t13 77q0 54 -13 78t-50 24zM518 330v-49h-82v-78h96v-49h-155v297h155v-52h-96v-69h82zM203 150q-47 0 -74 4v292q61 9 76 9q67 0 96 -37.5t29 -116.5t-29.5 -115t-97.5 -36zM586 451h80l39 -164l38 164h82
q3 -45 13 -297h-60q0 108 -6 213l-41 -168h-55l-41 168h-2q-4 -140 -4 -213h-58q3 156 15 297zM987 150q-60 0 -84 35.5t-24 115.5q0 81 24 117.5t84 36.5t85.5 -37t25.5 -117q0 -79 -25.5 -115t-85.5 -36zM987 403q-29 0 -39 -23.5t-10 -78.5q0 -54 10 -78t39 -24
q30 0 40.5 24t10.5 78q0 55 -10 78.5t-41 23.5zM967 1016q49 0 79.5 -24.5t39 -51t8.5 -53.5q0 -43 -34.5 -72.5t-72.5 -34.5q-213 -23 -340 -147q3 8 9 22t25 53.5t39 75.5t50 80.5t59.5 76t66 53.5t71.5 22zM285 909q39 0 78 -21t69.5 -55t58.5 -74.5t48 -81.5t35 -75
t22 -55l8 -21q-117 148 -319 148q-49 0 -88 30t-39 76q0 53 33.5 91t93.5 38zM643 1214q38 -37 48.5 -102t-2.5 -131t-31.5 -126.5t-35.5 -98.5l-18 -39q20 191 -125 330q-35 35 -42 81.5t24 83.5q23 23 53 34t65 3.5t64 -35.5z" />
    <glyph glyph-name="numbersign" unicode="#" 
d="M207 403q-13 0 -19 -2v-200q4 -2 19 -2q37 0 50 25t13 77q0 54 -13 78t-50 24zM518 330v-49h-82v-78h96v-49h-155v297h155v-52h-96v-69h82zM203 150q-47 0 -74 4v292q61 9 76 9q67 0 96 -37.5t29 -116.5t-29.5 -115t-97.5 -36zM586 451h80l39 -164l38 164h82
q3 -45 13 -297h-60q0 108 -6 213l-41 -168h-55l-41 168h-2q-4 -140 -4 -213h-58q3 156 15 297zM987 150q-60 0 -84 35.5t-24 115.5q0 81 24 117.5t84 36.5t85.5 -37t25.5 -117q0 -79 -25.5 -115t-85.5 -36zM987 403q-29 0 -39 -23.5t-10 -78.5q0 -54 10 -78t39 -24
q30 0 40.5 24t10.5 78q0 55 -10 78.5t-41 23.5zM967 1016q49 0 79.5 -24.5t39 -51t8.5 -53.5q0 -43 -34.5 -72.5t-72.5 -34.5q-213 -23 -340 -147q3 8 9 22t25 53.5t39 75.5t50 80.5t59.5 76t66 53.5t71.5 22zM285 909q39 0 78 -21t69.5 -55t58.5 -74.5t48 -81.5t35 -75
t22 -55l8 -21q-117 148 -319 148q-49 0 -88 30t-39 76q0 53 33.5 91t93.5 38zM643 1214q38 -37 48.5 -102t-2.5 -131t-31.5 -126.5t-35.5 -98.5l-18 -39q20 191 -125 330q-35 35 -42 81.5t24 83.5q23 23 53 34t65 3.5t64 -35.5z" />
    <glyph glyph-name="dollar" unicode="$" 
d="M207 403q-13 0 -19 -2v-200q4 -2 19 -2q37 0 50 25t13 77q0 54 -13 78t-50 24zM518 330v-49h-82v-78h96v-49h-155v297h155v-52h-96v-69h82zM203 150q-47 0 -74 4v292q61 9 76 9q67 0 96 -37.5t29 -116.5t-29.5 -115t-97.5 -36zM586 451h80l39 -164l38 164h82
q3 -45 13 -297h-60q0 108 -6 213l-41 -168h-55l-41 168h-2q-4 -140 -4 -213h-58q3 156 15 297zM987 150q-60 0 -84 35.5t-24 115.5q0 81 24 117.5t84 36.5t85.5 -37t25.5 -117q0 -79 -25.5 -115t-85.5 -36zM987 403q-29 0 -39 -23.5t-10 -78.5q0 -54 10 -78t39 -24
q30 0 40.5 24t10.5 78q0 55 -10 78.5t-41 23.5zM967 1016q49 0 79.5 -24.5t39 -51t8.5 -53.5q0 -43 -34.5 -72.5t-72.5 -34.5q-213 -23 -340 -147q3 8 9 22t25 53.5t39 75.5t50 80.5t59.5 76t66 53.5t71.5 22zM285 909q39 0 78 -21t69.5 -55t58.5 -74.5t48 -81.5t35 -75
t22 -55l8 -21q-117 148 -319 148q-49 0 -88 30t-39 76q0 53 33.5 91t93.5 38zM643 1214q38 -37 48.5 -102t-2.5 -131t-31.5 -126.5t-35.5 -98.5l-18 -39q20 191 -125 330q-35 35 -42 81.5t24 83.5q23 23 53 34t65 3.5t64 -35.5z" />
    <glyph glyph-name="percent" unicode="%" 
d="M207 403q-13 0 -19 -2v-200q4 -2 19 -2q37 0 50 25t13 77q0 54 -13 78t-50 24zM518 330v-49h-82v-78h96v-49h-155v297h155v-52h-96v-69h82zM203 150q-47 0 -74 4v292q61 9 76 9q67 0 96 -37.5t29 -116.5t-29.5 -115t-97.5 -36zM586 451h80l39 -164l38 164h82
q3 -45 13 -297h-60q0 108 -6 213l-41 -168h-55l-41 168h-2q-4 -140 -4 -213h-58q3 156 15 297zM987 150q-60 0 -84 35.5t-24 115.5q0 81 24 117.5t84 36.5t85.5 -37t25.5 -117q0 -79 -25.5 -115t-85.5 -36zM987 403q-29 0 -39 -23.5t-10 -78.5q0 -54 10 -78t39 -24
q30 0 40.5 24t10.5 78q0 55 -10 78.5t-41 23.5zM967 1016q49 0 79.5 -24.5t39 -51t8.5 -53.5q0 -43 -34.5 -72.5t-72.5 -34.5q-213 -23 -340 -147q3 8 9 22t25 53.5t39 75.5t50 80.5t59.5 76t66 53.5t71.5 22zM285 909q39 0 78 -21t69.5 -55t58.5 -74.5t48 -81.5t35 -75
t22 -55l8 -21q-117 148 -319 148q-49 0 -88 30t-39 76q0 53 33.5 91t93.5 38zM643 1214q38 -37 48.5 -102t-2.5 -131t-31.5 -126.5t-35.5 -98.5l-18 -39q20 191 -125 330q-35 35 -42 81.5t24 83.5q23 23 53 34t65 3.5t64 -35.5z" />
    <glyph glyph-name="ampersand" unicode="&#x26;" 
d="M207 403q-13 0 -19 -2v-200q4 -2 19 -2q37 0 50 25t13 77q0 54 -13 78t-50 24zM518 330v-49h-82v-78h96v-49h-155v297h155v-52h-96v-69h82zM203 150q-47 0 -74 4v292q61 9 76 9q67 0 96 -37.5t29 -116.5t-29.5 -115t-97.5 -36zM586 451h80l39 -164l38 164h82
q3 -45 13 -297h-60q0 108 -6 213l-41 -168h-55l-41 168h-2q-4 -140 -4 -213h-58q3 156 15 297zM987 150q-60 0 -84 35.5t-24 115.5q0 81 24 117.5t84 36.5t85.5 -37t25.5 -117q0 -79 -25.5 -115t-85.5 -36zM987 403q-29 0 -39 -23.5t-10 -78.5q0 -54 10 -78t39 -24
q30 0 40.5 24t10.5 78q0 55 -10 78.5t-41 23.5zM967 1016q49 0 79.5 -24.5t39 -51t8.5 -53.5q0 -43 -34.5 -72.5t-72.5 -34.5q-213 -23 -340 -147q3 8 9 22t25 53.5t39 75.5t50 80.5t59.5 76t66 53.5t71.5 22zM285 909q39 0 78 -21t69.5 -55t58.5 -74.5t48 -81.5t35 -75
t22 -55l8 -21q-117 148 -319 148q-49 0 -88 30t-39 76q0 53 33.5 91t93.5 38zM643 1214q38 -37 48.5 -102t-2.5 -131t-31.5 -126.5t-35.5 -98.5l-18 -39q20 191 -125 330q-35 35 -42 81.5t24 83.5q23 23 53 34t65 3.5t64 -35.5z" />
    <glyph glyph-name="quotesingle" unicode="'" 
d="M207 403q-13 0 -19 -2v-200q4 -2 19 -2q37 0 50 25t13 77q0 54 -13 78t-50 24zM518 330v-49h-82v-78h96v-49h-155v297h155v-52h-96v-69h82zM203 150q-47 0 -74 4v292q61 9 76 9q67 0 96 -37.5t29 -116.5t-29.5 -115t-97.5 -36zM586 451h80l39 -164l38 164h82
q3 -45 13 -297h-60q0 108 -6 213l-41 -168h-55l-41 168h-2q-4 -140 -4 -213h-58q3 156 15 297zM987 150q-60 0 -84 35.5t-24 115.5q0 81 24 117.5t84 36.5t85.5 -37t25.5 -117q0 -79 -25.5 -115t-85.5 -36zM987 403q-29 0 -39 -23.5t-10 -78.5q0 -54 10 -78t39 -24
q30 0 40.5 24t10.5 78q0 55 -10 78.5t-41 23.5zM967 1016q49 0 79.5 -24.5t39 -51t8.5 -53.5q0 -43 -34.5 -72.5t-72.5 -34.5q-213 -23 -340 -147q3 8 9 22t25 53.5t39 75.5t50 80.5t59.5 76t66 53.5t71.5 22zM285 909q39 0 78 -21t69.5 -55t58.5 -74.5t48 -81.5t35 -75
t22 -55l8 -21q-117 148 -319 148q-49 0 -88 30t-39 76q0 53 33.5 91t93.5 38zM643 1214q38 -37 48.5 -102t-2.5 -131t-31.5 -126.5t-35.5 -98.5l-18 -39q20 191 -125 330q-35 35 -42 81.5t24 83.5q23 23 53 34t65 3.5t64 -35.5z" />
    <glyph glyph-name="parenleft" unicode="(" 
d="M207 403q-13 0 -19 -2v-200q4 -2 19 -2q37 0 50 25t13 77q0 54 -13 78t-50 24zM518 330v-49h-82v-78h96v-49h-155v297h155v-52h-96v-69h82zM203 150q-47 0 -74 4v292q61 9 76 9q67 0 96 -37.5t29 -116.5t-29.5 -115t-97.5 -36zM586 451h80l39 -164l38 164h82
q3 -45 13 -297h-60q0 108 -6 213l-41 -168h-55l-41 168h-2q-4 -140 -4 -213h-58q3 156 15 297zM987 150q-60 0 -84 35.5t-24 115.5q0 81 24 117.5t84 36.5t85.5 -37t25.5 -117q0 -79 -25.5 -115t-85.5 -36zM987 403q-29 0 -39 -23.5t-10 -78.5q0 -54 10 -78t39 -24
q30 0 40.5 24t10.5 78q0 55 -10 78.5t-41 23.5zM967 1016q49 0 79.5 -24.5t39 -51t8.5 -53.5q0 -43 -34.5 -72.5t-72.5 -34.5q-213 -23 -340 -147q3 8 9 22t25 53.5t39 75.5t50 80.5t59.5 76t66 53.5t71.5 22zM285 909q39 0 78 -21t69.5 -55t58.5 -74.5t48 -81.5t35 -75
t22 -55l8 -21q-117 148 -319 148q-49 0 -88 30t-39 76q0 53 33.5 91t93.5 38zM643 1214q38 -37 48.5 -102t-2.5 -131t-31.5 -126.5t-35.5 -98.5l-18 -39q20 191 -125 330q-35 35 -42 81.5t24 83.5q23 23 53 34t65 3.5t64 -35.5z" />
    <glyph glyph-name="parenright" unicode=")" 
d="M207 403q-13 0 -19 -2v-200q4 -2 19 -2q37 0 50 25t13 77q0 54 -13 78t-50 24zM518 330v-49h-82v-78h96v-49h-155v297h155v-52h-96v-69h82zM203 150q-47 0 -74 4v292q61 9 76 9q67 0 96 -37.5t29 -116.5t-29.5 -115t-97.5 -36zM586 451h80l39 -164l38 164h82
q3 -45 13 -297h-60q0 108 -6 213l-41 -168h-55l-41 168h-2q-4 -140 -4 -213h-58q3 156 15 297zM987 150q-60 0 -84 35.5t-24 115.5q0 81 24 117.5t84 36.5t85.5 -37t25.5 -117q0 -79 -25.5 -115t-85.5 -36zM987 403q-29 0 -39 -23.5t-10 -78.5q0 -54 10 -78t39 -24
q30 0 40.5 24t10.5 78q0 55 -10 78.5t-41 23.5zM967 1016q49 0 79.5 -24.5t39 -51t8.5 -53.5q0 -43 -34.5 -72.5t-72.5 -34.5q-213 -23 -340 -147q3 8 9 22t25 53.5t39 75.5t50 80.5t59.5 76t66 53.5t71.5 22zM285 909q39 0 78 -21t69.5 -55t58.5 -74.5t48 -81.5t35 -75
t22 -55l8 -21q-117 148 -319 148q-49 0 -88 30t-39 76q0 53 33.5 91t93.5 38zM643 1214q38 -37 48.5 -102t-2.5 -131t-31.5 -126.5t-35.5 -98.5l-18 -39q20 191 -125 330q-35 35 -42 81.5t24 83.5q23 23 53 34t65 3.5t64 -35.5z" />
    <glyph glyph-name="asterisk" unicode="*" 
d="M207 403q-13 0 -19 -2v-200q4 -2 19 -2q37 0 50 25t13 77q0 54 -13 78t-50 24zM518 330v-49h-82v-78h96v-49h-155v297h155v-52h-96v-69h82zM203 150q-47 0 -74 4v292q61 9 76 9q67 0 96 -37.5t29 -116.5t-29.5 -115t-97.5 -36zM586 451h80l39 -164l38 164h82
q3 -45 13 -297h-60q0 108 -6 213l-41 -168h-55l-41 168h-2q-4 -140 -4 -213h-58q3 156 15 297zM987 150q-60 0 -84 35.5t-24 115.5q0 81 24 117.5t84 36.5t85.5 -37t25.5 -117q0 -79 -25.5 -115t-85.5 -36zM987 403q-29 0 -39 -23.5t-10 -78.5q0 -54 10 -78t39 -24
q30 0 40.5 24t10.5 78q0 55 -10 78.5t-41 23.5zM967 1016q49 0 79.5 -24.5t39 -51t8.5 -53.5q0 -43 -34.5 -72.5t-72.5 -34.5q-213 -23 -340 -147q3 8 9 22t25 53.5t39 75.5t50 80.5t59.5 76t66 53.5t71.5 22zM285 909q39 0 78 -21t69.5 -55t58.5 -74.5t48 -81.5t35 -75
t22 -55l8 -21q-117 148 -319 148q-49 0 -88 30t-39 76q0 53 33.5 91t93.5 38zM643 1214q38 -37 48.5 -102t-2.5 -131t-31.5 -126.5t-35.5 -98.5l-18 -39q20 191 -125 330q-35 35 -42 81.5t24 83.5q23 23 53 34t65 3.5t64 -35.5z" />
    <glyph glyph-name="plus" unicode="+" 
d="M207 403q-13 0 -19 -2v-200q4 -2 19 -2q37 0 50 25t13 77q0 54 -13 78t-50 24zM518 330v-49h-82v-78h96v-49h-155v297h155v-52h-96v-69h82zM203 150q-47 0 -74 4v292q61 9 76 9q67 0 96 -37.5t29 -116.5t-29.5 -115t-97.5 -36zM586 451h80l39 -164l38 164h82
q3 -45 13 -297h-60q0 108 -6 213l-41 -168h-55l-41 168h-2q-4 -140 -4 -213h-58q3 156 15 297zM987 150q-60 0 -84 35.5t-24 115.5q0 81 24 117.5t84 36.5t85.5 -37t25.5 -117q0 -79 -25.5 -115t-85.5 -36zM987 403q-29 0 -39 -23.5t-10 -78.5q0 -54 10 -78t39 -24
q30 0 40.5 24t10.5 78q0 55 -10 78.5t-41 23.5zM967 1016q49 0 79.5 -24.5t39 -51t8.5 -53.5q0 -43 -34.5 -72.5t-72.5 -34.5q-213 -23 -340 -147q3 8 9 22t25 53.5t39 75.5t50 80.5t59.5 76t66 53.5t71.5 22zM285 909q39 0 78 -21t69.5 -55t58.5 -74.5t48 -81.5t35 -75
t22 -55l8 -21q-117 148 -319 148q-49 0 -88 30t-39 76q0 53 33.5 91t93.5 38zM643 1214q38 -37 48.5 -102t-2.5 -131t-31.5 -126.5t-35.5 -98.5l-18 -39q20 191 -125 330q-35 35 -42 81.5t24 83.5q23 23 53 34t65 3.5t64 -35.5z" />
    <glyph glyph-name="comma" unicode="," horiz-adv-x="342" 
d="M20 -307l93 307h-93v301h302v-301l-166 -307h-136z" />
    <glyph glyph-name="hyphen" unicode="-" 
d="M207 403q-13 0 -19 -2v-200q4 -2 19 -2q37 0 50 25t13 77q0 54 -13 78t-50 24zM518 330v-49h-82v-78h96v-49h-155v297h155v-52h-96v-69h82zM203 150q-47 0 -74 4v292q61 9 76 9q67 0 96 -37.5t29 -116.5t-29.5 -115t-97.5 -36zM586 451h80l39 -164l38 164h82
q3 -45 13 -297h-60q0 108 -6 213l-41 -168h-55l-41 168h-2q-4 -140 -4 -213h-58q3 156 15 297zM987 150q-60 0 -84 35.5t-24 115.5q0 81 24 117.5t84 36.5t85.5 -37t25.5 -117q0 -79 -25.5 -115t-85.5 -36zM987 403q-29 0 -39 -23.5t-10 -78.5q0 -54 10 -78t39 -24
q30 0 40.5 24t10.5 78q0 55 -10 78.5t-41 23.5zM967 1016q49 0 79.5 -24.5t39 -51t8.5 -53.5q0 -43 -34.5 -72.5t-72.5 -34.5q-213 -23 -340 -147q3 8 9 22t25 53.5t39 75.5t50 80.5t59.5 76t66 53.5t71.5 22zM285 909q39 0 78 -21t69.5 -55t58.5 -74.5t48 -81.5t35 -75
t22 -55l8 -21q-117 148 -319 148q-49 0 -88 30t-39 76q0 53 33.5 91t93.5 38zM643 1214q38 -37 48.5 -102t-2.5 -131t-31.5 -126.5t-35.5 -98.5l-18 -39q20 191 -125 330q-35 35 -42 81.5t24 83.5q23 23 53 34t65 3.5t64 -35.5z" />
    <glyph glyph-name="period" unicode="." horiz-adv-x="342" 
d="M20 0v301h302v-301h-302z" />
    <glyph glyph-name="slash" unicode="/" 
d="M207 403q-13 0 -19 -2v-200q4 -2 19 -2q37 0 50 25t13 77q0 54 -13 78t-50 24zM518 330v-49h-82v-78h96v-49h-155v297h155v-52h-96v-69h82zM203 150q-47 0 -74 4v292q61 9 76 9q67 0 96 -37.5t29 -116.5t-29.5 -115t-97.5 -36zM586 451h80l39 -164l38 164h82
q3 -45 13 -297h-60q0 108 -6 213l-41 -168h-55l-41 168h-2q-4 -140 -4 -213h-58q3 156 15 297zM987 150q-60 0 -84 35.5t-24 115.5q0 81 24 117.5t84 36.5t85.5 -37t25.5 -117q0 -79 -25.5 -115t-85.5 -36zM987 403q-29 0 -39 -23.5t-10 -78.5q0 -54 10 -78t39 -24
q30 0 40.5 24t10.5 78q0 55 -10 78.5t-41 23.5zM967 1016q49 0 79.5 -24.5t39 -51t8.5 -53.5q0 -43 -34.5 -72.5t-72.5 -34.5q-213 -23 -340 -147q3 8 9 22t25 53.5t39 75.5t50 80.5t59.5 76t66 53.5t71.5 22zM285 909q39 0 78 -21t69.5 -55t58.5 -74.5t48 -81.5t35 -75
t22 -55l8 -21q-117 148 -319 148q-49 0 -88 30t-39 76q0 53 33.5 91t93.5 38zM643 1214q38 -37 48.5 -102t-2.5 -131t-31.5 -126.5t-35.5 -98.5l-18 -39q20 191 -125 330q-35 35 -42 81.5t24 83.5q23 23 53 34t65 3.5t64 -35.5z" />
    <glyph glyph-name="zero" unicode="0" horiz-adv-x="815" 
d="M408 -20q-197 0 -292.5 90.5t-95.5 289.5v816q0 199 95.5 289.5t292.5 90.5t292 -90.5t95 -289.5v-816q0 -199 -95 -289.5t-292 -90.5zM408 246q4 0 7 0.5t8 6.5t5 17v996q0 11 -5 17t-8 6.5t-7 0.5q-3 0 -5 -0.5t-6.5 -2t-7 -7t-2.5 -14.5v-996q0 -11 5 -17t8 -6.5
t8 -0.5z" />
    <glyph glyph-name="one" unicode="1" horiz-adv-x="536" 
d="M150 0v1143q-60 -41 -130 -41v280q90 52 170 154h326v-1536h-366z" />
    <glyph glyph-name="two" unicode="2" horiz-adv-x="815" 
d="M20 0v580q0 33 5 61.5t11 51.5t20.5 44.5t24.5 36t31.5 31t33 25.5t38.5 23t38 19.5t41 19t40 17.5q36 17 59 32t36.5 28t20 32.5t8 37t1.5 48.5v179q0 11 -5 17t-8 6.5t-7 0.5q-3 0 -5 -0.5t-6.5 -2t-7 -7t-2.5 -14.5v-250h-367v160q0 199 95.5 289.5t292.5 90.5
t292 -90.5t95 -289.5v-134q0 -64 -17.5 -117.5t-42.5 -89.5t-65.5 -68.5t-74.5 -51.5t-81 -41q-85 -39 -106 -72t-21 -106v-240h41v315h367v-571h-775z" />
    <glyph glyph-name="three" unicode="3" horiz-adv-x="815" 
d="M408 -20q-197 0 -292.5 90.5t-95.5 289.5v269h367v-359q0 -11 5 -17t8 -6.5t8 -0.5q4 0 7 0.5t8 6.5t5 17v351q0 51 -20 51h-203v270h203q20 0 20 51v273q0 11 -5 17t-8 6.5t-7 0.5q-3 0 -5 -0.5t-6.5 -2t-7 -7t-2.5 -14.5v-281h-367v191q0 199 95.5 289.5t292.5 90.5
t292 -90.5t95 -289.5v-121q0 -97 -26 -157.5t-103 -90.5q77 -30 103 -90.5t26 -157.5v-199q0 -199 -95 -289.5t-292 -90.5z" />
    <glyph glyph-name="four" unicode="4" 
d="M207 403q-13 0 -19 -2v-200q4 -2 19 -2q37 0 50 25t13 77q0 54 -13 78t-50 24zM518 330v-49h-82v-78h96v-49h-155v297h155v-52h-96v-69h82zM203 150q-47 0 -74 4v292q61 9 76 9q67 0 96 -37.5t29 -116.5t-29.5 -115t-97.5 -36zM586 451h80l39 -164l38 164h82
q3 -45 13 -297h-60q0 108 -6 213l-41 -168h-55l-41 168h-2q-4 -140 -4 -213h-58q3 156 15 297zM987 150q-60 0 -84 35.5t-24 115.5q0 81 24 117.5t84 36.5t85.5 -37t25.5 -117q0 -79 -25.5 -115t-85.5 -36zM987 403q-29 0 -39 -23.5t-10 -78.5q0 -54 10 -78t39 -24
q30 0 40.5 24t10.5 78q0 55 -10 78.5t-41 23.5zM967 1016q49 0 79.5 -24.5t39 -51t8.5 -53.5q0 -43 -34.5 -72.5t-72.5 -34.5q-213 -23 -340 -147q3 8 9 22t25 53.5t39 75.5t50 80.5t59.5 76t66 53.5t71.5 22zM285 909q39 0 78 -21t69.5 -55t58.5 -74.5t48 -81.5t35 -75
t22 -55l8 -21q-117 148 -319 148q-49 0 -88 30t-39 76q0 53 33.5 91t93.5 38zM643 1214q38 -37 48.5 -102t-2.5 -131t-31.5 -126.5t-35.5 -98.5l-18 -39q20 191 -125 330q-35 35 -42 81.5t24 83.5q23 23 53 34t65 3.5t64 -35.5z" />
    <glyph glyph-name="five" unicode="5" horiz-adv-x="815" 
d="M408 -20q-197 0 -292.5 90.5t-95.5 289.5v267h367v-357q0 -11 5 -17t8 -6.5t8 -0.5q4 0 7 0.5t8 6.5t5 17v361q0 44 -17.5 68t-48.5 24q-43 0 -108 -47h-234v860h775v-494h-367v238h-41v-317q62 34 148 34q119 0 189.5 -70t70.5 -200v-367q0 -199 -95 -289.5t-292 -90.5z
" />
    <glyph glyph-name="six" unicode="6" horiz-adv-x="815" 
d="M408 -20q-197 0 -292.5 90.5t-95.5 289.5v816q0 199 95.5 289.5t292.5 90.5t292 -90.5t95 -289.5v-125h-367v215q0 11 -5 17t-8 6.5t-7 0.5q-3 0 -5 -0.5t-6.5 -2t-7 -7t-2.5 -14.5v-283q64 35 148 35q119 0 189.5 -70t70.5 -200v-388q0 -199 -95 -289.5t-292 -90.5z
M408 246q4 0 7 0.5t8 6.5t5 17v457q0 25 -20 25q-21 0 -21 -25v-457q0 -11 5 -17t8 -6.5t8 -0.5z" />
    <glyph glyph-name="seven" unicode="7" horiz-adv-x="804" 
d="M164 0q0 142 14.5 261.5t38 202t51.5 153t56 128t51.5 112t38 120.5t14.5 139v164h-41v-238h-367v494h775v-420q0 -118 -27.5 -214.5t-66.5 -173.5t-77.5 -164.5t-66 -231.5t-27.5 -332h-366z" />
    <glyph glyph-name="eight" unicode="8" horiz-adv-x="815" 
d="M408 -20q-197 0 -292.5 90.5t-95.5 289.5v199q0 97 26.5 157.5t103.5 90.5q-77 30 -103.5 90.5t-26.5 157.5v121q0 199 95.5 289.5t292.5 90.5t292 -90.5t95 -289.5v-121q0 -97 -26 -157.5t-103 -90.5q77 -30 103 -90.5t26 -157.5v-199q0 -199 -95 -289.5t-292 -90.5z
M408 942q20 0 20 51v273q0 11 -5 17t-8 6.5t-7 0.5q-3 0 -5 -0.5t-6.5 -2t-7 -7t-2.5 -14.5v-273q0 -51 21 -51zM408 246q4 0 7 0.5t8 6.5t5 17v351q0 51 -20 51q-21 0 -21 -51v-351q0 -11 5 -17t8 -6.5t8 -0.5z" />
    <glyph glyph-name="nine" unicode="9" horiz-adv-x="815" 
d="M408 -20q-197 0 -292.5 90.5t-95.5 289.5v125h367v-215q0 -11 5 -17t8 -6.5t8 -0.5q4 0 7 0.5t8 6.5t5 17v283q-64 -35 -147 -35q-119 0 -190 70t-71 200v388q0 199 95.5 289.5t292.5 90.5t292 -90.5t95 -289.5v-816q0 -199 -95 -289.5t-292 -90.5zM408 784q20 0 20 25
v457q0 11 -5 17t-8 6.5t-7 0.5q-3 0 -5 -0.5t-6.5 -2t-7 -7t-2.5 -14.5v-457q0 -25 21 -25z" />
    <glyph glyph-name="colon" unicode=":" horiz-adv-x="342" 
d="M20 846v301h302v-301h-302zM20 0v301h302v-301h-302z" />
    <glyph glyph-name="semicolon" unicode=";" horiz-adv-x="342" 
d="M20 846v301h302v-301h-302zM20 0v301h302v-301l-166 -307h-136l93 307h-93z" />
    <glyph glyph-name="less" unicode="&#x3c;" 
d="M207 403q-13 0 -19 -2v-200q4 -2 19 -2q37 0 50 25t13 77q0 54 -13 78t-50 24zM518 330v-49h-82v-78h96v-49h-155v297h155v-52h-96v-69h82zM203 150q-47 0 -74 4v292q61 9 76 9q67 0 96 -37.5t29 -116.5t-29.5 -115t-97.5 -36zM586 451h80l39 -164l38 164h82
q3 -45 13 -297h-60q0 108 -6 213l-41 -168h-55l-41 168h-2q-4 -140 -4 -213h-58q3 156 15 297zM987 150q-60 0 -84 35.5t-24 115.5q0 81 24 117.5t84 36.5t85.5 -37t25.5 -117q0 -79 -25.5 -115t-85.5 -36zM987 403q-29 0 -39 -23.5t-10 -78.5q0 -54 10 -78t39 -24
q30 0 40.5 24t10.5 78q0 55 -10 78.5t-41 23.5zM967 1016q49 0 79.5 -24.5t39 -51t8.5 -53.5q0 -43 -34.5 -72.5t-72.5 -34.5q-213 -23 -340 -147q3 8 9 22t25 53.5t39 75.5t50 80.5t59.5 76t66 53.5t71.5 22zM285 909q39 0 78 -21t69.5 -55t58.5 -74.5t48 -81.5t35 -75
t22 -55l8 -21q-117 148 -319 148q-49 0 -88 30t-39 76q0 53 33.5 91t93.5 38zM643 1214q38 -37 48.5 -102t-2.5 -131t-31.5 -126.5t-35.5 -98.5l-18 -39q20 191 -125 330q-35 35 -42 81.5t24 83.5q23 23 53 34t65 3.5t64 -35.5z" />
    <glyph glyph-name="equal" unicode="=" 
d="M207 403q-13 0 -19 -2v-200q4 -2 19 -2q37 0 50 25t13 77q0 54 -13 78t-50 24zM518 330v-49h-82v-78h96v-49h-155v297h155v-52h-96v-69h82zM203 150q-47 0 -74 4v292q61 9 76 9q67 0 96 -37.5t29 -116.5t-29.5 -115t-97.5 -36zM586 451h80l39 -164l38 164h82
q3 -45 13 -297h-60q0 108 -6 213l-41 -168h-55l-41 168h-2q-4 -140 -4 -213h-58q3 156 15 297zM987 150q-60 0 -84 35.5t-24 115.5q0 81 24 117.5t84 36.5t85.5 -37t25.5 -117q0 -79 -25.5 -115t-85.5 -36zM987 403q-29 0 -39 -23.5t-10 -78.5q0 -54 10 -78t39 -24
q30 0 40.5 24t10.5 78q0 55 -10 78.5t-41 23.5zM967 1016q49 0 79.5 -24.5t39 -51t8.5 -53.5q0 -43 -34.5 -72.5t-72.5 -34.5q-213 -23 -340 -147q3 8 9 22t25 53.5t39 75.5t50 80.5t59.5 76t66 53.5t71.5 22zM285 909q39 0 78 -21t69.5 -55t58.5 -74.5t48 -81.5t35 -75
t22 -55l8 -21q-117 148 -319 148q-49 0 -88 30t-39 76q0 53 33.5 91t93.5 38zM643 1214q38 -37 48.5 -102t-2.5 -131t-31.5 -126.5t-35.5 -98.5l-18 -39q20 191 -125 330q-35 35 -42 81.5t24 83.5q23 23 53 34t65 3.5t64 -35.5z" />
    <glyph glyph-name="greater" unicode="&#x3e;" 
d="M207 403q-13 0 -19 -2v-200q4 -2 19 -2q37 0 50 25t13 77q0 54 -13 78t-50 24zM518 330v-49h-82v-78h96v-49h-155v297h155v-52h-96v-69h82zM203 150q-47 0 -74 4v292q61 9 76 9q67 0 96 -37.5t29 -116.5t-29.5 -115t-97.5 -36zM586 451h80l39 -164l38 164h82
q3 -45 13 -297h-60q0 108 -6 213l-41 -168h-55l-41 168h-2q-4 -140 -4 -213h-58q3 156 15 297zM987 150q-60 0 -84 35.5t-24 115.5q0 81 24 117.5t84 36.5t85.5 -37t25.5 -117q0 -79 -25.5 -115t-85.5 -36zM987 403q-29 0 -39 -23.5t-10 -78.5q0 -54 10 -78t39 -24
q30 0 40.5 24t10.5 78q0 55 -10 78.5t-41 23.5zM967 1016q49 0 79.5 -24.5t39 -51t8.5 -53.5q0 -43 -34.5 -72.5t-72.5 -34.5q-213 -23 -340 -147q3 8 9 22t25 53.5t39 75.5t50 80.5t59.5 76t66 53.5t71.5 22zM285 909q39 0 78 -21t69.5 -55t58.5 -74.5t48 -81.5t35 -75
t22 -55l8 -21q-117 148 -319 148q-49 0 -88 30t-39 76q0 53 33.5 91t93.5 38zM643 1214q38 -37 48.5 -102t-2.5 -131t-31.5 -126.5t-35.5 -98.5l-18 -39q20 191 -125 330q-35 35 -42 81.5t24 83.5q23 23 53 34t65 3.5t64 -35.5z" />
    <glyph glyph-name="question" unicode="?" horiz-adv-x="815" 
d="M240 408v178q0 74 6.5 121.5t26 92t57 76t98.5 56.5v334q0 11 -5 17t-8 6.5t-7 0.5q-3 0 -5 -0.5t-6.5 -2t-7 -7t-2.5 -14.5v-314h-367v224q0 199 95.5 289.5t292.5 90.5t292 -90.5t95 -289.5v-142q0 -135 -53.5 -215t-176.5 -131v-280h-325zM252 0v301h301v-301h-301z
" />
    <glyph glyph-name="at" unicode="@" 
d="M207 403q-13 0 -19 -2v-200q4 -2 19 -2q37 0 50 25t13 77q0 54 -13 78t-50 24zM518 330v-49h-82v-78h96v-49h-155v297h155v-52h-96v-69h82zM203 150q-47 0 -74 4v292q61 9 76 9q67 0 96 -37.5t29 -116.5t-29.5 -115t-97.5 -36zM586 451h80l39 -164l38 164h82
q3 -45 13 -297h-60q0 108 -6 213l-41 -168h-55l-41 168h-2q-4 -140 -4 -213h-58q3 156 15 297zM987 150q-60 0 -84 35.5t-24 115.5q0 81 24 117.5t84 36.5t85.5 -37t25.5 -117q0 -79 -25.5 -115t-85.5 -36zM987 403q-29 0 -39 -23.5t-10 -78.5q0 -54 10 -78t39 -24
q30 0 40.5 24t10.5 78q0 55 -10 78.5t-41 23.5zM967 1016q49 0 79.5 -24.5t39 -51t8.5 -53.5q0 -43 -34.5 -72.5t-72.5 -34.5q-213 -23 -340 -147q3 8 9 22t25 53.5t39 75.5t50 80.5t59.5 76t66 53.5t71.5 22zM285 909q39 0 78 -21t69.5 -55t58.5 -74.5t48 -81.5t35 -75
t22 -55l8 -21q-117 148 -319 148q-49 0 -88 30t-39 76q0 53 33.5 91t93.5 38zM643 1214q38 -37 48.5 -102t-2.5 -131t-31.5 -126.5t-35.5 -98.5l-18 -39q20 191 -125 330q-35 35 -42 81.5t24 83.5q23 23 53 34t65 3.5t64 -35.5z" />
    <glyph glyph-name="A" unicode="A" horiz-adv-x="827" 
d="M10 0l94 1536h619l94 -1536h-366l-7 301h-61l-6 -301h-367zM389 567h49l-12 520v183h-25v-183z" />
    <glyph glyph-name="B" unicode="B" horiz-adv-x="815" 
d="M20 0v1536h449q168 0 247 -80t79 -239v-203q0 -91 -21 -140.5t-67 -66.5q46 -17 67 -66.5t21 -140.5v-281q0 -159 -79 -239t-247 -80h-449zM387 940q10 0 15 1t12.5 5.5t10.5 16t3 30.5v224q0 19 -3 30.5t-10.5 16t-12.5 5.5t-15 1v-330zM387 266q10 0 15 1t12.5 5.5
t10.5 16t3 30.5v302q0 19 -3 30.5t-10.5 16t-12.5 5.5t-15 1v-408z" />
    <glyph glyph-name="C" unicode="C" horiz-adv-x="815" 
d="M408 -20q-197 0 -292.5 90.5t-95.5 289.5v816q0 199 95.5 289.5t292.5 90.5t292 -90.5t95 -289.5v-342h-367v432q0 11 -5 17t-8 6.5t-7 0.5q-3 0 -5 -0.5t-6.5 -2t-7 -7t-2.5 -14.5v-996q0 -11 5 -17t8 -6.5t8 -0.5q4 0 7 0.5t8 6.5t5 17v518h367v-428q0 -199 -95 -289.5
t-292 -90.5z" />
    <glyph glyph-name="D" unicode="D" horiz-adv-x="815" 
d="M20 0v1536h461q166 0 240 -79t74 -240v-898q0 -161 -74 -240t-240 -79h-461zM387 266q10 0 15 1t12.5 5.5t10.5 16t3 30.5v898q0 19 -3 30.5t-10.5 16t-12.5 5.5t-15 1v-1004z" />
    <glyph glyph-name="E" unicode="E" horiz-adv-x="671" 
d="M20 0v1536h631v-266h-264v-330h254v-266h-254v-408h275v-266h-642z" />
    <glyph glyph-name="F" unicode="F" horiz-adv-x="665" 
d="M20 0v1536h635v-266h-268v-371h258v-266h-258v-633h-367z" />
    <glyph glyph-name="G" unicode="G" horiz-adv-x="815" 
d="M360 -20q-168 0 -254 91.5t-86 288.5v816q0 199 95.5 289.5t292.5 90.5t292 -90.5t95 -289.5v-310h-367v400q0 11 -5 17t-8 6.5t-7 0.5q-3 0 -5 -0.5t-6.5 -2t-7 -7t-2.5 -14.5v-996q0 -11 5 -17t8 -6.5t8 -0.5q4 0 7 0.5t8 6.5t5 17v326h-16v225h383v-821h-195l-33 66
q-61 -86 -207 -86z" />
    <glyph glyph-name="H" unicode="H" horiz-adv-x="815" 
d="M20 0v1536h367v-596h41v596h367v-1536h-367v674h-41v-674h-367z" />
    <glyph glyph-name="I" unicode="I" horiz-adv-x="407" 
d="M20 0v1536h367v-1536h-367z" />
    <glyph glyph-name="J" unicode="J" horiz-adv-x="815" 
d="M408 -20q-197 0 -292.5 90.5t-95.5 289.5v469h367v-559q0 -11 5 -17t8 -6.5t8 -0.5q4 0 7 0.5t8 6.5t5 17v1000h-408v266h775v-1176q0 -199 -95 -289.5t-292 -90.5z" />
    <glyph glyph-name="K" unicode="K" horiz-adv-x="815" 
d="M20 0v1536h367v-594q25 0 33 11.5t8 39.5v543h367v-481q0 -97 -26 -157.5t-103 -90.5q77 -30 103 -90.5t26 -157.5v-559h-367v621q0 28 -8 39.5t-33 11.5v-672h-367z" />
    <glyph glyph-name="L" unicode="L" horiz-adv-x="669" 
d="M20 0v1536h367v-1270h272v-266h-639z" />
    <glyph glyph-name="M" unicode="M" horiz-adv-x="1288" 
d="M20 0v1536h584l27 -920v-313h26v313l27 920h584v-1536h-367l41 1233h-24l-66 -1233h-416l-65 1233h-25l41 -1233h-367z" />
    <glyph glyph-name="N" unicode="N" horiz-adv-x="989" 
d="M20 0v1536h531l72 -1233h24l-45 1233h367v-1536h-533l-71 1233h-25l47 -1233h-367z" />
    <glyph glyph-name="O" unicode="O" horiz-adv-x="815" 
d="M408 -20q-197 0 -292.5 90.5t-95.5 289.5v816q0 199 95.5 289.5t292.5 90.5t292 -90.5t95 -289.5v-816q0 -199 -95 -289.5t-292 -90.5zM408 246q4 0 7 0.5t8 6.5t5 17v996q0 11 -5 17t-8 6.5t-7 0.5q-3 0 -5 -0.5t-6.5 -2t-7 -7t-2.5 -14.5v-996q0 -11 5 -17t8 -6.5
t8 -0.5z" />
    <glyph glyph-name="P" unicode="P" horiz-adv-x="815" 
d="M20 0v1536h461q166 0 240 -79t74 -240v-461q0 -84 -19.5 -143t-51.5 -93.5t-87.5 -53.5t-111 -24.5t-138.5 -5.5v-436h-367zM387 702q10 0 15.5 1t12.5 6t10 16.5t3 30.5v461q0 19 -3 30.5t-10.5 16t-12.5 5.5t-15 1v-568z" />
    <glyph glyph-name="Q" unicode="Q" horiz-adv-x="815" 
d="M408 -20q-197 0 -292.5 90.5t-95.5 289.5v816q0 199 95.5 289.5t292.5 90.5t292 -90.5t95 -289.5v-816q0 -182 -80 -274l69 -170h-352zM408 246q4 0 7 0.5t8 6.5t5 17v996q0 11 -5 17t-8 6.5t-7 0.5q-3 0 -5 -0.5t-6.5 -2t-7 -7t-2.5 -14.5v-996q0 -11 5 -17t8 -6.5
t8 -0.5z" />
    <glyph glyph-name="R" unicode="R" horiz-adv-x="815" 
d="M20 0v1536h461q166 0 240 -79t74 -240v-265q0 -91 -21 -140.5t-67 -66.5q46 -17 67 -66t21 -140v-539h-367v559q0 19 -3 30.5t-10.5 16t-12.5 5.5t-15 1v-612h-367zM387 879q10 0 15 1t12.5 5.5t10.5 16t3 30.5v285q0 19 -3 30.5t-10.5 16t-12.5 5.5t-15 1v-391z" />
    <glyph glyph-name="S" unicode="S" horiz-adv-x="815" 
d="M408 -20q-197 0 -292.5 90.5t-95.5 289.5v211h367v-301q0 -11 5 -17t8 -6.5t8 -0.5q4 0 7 0.5t8 6.5t5 17v226q0 70 -22.5 102t-108.5 72q-45 21 -80.5 42t-74 55.5t-64 74t-42 97t-16.5 124.5v113q0 199 95.5 289.5t292.5 90.5t292 -90.5t95 -289.5v-160h-367v250
q0 11 -5 17t-8 6.5t-7 0.5q-3 0 -5 -0.5t-6.5 -2t-7 -7t-2.5 -14.5v-179q0 -71 21.5 -102.5t107.5 -71.5q113 -52 157 -85q121 -95 122 -269v-199q0 -199 -95 -289.5t-292 -90.5z" />
    <glyph glyph-name="T" unicode="T" horiz-adv-x="808" 
d="M221 0v1270h-211v266h789v-266h-211v-1270h-367z" />
    <glyph glyph-name="U" unicode="U" horiz-adv-x="815" 
d="M408 -20q-197 0 -292.5 90.5t-95.5 289.5v1176h367v-1266q0 -11 5 -17t8 -6.5t8 -0.5q4 0 7 0.5t8 6.5t5 17v1266h367v-1176q0 -199 -95 -289.5t-292 -90.5z" />
    <glyph glyph-name="V" unicode="V" horiz-adv-x="827" 
d="M104 0l-94 1536h367l24 -1087v-183h25v183l25 1087h366l-94 -1536h-619z" />
    <glyph glyph-name="W" unicode="W" horiz-adv-x="1417" 
d="M104 0l-94 1536h408l24 -1087v-183h25v183l14 1087h455l14 -1087v-183h25v183l24 1087h408l-94 -1536h-582l-10 1087v183h-25v-183l-10 -1087h-582z" />
    <glyph glyph-name="X" unicode="X" horiz-adv-x="815" 
d="M20 0v559q0 97 26.5 157.5t103.5 90.5q-77 30 -103.5 90.5t-26.5 157.5v481h367v-543q0 -51 21 -51q20 0 20 51v543h367v-481q0 -97 -26 -157.5t-103 -90.5q77 -30 103 -90.5t26 -157.5v-559h-367v621q0 51 -20 51q-21 0 -21 -51v-621h-367z" />
    <glyph glyph-name="Y" unicode="Y" horiz-adv-x="815" 
d="M223 0v512q-102 36 -152.5 122t-50.5 232v670h367v-760q0 -11 5 -17t8 -6.5t8 -0.5q4 0 7 0.5t8 6.5t5 17v760h367v-670q0 -146 -50.5 -232t-154.5 -122v-512h-367z" />
    <glyph glyph-name="Z" unicode="Z" horiz-adv-x="708" 
d="M10 0v207l287 1063h-287v266h688v-207l-286 -1063h286v-266h-688z" />
    <glyph glyph-name="bracketleft" unicode="[" 
d="M207 403q-13 0 -19 -2v-200q4 -2 19 -2q37 0 50 25t13 77q0 54 -13 78t-50 24zM518 330v-49h-82v-78h96v-49h-155v297h155v-52h-96v-69h82zM203 150q-47 0 -74 4v292q61 9 76 9q67 0 96 -37.5t29 -116.5t-29.5 -115t-97.5 -36zM586 451h80l39 -164l38 164h82
q3 -45 13 -297h-60q0 108 -6 213l-41 -168h-55l-41 168h-2q-4 -140 -4 -213h-58q3 156 15 297zM987 150q-60 0 -84 35.5t-24 115.5q0 81 24 117.5t84 36.5t85.5 -37t25.5 -117q0 -79 -25.5 -115t-85.5 -36zM987 403q-29 0 -39 -23.5t-10 -78.5q0 -54 10 -78t39 -24
q30 0 40.5 24t10.5 78q0 55 -10 78.5t-41 23.5zM967 1016q49 0 79.5 -24.5t39 -51t8.5 -53.5q0 -43 -34.5 -72.5t-72.5 -34.5q-213 -23 -340 -147q3 8 9 22t25 53.5t39 75.5t50 80.5t59.5 76t66 53.5t71.5 22zM285 909q39 0 78 -21t69.5 -55t58.5 -74.5t48 -81.5t35 -75
t22 -55l8 -21q-117 148 -319 148q-49 0 -88 30t-39 76q0 53 33.5 91t93.5 38zM643 1214q38 -37 48.5 -102t-2.5 -131t-31.5 -126.5t-35.5 -98.5l-18 -39q20 191 -125 330q-35 35 -42 81.5t24 83.5q23 23 53 34t65 3.5t64 -35.5z" />
    <glyph glyph-name="backslash" unicode="\" 
d="M207 403q-13 0 -19 -2v-200q4 -2 19 -2q37 0 50 25t13 77q0 54 -13 78t-50 24zM518 330v-49h-82v-78h96v-49h-155v297h155v-52h-96v-69h82zM203 150q-47 0 -74 4v292q61 9 76 9q67 0 96 -37.5t29 -116.5t-29.5 -115t-97.5 -36zM586 451h80l39 -164l38 164h82
q3 -45 13 -297h-60q0 108 -6 213l-41 -168h-55l-41 168h-2q-4 -140 -4 -213h-58q3 156 15 297zM987 150q-60 0 -84 35.5t-24 115.5q0 81 24 117.5t84 36.5t85.5 -37t25.5 -117q0 -79 -25.5 -115t-85.5 -36zM987 403q-29 0 -39 -23.5t-10 -78.5q0 -54 10 -78t39 -24
q30 0 40.5 24t10.5 78q0 55 -10 78.5t-41 23.5zM967 1016q49 0 79.5 -24.5t39 -51t8.5 -53.5q0 -43 -34.5 -72.5t-72.5 -34.5q-213 -23 -340 -147q3 8 9 22t25 53.5t39 75.5t50 80.5t59.5 76t66 53.5t71.5 22zM285 909q39 0 78 -21t69.5 -55t58.5 -74.5t48 -81.5t35 -75
t22 -55l8 -21q-117 148 -319 148q-49 0 -88 30t-39 76q0 53 33.5 91t93.5 38zM643 1214q38 -37 48.5 -102t-2.5 -131t-31.5 -126.5t-35.5 -98.5l-18 -39q20 191 -125 330q-35 35 -42 81.5t24 83.5q23 23 53 34t65 3.5t64 -35.5z" />
    <glyph glyph-name="bracketright" unicode="]" 
d="M207 403q-13 0 -19 -2v-200q4 -2 19 -2q37 0 50 25t13 77q0 54 -13 78t-50 24zM518 330v-49h-82v-78h96v-49h-155v297h155v-52h-96v-69h82zM203 150q-47 0 -74 4v292q61 9 76 9q67 0 96 -37.5t29 -116.5t-29.5 -115t-97.5 -36zM586 451h80l39 -164l38 164h82
q3 -45 13 -297h-60q0 108 -6 213l-41 -168h-55l-41 168h-2q-4 -140 -4 -213h-58q3 156 15 297zM987 150q-60 0 -84 35.5t-24 115.5q0 81 24 117.5t84 36.5t85.5 -37t25.5 -117q0 -79 -25.5 -115t-85.5 -36zM987 403q-29 0 -39 -23.5t-10 -78.5q0 -54 10 -78t39 -24
q30 0 40.5 24t10.5 78q0 55 -10 78.5t-41 23.5zM967 1016q49 0 79.5 -24.5t39 -51t8.5 -53.5q0 -43 -34.5 -72.5t-72.5 -34.5q-213 -23 -340 -147q3 8 9 22t25 53.5t39 75.5t50 80.5t59.5 76t66 53.5t71.5 22zM285 909q39 0 78 -21t69.5 -55t58.5 -74.5t48 -81.5t35 -75
t22 -55l8 -21q-117 148 -319 148q-49 0 -88 30t-39 76q0 53 33.5 91t93.5 38zM643 1214q38 -37 48.5 -102t-2.5 -131t-31.5 -126.5t-35.5 -98.5l-18 -39q20 191 -125 330q-35 35 -42 81.5t24 83.5q23 23 53 34t65 3.5t64 -35.5z" />
    <glyph glyph-name="asciicircum" unicode="^" 
d="M207 403q-13 0 -19 -2v-200q4 -2 19 -2q37 0 50 25t13 77q0 54 -13 78t-50 24zM518 330v-49h-82v-78h96v-49h-155v297h155v-52h-96v-69h82zM203 150q-47 0 -74 4v292q61 9 76 9q67 0 96 -37.5t29 -116.5t-29.5 -115t-97.5 -36zM586 451h80l39 -164l38 164h82
q3 -45 13 -297h-60q0 108 -6 213l-41 -168h-55l-41 168h-2q-4 -140 -4 -213h-58q3 156 15 297zM987 150q-60 0 -84 35.5t-24 115.5q0 81 24 117.5t84 36.5t85.5 -37t25.5 -117q0 -79 -25.5 -115t-85.5 -36zM987 403q-29 0 -39 -23.5t-10 -78.5q0 -54 10 -78t39 -24
q30 0 40.5 24t10.5 78q0 55 -10 78.5t-41 23.5zM967 1016q49 0 79.5 -24.5t39 -51t8.5 -53.5q0 -43 -34.5 -72.5t-72.5 -34.5q-213 -23 -340 -147q3 8 9 22t25 53.5t39 75.5t50 80.5t59.5 76t66 53.5t71.5 22zM285 909q39 0 78 -21t69.5 -55t58.5 -74.5t48 -81.5t35 -75
t22 -55l8 -21q-117 148 -319 148q-49 0 -88 30t-39 76q0 53 33.5 91t93.5 38zM643 1214q38 -37 48.5 -102t-2.5 -131t-31.5 -126.5t-35.5 -98.5l-18 -39q20 191 -125 330q-35 35 -42 81.5t24 83.5q23 23 53 34t65 3.5t64 -35.5z" />
    <glyph glyph-name="underscore" unicode="_" 
d="M207 403q-13 0 -19 -2v-200q4 -2 19 -2q37 0 50 25t13 77q0 54 -13 78t-50 24zM518 330v-49h-82v-78h96v-49h-155v297h155v-52h-96v-69h82zM203 150q-47 0 -74 4v292q61 9 76 9q67 0 96 -37.5t29 -116.5t-29.5 -115t-97.5 -36zM586 451h80l39 -164l38 164h82
q3 -45 13 -297h-60q0 108 -6 213l-41 -168h-55l-41 168h-2q-4 -140 -4 -213h-58q3 156 15 297zM987 150q-60 0 -84 35.5t-24 115.5q0 81 24 117.5t84 36.5t85.5 -37t25.5 -117q0 -79 -25.5 -115t-85.5 -36zM987 403q-29 0 -39 -23.5t-10 -78.5q0 -54 10 -78t39 -24
q30 0 40.5 24t10.5 78q0 55 -10 78.5t-41 23.5zM967 1016q49 0 79.5 -24.5t39 -51t8.5 -53.5q0 -43 -34.5 -72.5t-72.5 -34.5q-213 -23 -340 -147q3 8 9 22t25 53.5t39 75.5t50 80.5t59.5 76t66 53.5t71.5 22zM285 909q39 0 78 -21t69.5 -55t58.5 -74.5t48 -81.5t35 -75
t22 -55l8 -21q-117 148 -319 148q-49 0 -88 30t-39 76q0 53 33.5 91t93.5 38zM643 1214q38 -37 48.5 -102t-2.5 -131t-31.5 -126.5t-35.5 -98.5l-18 -39q20 191 -125 330q-35 35 -42 81.5t24 83.5q23 23 53 34t65 3.5t64 -35.5z" />
    <glyph glyph-name="grave" unicode="`" 
d="M207 403q-13 0 -19 -2v-200q4 -2 19 -2q37 0 50 25t13 77q0 54 -13 78t-50 24zM518 330v-49h-82v-78h96v-49h-155v297h155v-52h-96v-69h82zM203 150q-47 0 -74 4v292q61 9 76 9q67 0 96 -37.5t29 -116.5t-29.5 -115t-97.5 -36zM586 451h80l39 -164l38 164h82
q3 -45 13 -297h-60q0 108 -6 213l-41 -168h-55l-41 168h-2q-4 -140 -4 -213h-58q3 156 15 297zM987 150q-60 0 -84 35.5t-24 115.5q0 81 24 117.5t84 36.5t85.5 -37t25.5 -117q0 -79 -25.5 -115t-85.5 -36zM987 403q-29 0 -39 -23.5t-10 -78.5q0 -54 10 -78t39 -24
q30 0 40.5 24t10.5 78q0 55 -10 78.5t-41 23.5zM967 1016q49 0 79.5 -24.5t39 -51t8.5 -53.5q0 -43 -34.5 -72.5t-72.5 -34.5q-213 -23 -340 -147q3 8 9 22t25 53.5t39 75.5t50 80.5t59.5 76t66 53.5t71.5 22zM285 909q39 0 78 -21t69.5 -55t58.5 -74.5t48 -81.5t35 -75
t22 -55l8 -21q-117 148 -319 148q-49 0 -88 30t-39 76q0 53 33.5 91t93.5 38zM643 1214q38 -37 48.5 -102t-2.5 -131t-31.5 -126.5t-35.5 -98.5l-18 -39q20 191 -125 330q-35 35 -42 81.5t24 83.5q23 23 53 34t65 3.5t64 -35.5z" />
    <glyph glyph-name="a" unicode="a" horiz-adv-x="757" 
d="M252 -10q-232 0 -232 270v139q0 87 14.5 144t51 96t97.5 55.5t155 16.5h61v186q0 23 -20 23q-21 0 -21 -23v-158h-338v99q0 166 92 247.5t267 81.5q358 0 358 -329v-838h-258l-33 59q-74 -69 -194 -69zM379 238q4 0 7 0.5t8 6t5 15.5v285h-20q-21 0 -21 -23v-262
q0 -10 5 -15.5t8 -6t8 -0.5z" />
    <glyph glyph-name="b" unicode="b" horiz-adv-x="757" 
d="M20 0v1536h338v-414q64 35 148 35q231 0 231 -270v-627q0 -270 -231 -270q-121 0 -195 69l-32 -59h-259zM379 238q4 0 7 0.5t8 6t5 15.5v627q0 10 -5 15.5t-8 6t-7 0.5q-3 0 -5 -0.5t-6.5 -2t-7 -6.5t-2.5 -13v-627q0 -10 5 -15.5t8 -6t8 -0.5z" />
    <glyph glyph-name="c" unicode="c" horiz-adv-x="757" 
d="M379 -20q-175 0 -267 81.5t-92 247.5v529q0 166 92 247.5t267 81.5q358 0 358 -329v-220h-338v279q0 23 -20 23q-21 0 -21 -23v-647q0 -23 21 -23q20 0 20 23v321h338v-262q0 -329 -358 -329z" />
    <glyph glyph-name="d" unicode="d" horiz-adv-x="757" 
d="M252 -10q-232 0 -232 270v627q0 270 232 270q83 0 147 -35v414h338v-1536h-258l-33 59q-74 -69 -194 -69zM379 238q4 0 7 0.5t8 6t5 15.5v627q0 10 -5 15.5t-8 6t-7 0.5q-3 0 -5 -0.5t-6.5 -2t-7 -6.5t-2.5 -13v-627q0 -10 5 -15.5t8 -6t8 -0.5z" />
    <glyph glyph-name="e" unicode="e" horiz-adv-x="757" 
d="M379 -20q-175 0 -267 81.5t-92 247.5v529q0 166 92 247.5t267 81.5q358 0 358 -329v-306h-379v-282q0 -23 21 -23q20 0 20 23v235h338v-176q0 -329 -358 -329zM358 678h41v219q0 23 -20 23q-21 0 -21 -23v-219z" />
    <glyph glyph-name="f" unicode="f" horiz-adv-x="532" 
d="M92 0v899h-82v248h82v139q0 127 56.5 188.5t183.5 61.5h190v-248h-57q-20 0 -27.5 -9t-7.5 -30v-102h92v-248h-92v-899h-338z" />
    <glyph glyph-name="g" unicode="g" horiz-adv-x="757" 
d="M252 -10q-232 0 -232 270v627q0 270 232 270q119 0 194 -70l33 60h258v-1280q0 -166 -91.5 -248t-266.5 -82t-267 82t-92 248v90h338v-150q0 -10 5 -15.5t8 -6t8 -0.5q4 0 7 0.5t8 6t5 15.5v218q-64 -35 -147 -35zM379 238q4 0 7 0.5t8 6t5 15.5v627q0 10 -5 15.5t-8 6
t-7 0.5q-3 0 -5 -0.5t-6.5 -2t-7 -6.5t-2.5 -13v-627q0 -10 5 -15.5t8 -6t8 -0.5z" />
    <glyph glyph-name="h" unicode="h" horiz-adv-x="757" 
d="M20 0v1536h338v-414q64 35 148 35q231 0 231 -270v-887h-338v887q0 10 -5 15.5t-8 6t-7 0.5q-3 0 -5 -0.5t-6.5 -2t-7 -6.5t-2.5 -13v-887h-338z" />
    <glyph glyph-name="i" unicode="i" horiz-adv-x="378" 
d="M35 1200v301h301v-301h-301zM20 0v1147h338v-1147h-338z" />
    <glyph glyph-name="j" unicode="j" horiz-adv-x="389" 
d="M47 1200v301h301v-301h-301zM-61 -463v248h57q20 0 27.5 9t7.5 30v1323h338v-1360q0 -127 -56.5 -188.5t-183.5 -61.5h-190z" />
    <glyph glyph-name="k" unicode="k" horiz-adv-x="757" 
d="M358 1534v-817h19q7 0 10.5 1t7.5 8.5t4 21.5v399h338v-428q0 -105 -94 -105q94 0 94 -104v-510h-338v481q0 14 -4 21.5t-7.5 8.5t-10.5 1h-19v-512h-338v1534h338z" />
    <glyph glyph-name="l" unicode="l" horiz-adv-x="378" 
d="M358 0h-338v1536h338v-1536z" />
    <glyph glyph-name="m" unicode="m" horiz-adv-x="1136" 
d="M20 0v1147h259l32 -60q75 70 195 70q118 0 178 -76q87 76 201 76q231 0 231 -270v-887h-338v887q0 10 -5 15.5t-8 6t-7 0.5q-3 0 -5 -0.5t-6.5 -2t-7 -6.5t-2.5 -13v-887h-338v887q0 10 -5 15.5t-8 6t-7 0.5q-3 0 -5 -0.5t-6.5 -2t-7 -6.5t-2.5 -13v-887h-338z" />
    <glyph glyph-name="n" unicode="n" horiz-adv-x="757" 
d="M20 0v1147h259l32 -60q75 70 195 70q231 0 231 -270v-887h-338v887q0 10 -5 15.5t-8 6t-7 0.5q-3 0 -5 -0.5t-6.5 -2t-7 -6.5t-2.5 -13v-887h-338z" />
    <glyph glyph-name="o" unicode="o" horiz-adv-x="757" 
d="M379 -20q-175 0 -267 81.5t-92 247.5v529q0 166 92 247.5t267 81.5q358 0 358 -329v-529q0 -329 -358 -329zM379 227q20 0 20 23v647q0 23 -20 23q-21 0 -21 -23v-647q0 -23 21 -23z" />
    <glyph glyph-name="p" unicode="p" horiz-adv-x="757" 
d="M506 -10q-84 0 -148 35v-488h-338v1610h259l32 -60q75 70 195 70q231 0 231 -270v-627q0 -270 -231 -270zM379 238q4 0 7 0.5t8 6t5 15.5v627q0 10 -5 15.5t-8 6t-7 0.5q-3 0 -5 -0.5t-6.5 -2t-7 -6.5t-2.5 -13v-627q0 -10 5 -15.5t8 -6t8 -0.5z" />
    <glyph glyph-name="q" unicode="q" horiz-adv-x="757" 
d="M252 -10q-232 0 -232 270v627q0 270 232 270q119 0 194 -70l33 60h258v-1610h-338v488q-64 -35 -147 -35zM379 238q4 0 7 0.5t8 6t5 15.5v627q0 10 -5 15.5t-8 6t-7 0.5q-3 0 -5 -0.5t-6.5 -2t-7 -6.5t-2.5 -13v-627q0 -10 5 -15.5t8 -6t8 -0.5z" />
    <glyph glyph-name="r" unicode="r" horiz-adv-x="757" 
d="M20 0v1147h259l32 -60q75 70 195 70q231 0 231 -270v-291h-338v291q0 10 -5 15.5t-8 6t-7 0.5q-3 0 -5 -0.5t-6.5 -2t-7 -6.5t-2.5 -13v-887h-338z" />
    <glyph glyph-name="s" unicode="s" horiz-adv-x="757" 
d="M379 -20q-175 0 -267 81.5t-92 247.5v111h338v-170q0 -23 21 -23q20 0 20 23v94q0 40 -3 59t-17.5 38t-41.5 30t-79 25q-123 34 -180.5 98.5t-57.5 191.5v52q0 166 92 247.5t267 81.5q358 0 358 -329v-93h-338v152q0 23 -20 23q-21 0 -21 -23v-82q0 -40 3 -59t18 -37.5
t42 -29.5t79 -25q120 -33 178.5 -92t58.5 -158v-105q0 -329 -358 -329z" />
    <glyph glyph-name="t" unicode="t" horiz-adv-x="532" 
d="M332 0q-127 0 -183.5 61.5t-56.5 188.5v649h-82v248h82v244h338v-244h92v-248h-92v-612q0 -21 7.5 -30t27.5 -9h57v-248h-190z" />
    <glyph glyph-name="u" unicode="u" horiz-adv-x="757" 
d="M252 -10q-232 0 -232 270v887h338v-887q0 -10 5 -15.5t8 -6t8 -0.5q4 0 7 0.5t8 6t5 15.5v887h338v-1147h-258l-33 59q-74 -69 -194 -69z" />
    <glyph glyph-name="v" unicode="v" horiz-adv-x="751" 
d="M94 0l-84 1147h338l17 -717v-182h22v182l16 717h338l-86 -1147h-561z" />
    <glyph glyph-name="w" unicode="w" horiz-adv-x="1118" 
d="M74 0l-64 1147h338l17 -717v-182h22v182l16 717h324l4 -717v-182h23v182l16 717h338l-64 -1147h-458l-11 717v182h-20v-182l-10 -717h-471z" />
    <glyph glyph-name="x" unicode="x" horiz-adv-x="757" 
d="M20 0v510q0 104 95 104q-95 0 -95 105v428h338v-408q0 -10 5 -15.5t8 -6t8 -0.5q4 0 7 0.5t8 6t5 15.5v408h338v-428q0 -105 -94 -105q94 0 94 -104v-510h-338v489q0 23 -20 23q-21 0 -21 -23v-489h-338z" />
    <glyph glyph-name="y" unicode="y" horiz-adv-x="757" 
d="M252 -10q-232 0 -232 270v887h338v-887q0 -10 5 -15.5t8 -6t8 -0.5q4 0 7 0.5t8 6t5 15.5v887h338v-1280q0 -166 -91.5 -248t-266.5 -82t-267 82t-92 248v90h338v-150q0 -10 5 -15.5t8 -6t8 -0.5q4 0 7 0.5t8 6t5 15.5v218q-64 -35 -147 -35z" />
    <glyph glyph-name="z" unicode="z" horiz-adv-x="645" 
d="M10 0v186l246 713h-246v248h625v-186l-246 -713h246v-248h-625z" />
    <glyph glyph-name="braceleft" unicode="{" 
d="M207 403q-13 0 -19 -2v-200q4 -2 19 -2q37 0 50 25t13 77q0 54 -13 78t-50 24zM518 330v-49h-82v-78h96v-49h-155v297h155v-52h-96v-69h82zM203 150q-47 0 -74 4v292q61 9 76 9q67 0 96 -37.5t29 -116.5t-29.5 -115t-97.5 -36zM586 451h80l39 -164l38 164h82
q3 -45 13 -297h-60q0 108 -6 213l-41 -168h-55l-41 168h-2q-4 -140 -4 -213h-58q3 156 15 297zM987 150q-60 0 -84 35.5t-24 115.5q0 81 24 117.5t84 36.5t85.5 -37t25.5 -117q0 -79 -25.5 -115t-85.5 -36zM987 403q-29 0 -39 -23.5t-10 -78.5q0 -54 10 -78t39 -24
q30 0 40.5 24t10.5 78q0 55 -10 78.5t-41 23.5zM967 1016q49 0 79.5 -24.5t39 -51t8.5 -53.5q0 -43 -34.5 -72.5t-72.5 -34.5q-213 -23 -340 -147q3 8 9 22t25 53.5t39 75.5t50 80.5t59.5 76t66 53.5t71.5 22zM285 909q39 0 78 -21t69.5 -55t58.5 -74.5t48 -81.5t35 -75
t22 -55l8 -21q-117 148 -319 148q-49 0 -88 30t-39 76q0 53 33.5 91t93.5 38zM643 1214q38 -37 48.5 -102t-2.5 -131t-31.5 -126.5t-35.5 -98.5l-18 -39q20 191 -125 330q-35 35 -42 81.5t24 83.5q23 23 53 34t65 3.5t64 -35.5z" />
    <glyph glyph-name="bar" unicode="|" 
d="M207 403q-13 0 -19 -2v-200q4 -2 19 -2q37 0 50 25t13 77q0 54 -13 78t-50 24zM518 330v-49h-82v-78h96v-49h-155v297h155v-52h-96v-69h82zM203 150q-47 0 -74 4v292q61 9 76 9q67 0 96 -37.5t29 -116.5t-29.5 -115t-97.5 -36zM586 451h80l39 -164l38 164h82
q3 -45 13 -297h-60q0 108 -6 213l-41 -168h-55l-41 168h-2q-4 -140 -4 -213h-58q3 156 15 297zM987 150q-60 0 -84 35.5t-24 115.5q0 81 24 117.5t84 36.5t85.5 -37t25.5 -117q0 -79 -25.5 -115t-85.5 -36zM987 403q-29 0 -39 -23.5t-10 -78.5q0 -54 10 -78t39 -24
q30 0 40.5 24t10.5 78q0 55 -10 78.5t-41 23.5zM967 1016q49 0 79.5 -24.5t39 -51t8.5 -53.5q0 -43 -34.5 -72.5t-72.5 -34.5q-213 -23 -340 -147q3 8 9 22t25 53.5t39 75.5t50 80.5t59.5 76t66 53.5t71.5 22zM285 909q39 0 78 -21t69.5 -55t58.5 -74.5t48 -81.5t35 -75
t22 -55l8 -21q-117 148 -319 148q-49 0 -88 30t-39 76q0 53 33.5 91t93.5 38zM643 1214q38 -37 48.5 -102t-2.5 -131t-31.5 -126.5t-35.5 -98.5l-18 -39q20 191 -125 330q-35 35 -42 81.5t24 83.5q23 23 53 34t65 3.5t64 -35.5z" />
    <glyph glyph-name="braceright" unicode="}" 
d="M207 403q-13 0 -19 -2v-200q4 -2 19 -2q37 0 50 25t13 77q0 54 -13 78t-50 24zM518 330v-49h-82v-78h96v-49h-155v297h155v-52h-96v-69h82zM203 150q-47 0 -74 4v292q61 9 76 9q67 0 96 -37.5t29 -116.5t-29.5 -115t-97.5 -36zM586 451h80l39 -164l38 164h82
q3 -45 13 -297h-60q0 108 -6 213l-41 -168h-55l-41 168h-2q-4 -140 -4 -213h-58q3 156 15 297zM987 150q-60 0 -84 35.5t-24 115.5q0 81 24 117.5t84 36.5t85.5 -37t25.5 -117q0 -79 -25.5 -115t-85.5 -36zM987 403q-29 0 -39 -23.5t-10 -78.5q0 -54 10 -78t39 -24
q30 0 40.5 24t10.5 78q0 55 -10 78.5t-41 23.5zM967 1016q49 0 79.5 -24.5t39 -51t8.5 -53.5q0 -43 -34.5 -72.5t-72.5 -34.5q-213 -23 -340 -147q3 8 9 22t25 53.5t39 75.5t50 80.5t59.5 76t66 53.5t71.5 22zM285 909q39 0 78 -21t69.5 -55t58.5 -74.5t48 -81.5t35 -75
t22 -55l8 -21q-117 148 -319 148q-49 0 -88 30t-39 76q0 53 33.5 91t93.5 38zM643 1214q38 -37 48.5 -102t-2.5 -131t-31.5 -126.5t-35.5 -98.5l-18 -39q20 191 -125 330q-35 35 -42 81.5t24 83.5q23 23 53 34t65 3.5t64 -35.5z" />
    <glyph glyph-name="asciitilde" unicode="~" 
d="M207 403q-13 0 -19 -2v-200q4 -2 19 -2q37 0 50 25t13 77q0 54 -13 78t-50 24zM518 330v-49h-82v-78h96v-49h-155v297h155v-52h-96v-69h82zM203 150q-47 0 -74 4v292q61 9 76 9q67 0 96 -37.5t29 -116.5t-29.5 -115t-97.5 -36zM586 451h80l39 -164l38 164h82
q3 -45 13 -297h-60q0 108 -6 213l-41 -168h-55l-41 168h-2q-4 -140 -4 -213h-58q3 156 15 297zM987 150q-60 0 -84 35.5t-24 115.5q0 81 24 117.5t84 36.5t85.5 -37t25.5 -117q0 -79 -25.5 -115t-85.5 -36zM987 403q-29 0 -39 -23.5t-10 -78.5q0 -54 10 -78t39 -24
q30 0 40.5 24t10.5 78q0 55 -10 78.5t-41 23.5zM967 1016q49 0 79.5 -24.5t39 -51t8.5 -53.5q0 -43 -34.5 -72.5t-72.5 -34.5q-213 -23 -340 -147q3 8 9 22t25 53.5t39 75.5t50 80.5t59.5 76t66 53.5t71.5 22zM285 909q39 0 78 -21t69.5 -55t58.5 -74.5t48 -81.5t35 -75
t22 -55l8 -21q-117 148 -319 148q-49 0 -88 30t-39 76q0 53 33.5 91t93.5 38zM643 1214q38 -37 48.5 -102t-2.5 -131t-31.5 -126.5t-35.5 -98.5l-18 -39q20 191 -125 330q-35 35 -42 81.5t24 83.5q23 23 53 34t65 3.5t64 -35.5z" />
    </font>
</defs>
</svg>
