<svg version="1.2" xmlns="http://www.w3.org/2000/svg" viewBox="0 0 31 31" width="31" height="31">
	<title>Group 10</title>
	<style>
		.s0 { fill: #444444 } 
		.s1 { fill: #ffffff } 
	</style>
	<path fill-rule="evenodd" class="s0" d="m15.5 31c-8.6 0-15.5-6.9-15.5-15.5 0-8.6 6.9-15.5 15.5-15.5 8.6 0 15.5 6.9 15.5 15.5 0 8.6-6.9 15.5-15.5 15.5z"/>
	<path class="s1" d="m10 15c-0.6 0-1 0.4-1 1 0 0.6 0.4 1 1 1zm12.7 1.7c0.4-0.4 0.4-1 0-1.4l-6.4-6.4c-0.3-0.4-1-0.4-1.4 0-0.4 0.4-0.4 1.1 0 1.4l5.7 5.7-5.7 5.7c-0.4 0.3-0.4 1 0 1.4 0.4 0.4 1.1 0.4 1.4 0zm-12.7 0.3h12v-2h-12z"/>
</svg>