<svg width="47" height="37" viewBox="0 0 47 37" fill="none" xmlns="http://www.w3.org/2000/svg">
<path d="M12.033 0.615997H22.017C19.457 3.688 17.3663 7.05866 15.745 10.728C14.209 14.3973 13.5263 17.512 13.697 20.072L11.009 16.872C13.9103 16.872 16.3423 17.8533 18.305 19.816C20.353 21.6933 21.377 23.9973 21.377 26.728C21.377 29.544 20.4383 31.9333 18.561 33.896C16.6837 35.8587 14.2943 36.84 11.393 36.84C8.23567 36.84 5.67567 35.7307 3.713 33.512C1.75033 31.2933 0.769 28.4347 0.769 24.936C0.769 22.4613 1.281 19.7733 2.305 16.872C3.41433 13.8853 4.77967 10.984 6.401 8.168C8.10767 5.26666 9.985 2.74933 12.033 0.615997ZM36.097 0.615997H46.081C43.521 3.688 41.4303 7.05866 39.809 10.728C38.273 14.3973 37.5903 17.512 37.761 20.072L35.073 16.872C37.9743 16.872 40.4063 17.8533 42.369 19.816C44.417 21.6933 45.441 23.9973 45.441 26.728C45.441 29.544 44.5023 31.9333 42.625 33.896C40.7477 35.8587 38.3583 36.84 35.457 36.84C32.2997 36.84 29.7397 35.7307 27.777 33.512C25.8143 31.2933 24.833 28.4347 24.833 24.936C24.833 22.4613 25.345 19.7733 26.369 16.872C27.4783 13.8853 28.8437 10.984 30.465 8.168C32.1717 5.26666 34.049 2.74933 36.097 0.615997Z" fill="#FFFD54"/>
</svg>
